<?xml version="1.0" encoding="iso-8859-1"?>
<!-- Generator: Adobe Illustrator 19.0.0, SVG Export Plug-In . SVG Version: 6.00 Build 0)  -->
<svg version="1.1" id="Layer_1" xmlns="http://www.w3.org/2000/svg" xmlns:xlink="http://www.w3.org/1999/xlink" x="0px" y="0px"
	 viewBox="0 0 512.002 512.002" style="enable-background:new 0 0 512.002 512.002;" xml:space="preserve">
<polygon style="fill:#FFFFFF;" points="503.997,388.047 7.829,388.047 7.829,147.965 439.976,147.965 503.997,260.003 "/>
<g>
	<circle style="fill:#E30613;" cx="119.873" cy="219.986" r="48.016"/>
	<rect x="295.93" y="75.936" style="fill:#E30613;" width="40.013" height="48.016"/>
</g>
<polygon style="fill:#86CBED;" points="503.997,268.006 351.947,268.006 351.947,171.973 455.981,171.973 "/>
<g>
	<circle style="fill:#575756;" cx="111.866" cy="388.047" r="48.016"/>
	<circle style="fill:#575756;" cx="399.967" cy="388.047" r="48.016"/>
</g>
<g>
	<circle style="fill:#F9B233;" cx="111.866" cy="388.047" r="24.008"/>
	<circle style="fill:#F9B233;" cx="399.967" cy="388.047" r="24.008"/>
</g>
<rect x="7.829" y="292.017" style="fill:#E30613;" width="496.164" height="24.008"/>
<g>
	<path style="fill:#1D1D1B;" d="M111.865,419.884c-17.556,0-31.837-14.282-31.837-31.837c0-17.556,14.282-31.837,31.837-31.837
		s31.837,14.282,31.837,31.837C143.703,405.602,129.421,419.884,111.865,419.884z M111.865,371.867
		c-8.92,0-16.179,7.258-16.179,16.179s7.258,16.179,16.179,16.179s16.179-7.258,16.179-16.179S120.785,371.867,111.865,371.867z"/>
	<path style="fill:#1D1D1B;" d="M399.963,419.884c-17.556,0-31.837-14.282-31.837-31.837c0-17.556,14.282-31.837,31.837-31.837
		c17.556,0,31.837,14.282,31.837,31.837C431.8,405.602,417.518,419.884,399.963,419.884z M399.963,371.867
		c-8.92,0-16.179,7.258-16.179,16.179s7.258,16.179,16.179,16.179s16.179-7.258,16.179-16.179S408.883,371.867,399.963,371.867z"/>
	<rect x="343.94" y="284.187" style="fill:#1D1D1B;" width="32.011" height="15.659"/>
</g>
<g>
	
		<rect x="376.127" y="192.665" transform="matrix(-0.7071 -0.7071 0.7071 -0.7071 511.2165 619.7186)" style="fill:#FFFFFF;" width="15.659" height="22.635"/>
	
		<rect x="406.128" y="190.865" transform="matrix(-0.7071 -0.7071 0.7071 -0.7071 549.6993 671.6719)" style="fill:#FFFFFF;" width="15.659" height="62.248"/>
	
		<rect x="440.147" y="224.668" transform="matrix(-0.7071 -0.7071 0.7071 -0.7071 597.8765 719.6193)" style="fill:#FFFFFF;" width="15.659" height="22.635"/>
	<polygon style="fill:#FFFFFF;" points="151.879,212.16 127.697,212.16 127.697,187.979 112.038,187.979 112.038,212.16 
		87.857,212.16 87.857,227.819 112.038,227.819 112.038,252 127.697,252 127.697,227.819 151.879,227.819 	"/>
</g>
<g>
	<path style="fill:#1D1D1B;" d="M119.868,275.835c-30.793,0-55.845-25.053-55.845-55.846s25.052-55.845,55.845-55.845
		s55.845,25.052,55.845,55.845S150.661,275.835,119.868,275.835z M119.868,179.803c-22.159,0-40.187,18.027-40.187,40.187
		s18.027,40.188,40.187,40.188s40.187-18.028,40.187-40.188S142.027,179.803,119.868,179.803z"/>
	<path style="fill:#1D1D1B;" d="M351.947,116.127h-8.176V68.111h-55.672v48.016h-8.177v15.659h72.025V116.127z M303.757,83.77
		h24.355v32.357h-24.355V83.77z"/>
	<path style="fill:#1D1D1B;" d="M512,340.101h-0.173v-74.052l-67.153-125.913H0v255.74h56.579
		c3.82,27.098,27.15,48.016,55.286,48.016s51.465-20.918,55.286-48.016h177.527c3.82,27.098,27.15,48.016,55.286,48.016
		c28.136,0,51.465-20.918,55.286-48.016h56.579v-40.117h0.173v-15.658H512z M490.948,260.176H359.776v-80.374h88.307
		L490.948,260.176z M435.278,155.795l4.453,8.349h-95.615v111.692h152.051v8.349H383.957v15.659h112.211v8.349H15.659v-8.349
		h320.282v-15.659H15.659v-128.39H435.278z M111.865,428.233c-22.159,0-40.187-18.027-40.187-40.187s18.027-40.187,40.187-40.187
		s40.187,18.027,40.187,40.187S134.024,428.233,111.865,428.233z M399.963,428.233c-22.159,0-40.187-18.027-40.187-40.187
		s18.027-40.187,40.187-40.187s40.187,18.027,40.187,40.187S422.122,428.233,399.963,428.233z M496.168,380.216h-40.921
		c-3.82-27.098-27.15-48.016-55.286-48.016c-28.136,0-51.465,20.918-55.286,48.016H167.15C163.33,353.118,140,332.2,111.864,332.2
		s-51.465,20.918-55.286,48.016H15.659v-56.365h480.509V340.1h-16.179v15.659h16.179V380.216z"/>
	<rect x="311.933" y="164.147" style="fill:#1D1D1B;" width="16.005" height="15.659"/>
	<rect x="279.916" y="164.147" style="fill:#1D1D1B;" width="16.006" height="15.659"/>
	<rect x="247.91" y="164.147" style="fill:#1D1D1B;" width="16.005" height="15.659"/>
</g>
<g>
</g>
<g>
</g>
<g>
</g>
<g>
</g>
<g>
</g>
<g>
</g>
<g>
</g>
<g>
</g>
<g>
</g>
<g>
</g>
<g>
</g>
<g>
</g>
<g>
</g>
<g>
</g>
<g>
</g>
</svg>
