<?xml version="1.0" encoding="iso-8859-1"?>
<!-- Generator: Adobe Illustrator 19.0.0, SVG Export Plug-In . SVG Version: 6.00 Build 0)  -->
<svg version="1.1" id="Layer_1" xmlns="http://www.w3.org/2000/svg" xmlns:xlink="http://www.w3.org/1999/xlink" x="0px" y="0px"
	 viewBox="0 0 503.315 503.315" style="enable-background:new 0 0 503.315 503.315;" xml:space="preserve">
<g>
	<g>
		<path style="fill:#797979;" d="M156.199,429.556c0-23.96-19.43-43.39-43.39-43.39s-43.39,19.43-43.39,43.39
			s19.43,43.39,43.39,43.39S156.199,453.516,156.199,429.556"/>
		<path style="fill:#797979;" d="M494.64,429.556c0-23.96-19.43-43.39-43.39-43.39c-23.96,0-43.39,19.43-43.39,43.39
			s19.43,43.39,43.39,43.39C475.21,472.946,494.64,453.516,494.64,429.556"/>
	</g>
	<g>
		<path style="fill:#C0C0C0;" d="M112.809,446.912c-9.58,0-17.356-7.775-17.356-17.356s7.775-17.356,17.356-17.356
			s17.356,7.775,17.356,17.356S122.39,446.912,112.809,446.912"/>
		<path style="fill:#C0C0C0;" d="M451.25,446.912c-9.58,0-17.356-7.775-17.356-17.356s7.775-17.356,17.356-17.356
			s17.356,7.775,17.356,17.356S460.83,446.912,451.25,446.912"/>
	</g>
	<polygon style="fill:#C69666;" points="0,308.064 121.492,308.064 121.492,186.573 0,186.573 	"/>
	<path style="fill:#337FAA;" d="M234.301,73.759c0-23.96-19.43-43.39-43.39-43.39s-43.39,19.43-43.39,43.39s19.43,43.39,43.39,43.39
		S234.301,97.719,234.301,73.759"/>
	<polygon style="fill:#F89954;" points="416.538,212.607 399.182,212.607 381.826,203.929 381.826,169.217 399.182,160.539 
		416.538,160.539 	"/>
	<path style="fill:#48A0DC;" d="M282.811,272.379c-3.046-9.745-12.071-16.384-22.285-16.384h-0.191h-43.39l-0.009-43.39h77.182
		c8.643,0,16.662-5.91,18.05-14.44c1.762-10.873-6.578-20.272-17.122-20.272h-60.746V147.52c0-16.775-13.598-30.373-30.373-30.373
		h-17.356c-16.775,0-30.373,13.598-30.373,30.373V277.69c0,16.775,13.598,30.373,30.373,30.373h65.085l26.034,86.78h43.39
		L282.811,272.379z"/>
	<path style="fill:#FFD479;" d="M490.611,345.722c-11.923-13.564-29.844-20.298-47.902-20.298h-8.817
		c-5.406-27.075-24.125-49.577-49.759-59.826l-2.308-0.92v-95.458h-86.78v8.678c9.589,0,17.356,7.767,17.356,17.356
		c0,9.58-7.767,17.356-17.356,17.356v8.678h52.068v104.136v69.424H208.264l11.871-26.928c3.627-10.9,5.484-22.302,5.484-33.783
		c0.009-14.379-11.655-26.069-26.034-26.069H34.705c-14.379,0-26.034,11.654-26.034,26.034v10.769c0,4.426,2.517,8.261,6.205,10.717
		c11.134,7.411,14.536,22.233,7.749,33.757l-11.064,18.805c-5.233,6.552-3.107,16.263,4.4,20.011
		c1.831,0.92,3.844,1.397,5.892,1.397h21.53c0-38.287,31.145-69.424,69.424-69.424s69.424,31.137,69.424,69.424h199.593
		c0-38.279,31.154-69.424,69.424-69.424c30.92,0,40.812,6.101,52.068,17.356C503.315,365.508,498.464,354.661,490.611,345.722"/>
	<polygon style="fill:#E8D5B2;" points="43.39,221.285 78.102,221.285 78.102,186.573 43.39,186.573 	"/>
	<path style="fill:#337FAA;" d="M216.945,221.285c-14.345,0-26.025-11.672-26.025-26.025v-26.043c0-4.79,3.879-8.678,8.678-8.678
		c4.799,0,8.678,3.888,8.678,8.678v26.043c0,4.782,3.888,8.669,8.669,8.669c4.799,0,8.678,3.888,8.678,8.678
		S221.744,221.285,216.945,221.285"/>
</g>
<g>
</g>
<g>
</g>
<g>
</g>
<g>
</g>
<g>
</g>
<g>
</g>
<g>
</g>
<g>
</g>
<g>
</g>
<g>
</g>
<g>
</g>
<g>
</g>
<g>
</g>
<g>
</g>
<g>
</g>
</svg>
