<?xml version="1.0" encoding="iso-8859-1"?>
<!-- Generator: Adobe Illustrator 19.0.0, SVG Export Plug-In . SVG Version: 6.00 Build 0)  -->
<svg version="1.1" id="Layer_1" xmlns="http://www.w3.org/2000/svg" xmlns:xlink="http://www.w3.org/1999/xlink" x="0px" y="0px"
	 viewBox="0 0 512 512" style="enable-background:new 0 0 512 512;" xml:space="preserve">
<path style="fill:#FF8189;" d="M441.423,142.23c-0.808-2.923-3.951-5.314-6.983-5.314h-32.527c-3.032,0-6.175,2.39-6.982,5.314
	l-7.286,26.35c-0.807,2.923,1.012,5.314,4.044,5.314h52.977c3.032,0,4.852-2.392,4.043-5.314L441.423,142.23z"/>
<rect x="73.236" y="130.889" style="fill:#A4A9AD;" width="27.841" height="27.797"/>
<rect x="73.236" y="130.889" style="opacity:0.1;enable-background:new    ;" width="27.841" height="12.129"/>
<rect x="140.496" y="130.889" style="fill:#A4A9AD;" width="27.841" height="27.797"/>
<rect x="140.496" y="130.889" style="opacity:0.1;enable-background:new    ;" width="27.841" height="12.129"/>
<rect x="207.756" y="130.889" style="fill:#A4A9AD;" width="27.841" height="27.797"/>
<rect x="207.756" y="130.889" style="opacity:0.1;enable-background:new    ;" width="27.841" height="12.129"/>
<path style="fill:#FF5959;" d="M17.386,360.827V186.259c0-15.161,12.404-27.566,27.566-27.566h422.097
	c15.161,0,27.566,12.404,27.566,27.566v174.568H17.386z"/>
<rect x="17.386" y="266.512" style="fill:#D1D3D3;" width="477.226" height="21.662"/>
<g>
	<path style="fill:#A4A9AD;" d="M512,369.16c0,5.641-4.616,10.258-10.257,10.258h-23.079c-5.641,0-10.258-4.617-10.258-10.258
		v-16.667c0-5.641,4.616-10.258,10.258-10.258h23.079c5.641,0,10.257,4.616,10.257,10.258V369.16z"/>
	<path style="fill:#A4A9AD;" d="M39.182,369.16c0,5.641-4.617,10.258-10.258,10.258H10.257C4.616,379.418,0,374.801,0,369.16
		v-16.667c0-5.641,4.614-10.258,10.257-10.258h18.668c5.641,0,10.258,4.616,10.258,10.258v16.667H39.182z"/>
</g>
<path style="opacity:0.2;enable-background:new    ;" d="M198.051,360.827c0-37.078-30.059-67.136-67.136-67.136
	s-67.136,30.059-67.136,67.136H198.051z"/>
<circle style="fill:#333E48;" cx="130.914" cy="360.83" r="55.561"/>
<circle style="fill:#A4A9AD;" cx="130.914" cy="360.83" r="28.161"/>
<path style="opacity:0.2;enable-background:new    ;" d="M448.221,360.827c0-37.078-30.059-67.136-67.136-67.136
	s-67.136,30.059-67.136,67.136H448.221z"/>
<circle style="fill:#333E48;" cx="381.088" cy="360.83" r="55.561"/>
<circle style="fill:#A4A9AD;" cx="381.088" cy="360.83" r="28.161"/>
<path style="fill:#D1D3D3;" d="M381.085,106.635c0-6.064-4.962-11.026-11.026-11.026H54.196c-6.064,0-11.026,4.962-11.026,11.026
	v13.231c0,6.064,4.962,11.026,11.026,11.026h315.862c6.064,0,11.026-4.962,11.026-11.026V106.635z"/>
<path style="fill:#333E48;" d="M386.598,228.484c0,4.852,3.969,8.821,8.821,8.821h64.198c4.852,0,8.821-3.969,8.821-8.821v-38.225
	c0-4.852-3.969-8.821-8.821-8.821h-64.198c-4.852,0-8.821,3.969-8.821,8.821V228.484z"/>
<path style="opacity:0.1;enable-background:new    ;" d="M459.617,181.438h-64.198c-4.852,0-8.821,3.969-8.821,8.821v11.391
	c0-4.852,3.969-8.821,8.821-8.821h64.198c4.852,0,8.821,3.969,8.821,8.821v-11.391C468.438,185.407,464.468,181.438,459.617,181.438
	z"/>
<path style="fill:#333E48;" d="M306.218,228.484c0,4.852,3.969,8.821,8.821,8.821h37.747c4.852,0,8.821-3.969,8.821-8.821v-38.225
	c0-4.852-3.969-8.821-8.821-8.821h-37.747c-4.852,0-8.821,3.969-8.821,8.821V228.484z"/>
<path style="opacity:0.1;enable-background:new    ;" d="M352.786,181.438h-37.747c-4.852,0-8.821,3.969-8.821,8.821v11.391
	c0-4.852,3.969-8.821,8.821-8.821h37.747c4.852,0,8.821,3.969,8.821,8.821v-11.391C361.607,185.407,357.639,181.438,352.786,181.438
	z"/>
<rect x="214.592" y="253.28" style="fill:#A4A9AD;" width="82.807" height="107.55"/>
<g>
	<circle style="fill:#D1D3D3;" cx="239.589" cy="281.585" r="7.714"/>
	<circle style="fill:#D1D3D3;" cx="272.414" cy="281.585" r="7.714"/>
	<path style="fill:#D1D3D3;" d="M272.413,316.977H239.58c-4.567,0-8.27-3.703-8.27-8.27s3.703-8.27,8.27-8.27h32.833
		c4.568,0,8.27,3.703,8.27,8.27S276.98,316.977,272.413,316.977z"/>
	<path style="fill:#D1D3D3;" d="M272.413,342.228H239.58c-4.567,0-8.27-3.703-8.27-8.27s3.703-8.27,8.27-8.27h32.833
		c4.568,0,8.27,3.703,8.27,8.27S276.98,342.228,272.413,342.228z"/>
</g>
<g>
	<path style="fill:#FFB819;" d="M494.614,342.235h-23.603c-3.032,0-5.513-2.481-5.513-5.513v-13.974
		c0-3.032,2.481-5.513,5.513-5.513h23.603V342.235z"/>
	<path style="fill:#FFB819;" d="M17.386,342.235h23.603c3.032,0,5.513-2.481,5.513-5.513v-13.974c0-3.032-2.481-5.513-5.513-5.513
		H17.386V342.235z"/>
	<rect x="69.046" y="201.104" style="fill:#FFB819;" width="181.558" height="16.539"/>
</g>
<g>
	<path style="fill:#D1D3D3;" d="M265.503,195.034c0-3.032-2.481-5.513-5.513-5.513h-18.763c-3.032,0-5.513,2.481-5.513,5.513v28.676
		c0,3.032,2.481,5.513,5.513,5.513h18.763c3.032,0,5.513-2.481,5.513-5.513V195.034z"/>
	<path style="fill:#D1D3D3;" d="M83.943,195.034c0-3.032-2.481-5.513-5.513-5.513H59.667c-3.032,0-5.513,2.481-5.513,5.513v28.676
		c0,3.032,2.481,5.513,5.513,5.513h18.762c3.032,0,5.513-2.481,5.513-5.513V195.034z"/>
</g>
<g>
</g>
<g>
</g>
<g>
</g>
<g>
</g>
<g>
</g>
<g>
</g>
<g>
</g>
<g>
</g>
<g>
</g>
<g>
</g>
<g>
</g>
<g>
</g>
<g>
</g>
<g>
</g>
<g>
</g>
</svg>
