<svg id="Layer_1" enable-background="new 0 0 512 512" viewBox="0 0 512 512" xmlns="http://www.w3.org/2000/svg"><g id="Filled_outline"><path d="m174.4 270.8c-8.5 3.3-18.1-.3-22.3-8.4l-78-150.2c-9.1-17.8-2.2-39.5 15.6-48.6 1.1-.5 2.1-1 3.2-1.5 20.1-8.1 42.2 3.7 47.8 24.1l.1.3 44.3 163.1c2.3 8.7-2.3 17.9-10.7 21.2z" fill="#f98500"/><path d="m170.2 195.1-22.1 8.7c-4.1 1.5-8.7-.5-10.4-4.6-1.6-4.1.4-8.8 4.5-10.4l23.7-9.3z" fill="#fa6d00"/><path d="m178.8 226.4-19 7.1c-4.1 1.4-8.6-.5-10.4-4.6-1.6-4.1.4-8.8 4.6-10.4l20.6-7.7z" fill="#fa6d00"/><path d="m268.5 123.9c-6.7-4.6-10.1-12.7-8.6-20.8 3.7-18.6-8.3-36.7-27-40.5-.2 0-.5-.1-.7-.1-7.7-1.3-14.1-6.8-16.5-14.3-.6-1.8-1.3-3.6-2.1-5.3-8.5-17-29.1-23.9-46.1-15.4-16.1 8-23.3 27.1-16.5 43.7 3.5 8.6 5.2 16.4-.7 24.7-11 15.5-7.3 37 8.2 47.9.1.1.3.2.4.3 6.7 4.7 9.9 12.9 8.3 20.9-3.6 18.6 8.6 36.7 27.3 40.3 16.8 3.2 33.3-6.3 39-22.4 17 8.5 37.6 1.5 46.1-15.4 7.6-15.3 2.9-33.8-11.1-43.6z" fill="#598c44"/><path d="m346.5 151.4c-4.5-6.8-4.6-15.6-.2-22.5 10.5-15.8 6.1-37.2-9.7-47.7-.2-.1-.4-.3-.6-.4-9.8-6.2-9.1-15-9.9-25.1-1.4-18.9-18-33.1-36.9-31.7-17.9 1.4-31.8 16.3-31.8 34.3 0 9.3-1.4 17.1-9.9 22.6-16 10.2-20.7 31.5-10.4 47.5.1.1.2.3.3.4 4.4 6.9 4.4 15.7-.2 22.5-10.3 15.9-5.8 37.2 10.1 47.6 14.3 9.3 33.3 6.7 44.5-6.1 12.6 14.2 34.3 15.6 48.5 3.1 12.8-11.2 15.4-30.2 6.2-44.5z" fill="#5f9548"/><path d="m400 248-96-32 52.9-158.6c6.4-19.1 25.9-33.9 46.2-33.4 12.6.3 24.4 2.7 34.3 10.7 16 12.8 22.3 34.2 15.8 53.6z" fill="#ffb531"/><path d="m336 168v288h-240v-288l24 16 24-16 24 16 24-16 24 16 24-16 24 16 24-16 24 16z" fill="#ffb531"/><path d="m336 234.3v221.7h-240v-48.5c88.1-29.6 175.4-83.5 240-173.2z" fill="#fcac1f"/><path d="m432 168v288h-96v-288l24 16 24-16 24 16z" fill="#f98500"/><circle cx="97.5" cy="424" fill="#f35244" r="64"/><path d="m232 320 8 16c-9.9 9.9-13.9 24.3-10.5 38l2.5 10h-32v-12.2c0-21.9 12.4-42 32-51.8z" fill="#5f9548"/><path d="m185.1 488c-10.1 0-19.1-6.6-22-16.3l-18-60.1c-5-16.7 6-35.6 24.5-35.6 9 0 17.3 4.7 21.9 12.4l16.5 27.6v49.1c0 12.6-10.3 22.9-22.9 22.9z" fill="#fa9f0c"/><path d="m246.9 488c10.1 0 19.1-6.6 22-16.3l18-60.1c5.1-16.9-6.1-35.6-24.5-35.6-9 0-17.3 4.7-21.9 12.4l-16.5 27.6v49.1c0 12.6 10.3 22.9 22.9 22.9z" fill="#fa9f0c"/><path d="m216 376c13.3 0 24 10.7 24 24v64c0 13.3-10.7 24-24 24-13.3 0-24-10.7-24-24v-64c0-13.3 10.7-24 24-24z" fill="#ffb531"/><g id="Outline"><path d="m442.4 28.5c-14.8-11.9-35.1-15.5-54.4-9.9-18.8 5.5-32.9 18.8-38.7 36.3l-32.3 97-3.8-5.6-13.4 8.9v-32.3l22.2-14.8-8.9-13.3-13.4 8.9v-36.7h-16v36.6l-13.3-8.9-8.9 13.3 22.2 14.8v32.3l-13.3-8.9-8.9 13.3 12.3 8.2-9.9 6.6-19.6-13c-.9-.6-1.8-1-2.8-1.2.6-1.5 1.4-3 2.3-4.4 6.2-9.5 6.2-21.7.1-31.3-5.6-8.5-5.4-21.2.4-29.7 2.5-3.6 12.7-10.9 15.4-14.5 5.3-7 5.9-15 6.5-22 .4-5.5.8-10.3 3.2-14 7.7-12.3 24-16 36.3-8.3 2.6 1.6 4.8 3.7 6.7 6 4.3 5.4 4.7 10.8 5.2 18.1.2 2.5.4 5.2.7 8l15.9-2c-.3-2.4-.5-4.8-.6-7.1-.6-8.7-1.3-17.6-8.6-26.9-14.5-18.4-41.1-21.5-59.5-7.1-3.8 3-7.1 6.6-9.7 10.7-4.4 7-5 14.6-5.6 21.2-.1 1.5-.2 2.9-.4 4.3-4.9-3.3-10.5-5.6-16.4-6.7-4.8-.8-8.8-4.2-10.3-8.8-3.5-10.9-11.1-19.9-21.3-25.1-10-5.3-21.7-6.3-32.5-2.8-15.9 5.3-27.5 20.2-28.9 37.3-.5 6.5 1.1 12.2 2.7 17.3-7.5-12.3-20.6-20.1-35-21l.3-35.5-16-.1-.2 23.1-9.6-24.6-14.6 6.1 9.6 24.6-15.8-16.8-11.6 10.9 24.3 26c-13.2 13.6-16.3 34-7.5 50.8l16.6 32 14.2-7.4-16.6-32c-7.1-13.7-1.8-30.6 11.9-37.7s30.6-1.8 37.7 11.9c.9 1.8 1.6 3.6 2.2 5.6l.3 1-25.8 10.1 5.8 14.9 24.2-9.4v.1c-1.5 5.7-1.9 11.6-.9 17.5l-17.4 6.8 5.8 14.9 17.2-6.7c4 6.7 10.9 12.9 10.9 12.9l-22.3 8.7 2.6 6.5-13.3 8.9-19.6-13c-3.7-2.5-8.6-1.5-11.1 2.2-.9 1.3-1.3 2.9-1.3 4.4v168h16v-153.1l11.6 7.7c2.7 1.8 6.2 1.8 8.9 0l19.6-13 19.6 13c2.7 1.8 6.2 1.8 8.9 0l19.6-13 19.6 13c2.7 1.8 6.2 1.8 8.9 0l19.6-13 19.6 13c2.7 1.8 6.2 1.8 8.9 0l19.6-13 19.6 13c2.7 1.8 6.2 1.8 8.9 0l11.6-7.7v265.1h-32v16h136c4.4 0 8-3.6 8-8v-288c0-2.4-1.1-4.6-2.9-6.1l23.7-71c6.9-22.6-.5-47.5-19-62.4zm-211.7 104.9c.7 1.1 1.2 2.3 1.5 3.6l-5.5 8.1-12.2-30 10.7-15.8c-2.8 11.5-1 24.3 5.5 34.1zm-55.8 36.5c2.1-8.5.4-17.4-4.5-24.6-4.7-6.8-12.2-11.5-16-18.9-2-3.9-2.8-8.4-2.3-12.8 1.2-9.8 8.6-18 9.7-27.8.8-7.2-2.1-14.2-3.6-21.3-3.5-15.7 6.4-31.6 23.3-32.4 8.2-.3 16 3.2 21.2 9.5 4.6 5.7 6.7 13.2 11.3 19 3.4 4.3 8 7.4 13.2 8.9 5.1 1.5 11.1 1.7 14.5 5.8-5.9 4.2-10.7 9.7-14 16.2l-11.4-7.6-9 13-13.8-33.7-14.7 6 13.7 33.8-15.6-3-3.2 15.6 25.7 5.8 12.5 29.4-15.6-3-1.9 9.4c-.1.1-15.4 9.7-19.5 12.7zm27.8-4.4 16.5 3.4 1.1 2.7-4.3 2.8zm103.2 4.8 6.2-4.2-2.3 6.8zm38.1 12.6 11.6 7.7c2.7 1.8 6.2 1.8 8.9 0l11.6-7.7v221.7l-32 32v-253.7zm80 0v253.7l-32-32v-221.7l11.6 7.7c2.7 1.8 6.2 1.8 8.9 0zm-40 236.4 28.7 28.7h-57.4zm61.6-333.5-27.2 81.6-10.4 6.9-19.6-13c-2.7-1.8-6.2-1.8-8.9 0l-19.6 13s-20-13.3-20.2-13.4c-2.6-1.4-5.8-1.2-8.2.4l-1.2.8 34.1-102.2c4.2-12.5 14.4-21.9 28.1-26 14.2-4.2 29.1-1.6 39.9 7 13.3 10.8 18.6 28.7 13.2 44.9z"/><path d="m375.7 76h48.7v16h-48.7z" transform="matrix(.986 -.164 .164 .986 -8.368 66.914)"/><path d="m359.7 124h48.7v16h-48.7z" transform="matrix(.986 -.164 .164 .986 -16.478 64.937)"/><path d="m262.5 368c-8.8-.1-17.3 3.4-23.5 9.7-.1-.1-.2-.2-.3-.4l-1.3-5.3c0-.1 0-.1-.1-.2-3.1-10.9 3.1-24.7 8.5-30.1 2.4-2.4 3-6.2 1.5-9.2l-8-16c-2-4-6.8-5.6-10.7-3.6-22.4 11.1-36.5 34-36.4 58.9v4.3c-1.9-1.4-4-2.7-6.1-3.9-15.5-8.3-35.6-3.1-44.8 11.5-5.3 8.5-6.7 20-3.7 30.1l10.4 34.7c-13.8 27.7-47.4 39-75.1 25.3-27.4-13.6-38.8-46.7-25.6-74.3.2-.4.4-.8.6-1.2l.3 27.2 16-.2-.5-33.3 31.9 1.5.8-16-27.8-1.3c8.3-5.1 17.9-7.9 27.6-8.2 11.6-.3 23 3 32.6 9.5l8.9-13.3c-18-12.1-40.5-15.4-61.2-9.1l3.4-8-14.7-6.3-11 25.6c-.8.6-1.7 1.3-2.5 2l-24.4-24.4-11.3 11.3 24.6 24.6c-.5.7-1 1.4-1.5 2.1l-26.2 11.2 6.3 14.7 9.2-4c-11.1 38.2 10.9 78.1 49.1 89.2 25.2 7.3 52.4.3 71-18.3 1.9-1.9 3.7-4 5.4-6.1l1.6 5.2c4.9 16.4 22.1 25.6 38.5 20.7 2.3-.7 4.4-1.6 6.5-2.8 9.7 5.4 21.5 5.4 31.2 0 14.8 8.5 33.7 3.3 42.2-11.5 1.2-2 2.1-4.2 2.8-6.5l18-60.1c1.1-4 1.6-8.2 1.4-12.4-.1-18.3-15.1-33.3-33.6-33.3zm-33.8-36.7 1.8 3.6c-6.3 8.7-10.8 21.4-10 33.4-2.3-.4-8.6-.7-12.4.7.8-15.1 8.4-28.9 20.6-37.7zm-57.9 138.1-18-60.1c-1.7-5.7-.9-12.5 1.9-17 4.6-7.4 15.7-10.2 23.7-5.9 3.8 2 5.3 3.4 6.8 5.3-.7 2.7-1.1 5.5-1.1 8.3v64c0 5.5 1.4 10.9 4.1 15.7-7.7 1.6-15.2-2.9-17.4-10.3zm29.2-5.4v-64c0-8.8 7.2-16 16-16s16 7.2 16 16v64c0 8.8-7.2 16-16 16s-16-7.2-16-16zm79.3-54.7-18 60.1c-2.2 7.4-9.8 11.9-17.4 10.3 2.7-4.8 4.1-10.2 4.1-15.7v-64c0-2.5-.3-4.9-.9-7.3 2.1-3.2 6.9-8.7 15.3-8.7 9.7 0 17.5 7.9 17.5 17.5.2 2.6 0 5.3-.6 7.8z"/></g></g></svg>