<?xml version="1.0" encoding="iso-8859-1"?>
<!-- Generator: Adobe Illustrator 19.0.0, SVG Export Plug-In . SVG Version: 6.00 Build 0)  -->
<svg version="1.1" id="Layer_1" xmlns="http://www.w3.org/2000/svg" xmlns:xlink="http://www.w3.org/1999/xlink" x="0px" y="0px"
	 viewBox="0 0 512 512" style="enable-background:new 0 0 512 512;" xml:space="preserve">
<path style="fill:#CFF09E;" d="M443.252,14.465H68.747c-16.299,0-29.511,13.212-29.511,29.511v71.797
	c0,16.299,13.212,29.511,29.511,29.511h121.636L256,210.902l65.617-65.617h121.636c16.299,0,29.511-13.212,29.511-29.511V43.976
	C472.763,27.677,459.551,14.465,443.252,14.465z"/>
<g>
	<path style="fill:#507C5C;" d="M255.999,225.368c-3.836,0-7.515-1.525-10.228-4.237l-61.382-61.382H68.745
		c-24.249,0-43.976-19.729-43.976-43.976V43.976C24.769,19.729,44.498,0,68.745,0h374.506c24.249,0,43.976,19.729,43.976,43.976
		v71.797c0,24.249-19.729,43.976-43.976,43.976H327.609l-61.382,61.382C263.515,223.844,259.836,225.368,255.999,225.368z
		 M68.745,28.93c-8.297,0-15.046,6.749-15.046,15.046v71.797c0,8.297,6.749,15.046,15.046,15.046h121.636
		c3.836,0,7.515,1.525,10.228,4.237l55.389,55.389l55.389-55.389c2.714-2.712,6.392-4.237,10.228-4.237h121.636
		c8.297,0,15.046-6.749,15.046-15.046V43.976c0-8.297-6.749-15.046-15.046-15.046H68.745z"/>
	<path style="fill:#507C5C;" d="M120.076,44.532c13.393,0,23.874,6.211,23.874,22.904v25.136c0,16.693-10.481,22.904-23.874,22.904
		h-17.177c-3.979,0-6.6-2.135-6.6-4.561V49.093c0-2.427,2.621-4.561,6.6-4.561H120.076z M111.439,57.731v44.545h8.637
		c5.436,0,8.735-3.104,8.735-9.705V67.436c0-6.6-3.299-9.705-8.735-9.705H111.439z"/>
	<path style="fill:#507C5C;" d="M152.784,93.153V67.436c0-16.693,10.386-22.904,23.777-22.904s23.874,6.211,23.874,22.904v25.717
		c0,16.693-10.481,22.904-23.874,22.904C163.168,116.057,152.784,109.845,152.784,93.153z M185.297,67.436
		c0-6.697-3.299-9.705-8.734-9.705c-5.436,0-8.638,3.007-8.638,9.705v25.717c0,6.697,3.203,9.706,8.638,9.706
		c5.434,0,8.734-3.009,8.734-9.706V67.436z"/>
	<path style="fill:#507C5C;" d="M243.721,111.399L225.282,77.82v32.996c0,3.106-3.785,4.659-7.57,4.659
		c-3.785,0-7.57-1.552-7.57-4.659V49.191c0-3.203,3.784-4.659,7.57-4.659c5.434,0,7.473,0.486,11.161,7.57l15.722,29.987V49.093
		c0-3.203,3.784-4.561,7.568-4.561c3.785,0,7.57,1.358,7.57,4.561v61.723c0,3.106-3.784,4.659-7.57,4.659
		C248.671,115.475,245.566,114.795,243.721,111.399z"/>
	<path style="fill:#507C5C;" d="M265.366,109.264c0-0.291,0.097-0.68,0.194-1.068l18.051-59.201c1.068-3.396,5.434-5.045,9.9-5.045
		c4.464,0,8.831,1.65,9.898,5.045l18.149,59.201c0.097,0.389,0.194,0.777,0.194,1.068c0,3.59-5.531,6.211-9.705,6.211
		c-2.427,0-4.368-0.777-4.95-2.813l-3.299-12.132h-20.477l-3.299,12.132c-0.581,2.037-2.523,2.813-4.95,2.813
		C270.897,115.475,265.366,112.856,265.366,109.264z M300.595,88.883l-7.083-26.008l-7.085,26.008H300.595z"/>
	<path style="fill:#507C5C;" d="M363.289,44.532c3.204,0,4.561,3.493,4.561,6.697c0,3.687-1.649,6.89-4.561,6.89h-13.393v52.697
		c0,3.106-3.784,4.659-7.568,4.659c-3.785,0-7.57-1.552-7.57-4.659V58.119h-13.393c-2.912,0-4.561-3.203-4.561-6.89
		c0-3.204,1.357-6.697,4.561-6.697H363.289z"/>
	<path style="fill:#507C5C;" d="M389.011,74.131h14.556c2.912,0,4.561,2.815,4.561,5.921c0,2.621-1.358,5.727-4.561,5.727h-14.556
		v16.497h26.008c2.912,0,4.561,3.106,4.561,6.697c0,3.104-1.358,6.502-4.561,6.502h-34.55c-3.299,0-6.6-1.552-6.6-4.659V49.191
		c0-3.106,3.299-4.659,6.6-4.659h34.55c3.203,0,4.561,3.398,4.561,6.502c0,3.59-1.65,6.697-4.561,6.697h-26.008V74.131z"/>
	<path style="fill:#507C5C;" d="M420.903,512H91.095c-20.017,0-36.301-16.285-36.301-36.301V282.759
		c0-7.988,6.477-14.465,14.465-14.465s14.465,6.477,14.465,14.465V475.7c0,4.065,3.307,7.371,7.371,7.371h329.81
		c4.065,0,7.371-3.307,7.371-7.371V360.112c0-7.988,6.477-14.465,14.465-14.465s14.465,6.477,14.465,14.465V475.7
		C457.205,495.715,440.92,512,420.903,512z"/>
	<path style="fill:#507C5C;" d="M435.739,297.224H76.26c-28.937,0-52.479-23.542-52.479-52.479s23.542-52.479,52.479-52.479h82.8
		c7.988,0,14.465,6.477,14.465,14.465c0,7.988-6.477,14.465-14.465,14.465h-82.8c-12.985,0-23.549,10.565-23.549,23.549
		s10.565,23.549,23.549,23.549h359.48c12.985,0,23.549-10.565,23.549-23.549s-10.565-23.549-23.549-23.549h-82.8
		c-7.988,0-14.465-6.477-14.465-14.465c0-7.988,6.477-14.465,14.465-14.465h82.8c28.937,0,52.479,23.542,52.479,52.479
		S464.676,297.224,435.739,297.224z"/>
</g>
<g>
</g>
<g>
</g>
<g>
</g>
<g>
</g>
<g>
</g>
<g>
</g>
<g>
</g>
<g>
</g>
<g>
</g>
<g>
</g>
<g>
</g>
<g>
</g>
<g>
</g>
<g>
</g>
<g>
</g>
</svg>
