<?xml version="1.0" encoding="iso-8859-1"?>
<!-- Generator: Adobe Illustrator 19.0.0, SVG Export Plug-In . SVG Version: 6.00 Build 0)  -->
<svg version="1.1" id="Layer_1" xmlns="http://www.w3.org/2000/svg" xmlns:xlink="http://www.w3.org/1999/xlink" x="0px" y="0px"
	 viewBox="0 0 512 512" style="enable-background:new 0 0 512 512;" xml:space="preserve">
<path style="fill:#6DDAE1;" d="M415.588,184.058L261.665,30.135c-3.132-3.131-8.207-3.13-11.338,0L96.405,184.058
	c-1.504,1.503-2.348,3.542-2.348,5.668v265.089c0,4.427,3.589,8.017,8.017,8.017h307.845c4.428,0,8.017-3.589,8.017-8.017V189.726
	C417.935,187.6,417.091,185.561,415.588,184.058z"/>
<g>
	<path style="fill:#4FC4D4;" d="M344.589,365.09l-182.657,46.969l-67.876-33.938v76.694c0,4.427,3.589,8.017,8.017,8.017h307.845
		c4.428,0,8.017-3.589,8.017-8.017v-56.683L344.589,365.09z"/>
	<path style="fill:#4FC4D4;" d="M94.057,189.726c0-2.126,0.844-4.166,2.347-5.668L250.326,30.135c3.132-3.131,8.207-3.13,11.338,0
		l34.205,34.205L94.057,266.153V189.726z"/>
</g>
<path style="fill:#BDBCBC;" d="M482.012,220.249L276.787,15.024c-0.007-0.006-0.014-0.013-0.02-0.019
	c-0.002-0.001-0.003-0.003-0.004-0.004c-5.368-5.358-12.501-8.397-20.088-8.568c-0.447-0.028-0.881-0.03-1.358,0
	c-7.605,0.174-14.741,3.22-20.108,8.587c-0.017,0.017-0.034,0.034-0.051,0.051L29.981,220.249
	c-11.461,11.461-11.461,30.109,0,41.571c5.552,5.552,12.934,8.61,20.785,8.61s15.233-3.057,20.785-8.61L255.996,77.375
	L440.441,261.82c5.553,5.551,12.935,8.609,20.785,8.609c7.85,0,15.232-3.057,20.786-8.61
	C493.473,250.359,493.473,231.71,482.012,220.249z"/>
<path style="fill:#FF8C78;" d="M314.945,187.361c-16.864-9.026-38.592-7.196-58.948,4.743
	c-20.359-11.939-42.086-13.766-58.949-4.743c-14.538,7.781-22.876,22.306-22.876,39.851c0,53.917,75.511,86.195,78.725,87.541
	c1.968,0.825,4.231,0.826,6.199,0c3.215-1.348,78.725-33.625,78.725-87.541C337.821,209.667,329.482,195.141,314.945,187.361z"/>
<path style="fill:#DF7A6E;" d="M278.88,294.969c-1.968,0.826-4.231,0.825-6.199,0c-3.214-1.348-78.725-33.625-78.725-87.541
	c0-7.602,1.571-14.634,4.528-20.8c-0.482,0.237-0.962,0.48-1.438,0.734c-14.538,7.781-22.876,22.306-22.876,39.851
	c0,53.917,75.511,86.194,78.725,87.541c1.968,0.825,4.231,0.826,6.199,0c2.271-0.952,40.638-17.35,62.955-45.913
	C301.979,285.111,280.56,294.264,278.88,294.969z"/>
<circle style="fill:#FFD6C4;" cx="298.748" cy="215.384" r="17.103"/>
<path style="fill:#FFD791;" d="M503.982,361.286h-67.616l-127.491-25.498c-0.517-0.104-1.044-0.156-1.572-0.156H204.688
	c-4.427,0-8.017,3.589-8.017,8.017v27.792c0,22.103,17.981,40.084,40.084,40.084h32.155l-106.063,26.255l-115.81-57.024
	c-0.155-0.076-0.312-0.148-0.47-0.214c-8.308-3.445-17.461-3.448-25.77-0.01c-8.311,3.439-14.785,9.908-18.229,18.216
	c-7.065,17.043,0.953,36.64,17.883,43.864l120.713,62.09c1.135,0.584,2.391,0.888,3.667,0.888h188.128
	c0.862,0,1.718-0.139,2.535-0.412l101.38-33.793h67.109c4.428,0,8.017-3.589,8.017-8.017v-94.064
	C511.999,364.875,508.411,361.286,503.982,361.286z"/>
<g>
	<path style="fill:#F8BE73;" d="M332.957,489.02H144.83L0.041,413.179c0.59,12.518,8.169,24.21,20.41,29.432l120.713,62.09
		c1.135,0.584,2.391,0.888,3.667,0.888h188.128c0.862,0,1.718-0.139,2.535-0.412l101.38-33.793h67.109
		c4.428,0,8.017-3.589,8.017-8.017v-8.841l-76.427,0.29L332.957,489.02z"/>
	<path style="fill:#F8BE73;" d="M204.324,394.957c7.293,10.03,19.11,16.568,32.432,16.568h66.451c4.427,0,8.017-3.589,8.017-8.017
		v-0.534c0-4.427-3.589-8.017-8.017-8.017H204.324z"/>
</g>
<g>
</g>
<g>
</g>
<g>
</g>
<g>
</g>
<g>
</g>
<g>
</g>
<g>
</g>
<g>
</g>
<g>
</g>
<g>
</g>
<g>
</g>
<g>
</g>
<g>
</g>
<g>
</g>
<g>
</g>
</svg>
