<?xml version="1.0" encoding="iso-8859-1"?>
<!-- Generator: Adobe Illustrator 19.0.0, SVG Export Plug-In . SVG Version: 6.00 Build 0)  -->
<svg version="1.1" id="Capa_1" xmlns="http://www.w3.org/2000/svg" xmlns:xlink="http://www.w3.org/1999/xlink" x="0px" y="0px"
	 viewBox="0 0 417.074 417.074" style="enable-background:new 0 0 417.074 417.074;" xml:space="preserve">
<g>
	<g id="Guides_For_Artboard_20_">
	</g>
	<g id="Artwork_19_">
	</g>
	<g id="Layer_2_19_">
		<g>
			<path style="fill:#E74424;" d="M165.401,139.394c0.869-2.422,3.305-3.914,5.858-3.58c2.552,0.332,4.527,2.397,4.746,4.961
				l8.747,102.192l16.379-59.038c0.67-2.414,2.882-4.072,5.396-4.009c2.503,0.055,4.65,1.803,5.213,4.243l9.121,39.569
				l15.573-65.431c0.608-2.56,2.957-4.313,5.582-4.201c2.628,0.125,4.797,2.103,5.163,4.708l11.622,82.857l5.21-16.84
				c0.71-2.292,2.83-3.854,5.229-3.854h123.254v-28.214c0-26.045-21.116-47.166-47.176-47.166h-74.883V70.706
				c0-26.057-21.115-47.17-47.17-47.17H196.02h-4.298c-26.049,0-47.176,21.114-47.176,47.17v74.884H69.659
				c-26.036,0-47.162,21.121-47.162,47.166v28.816h113.416L165.401,139.394z"/>
			<path style="fill:#E74424;" d="M262.013,268.313c-0.759,2.448-3.12,4.046-5.668,3.838c-2.556-0.208-4.626-2.157-4.981-4.697
				l-10.997-78.4L226.1,248.999c-0.587,2.466-2.791,4.207-5.324,4.207c-0.006,0-0.013,0-0.02,0c-2.542-0.01-4.743-1.767-5.314-4.245
				l-9.525-41.325l-18.748,67.576c-0.664,2.387-2.836,4.009-5.271,4.009c-0.169,0-0.339-0.008-0.51-0.022
				c-2.639-0.246-4.722-2.344-4.947-4.984l-9.203-107.526l-22.319,62.207c-0.78,2.176-2.841,3.625-5.152,3.625H23.226
				c3.89,22.131,23.2,38.951,46.435,38.951h74.887v74.886c0,26.057,21.127,47.18,47.176,47.18h4.298h27.245
				c26.055,0,47.17-21.124,47.17-47.18v-74.886h74.883c23.467,0,42.916-17.125,46.556-39.553h-118.6L262.013,268.313z"/>
			<path style="fill:#F7F1E6;" d="M411.603,220.971h-19.108H269.241c-2.399,0-4.52,1.563-5.229,3.854l-5.21,16.84l-11.622-82.857
				c-0.366-2.605-2.535-4.583-5.163-4.708c-2.625-0.112-4.974,1.641-5.582,4.201l-15.573,65.431l-9.121-39.569
				c-0.563-2.44-2.71-4.188-5.213-4.243c-2.514-0.063-4.726,1.596-5.396,4.009l-16.379,59.038l-8.747-102.192
				c-0.219-2.564-2.194-4.63-4.746-4.961c-2.554-0.334-4.989,1.158-5.858,3.58l-29.486,82.179H22.499H5.474
				c-3.023,0-5.474,2.451-5.474,5.475c0,3.022,2.45,5.473,5.474,5.473h17.752h116.539c2.312,0,4.372-1.449,5.152-3.625
				l22.319-62.207l9.203,107.526c0.226,2.64,2.309,4.738,4.947,4.984c0.171,0.014,0.341,0.022,0.51,0.022
				c2.436,0,4.607-1.622,5.271-4.009l18.748-67.577l9.525,41.325c0.571,2.479,2.772,4.235,5.314,4.245c0.007,0,0.014,0,0.02,0
				c2.533,0,4.737-1.74,5.324-4.207l14.267-59.944l10.997,78.4c0.355,2.54,2.426,4.49,4.981,4.697
				c2.548,0.208,4.909-1.39,5.668-3.838l11.263-36.396h118.599h19.729c3.022,0,5.472-2.45,5.472-5.473
				C417.075,223.421,414.626,220.971,411.603,220.971z"/>
		</g>
	</g>
</g>
<g>
</g>
<g>
</g>
<g>
</g>
<g>
</g>
<g>
</g>
<g>
</g>
<g>
</g>
<g>
</g>
<g>
</g>
<g>
</g>
<g>
</g>
<g>
</g>
<g>
</g>
<g>
</g>
<g>
</g>
</svg>
