<?xml version="1.0" encoding="iso-8859-1"?>
<!-- Generator: Adobe Illustrator 19.0.0, SVG Export Plug-In . SVG Version: 6.00 Build 0)  -->
<svg version="1.1" id="Layer_1" xmlns="http://www.w3.org/2000/svg" xmlns:xlink="http://www.w3.org/1999/xlink" x="0px" y="0px"
	 viewBox="0 0 297 297" style="enable-background:new 0 0 297 297;" xml:space="preserve">
<g>
	<g>
		<g>
			<g>
				<circle style="fill:#0EA6CB;" cx="148.5" cy="148.5" r="148.5"/>
			</g>
		</g>
	</g>
	<path style="fill:#1393A8;" d="M214.5,66l-132,198l28.116,28.116c12.095,3.182,24.79,4.884,37.884,4.884
		c81.989,0,148.458-66.445,148.499-148.424L214.5,66z"/>
	<rect x="82.5" y="66" style="fill:#FFFFFF;" width="132" height="198"/>
	<rect x="148.834" y="66" style="fill:#EDECEB;" width="65.666" height="198"/>
	<path style="fill:#DFDAD7;" d="M126,105.5h45c5.799,0,10.5-4.701,10.5-10.5V50c0-5.799-4.701-10.5-10.5-10.5h-45
		c-5.799,0-10.5,4.701-10.5,10.5v45C115.5,100.799,120.201,105.5,126,105.5z"/>
	<path style="fill:#C4C0BF;" d="M171,39.5h-22.167v66H171c5.799,0,10.5-4.701,10.5-10.5V50C181.5,44.201,176.799,39.5,171,39.5z"/>
	<rect x="132" y="214.5" style="fill:#DFDAD7;" width="33" height="49.5"/>
	<rect x="148.834" y="214.5" style="fill:#C4C0BF;" width="16.166" height="49.5"/>
	<rect x="99" y="115.5" style="fill:#DFDAD7;" width="33" height="33"/>
	<rect x="165" y="115.5" style="fill:#C4C0BF;" width="33" height="33"/>
	<rect x="99" y="165" style="fill:#DFDAD7;" width="33" height="33"/>
	<rect x="165" y="165" style="fill:#C4C0BF;" width="33" height="33"/>
	<polygon style="fill:#F86E51;" points="168.5,65.833 155.167,65.833 155.167,52.5 141.833,52.5 141.833,65.833 128.5,65.833 
		128.5,79.167 141.833,79.167 141.833,92.5 155.167,92.5 155.167,79.167 168.5,79.167 	"/>
	<polygon style="fill:#E55A42;" points="155.167,65.833 155.167,52.5 148.834,52.5 148.834,92.5 155.167,92.5 155.167,79.167 
		168.5,79.167 168.5,65.833 	"/>
</g>
<g>
</g>
<g>
</g>
<g>
</g>
<g>
</g>
<g>
</g>
<g>
</g>
<g>
</g>
<g>
</g>
<g>
</g>
<g>
</g>
<g>
</g>
<g>
</g>
<g>
</g>
<g>
</g>
<g>
</g>
</svg>
