<?xml version="1.0" ?><svg height="64" viewBox="0 0 64 64" width="64" xmlns="http://www.w3.org/2000/svg"><title/><g data-name="set-013@chemist-black-male" id="b68ca64f-8977-46f3-b6a3-03dd67a2a63c"><g data-name="chemist-black-male" id="b9e7c61d-f0d8-4900-8f82-bc4d2e6cb44f"><g data-name="chemist-black-male-2" id="ad9d3825-83c0-45e5-b833-ac73c1320bf1"><g data-name="Icons" id="e60a0a9b-2866-4284-9b3c-f6d67af8c727"><path d="M59.19,49.68a5.64,5.64,0,0,0-4.5-4.5c-1.33-.33-4.71-1.16-8.5-2-1.84-.41-3.7-.72-5.56-1V37.66h-15v4.55a45.7,45.7,0,0,0-5.42,1c-3.65.85-7,1.64-8.52,2a5.64,5.64,0,0,0-4.5,4.5l-.5,2.5a65.257,65.257,0,0,0,26.53,5.5,65.335,65.335,0,0,0,26.47-5.5Z" fill="#957058"/><line fill="none" stroke="#333" stroke-linejoin="round" stroke-width="1.5" x1="25.63" x2="25.63" y1="37.66" y2="43.6"/><line fill="none" stroke="#333" stroke-linejoin="round" stroke-width="1.5" x1="40.63" x2="40.63" y1="37.66" y2="43.6"/><path d="M59.19,49.68a5.64,5.64,0,0,0-4.5-4.5C45.19,42.8,42.25,42.36,39,42a14.947,14.947,0,0,1-4.76,3.24H32.07A15.075,15.075,0,0,1,27.32,42c-2.39.24-4.86.47-15.63,3.17a5.64,5.64,0,0,0-4.5,4.5l-.5,2.5a65.257,65.257,0,0,0,26.53,5.5,65.335,65.335,0,0,0,26.47-5.5Z" fill="#eee"/><path d="M54.69,48.77c-19.23-4.81-25.16-4.47-43,0A6.658,6.658,0,0,0,7,52.32a66.145,66.145,0,0,0,26.23,5.36A66.46,66.46,0,0,0,59.4,52.33,6.61,6.61,0,0,0,54.69,48.77Z" fill="#ddd"/><path d="M39.06,42a15,15,0,0,1-4.79,3.28H32.08A15.2,15.2,0,0,1,27.33,42c-1.12.1-2.23.21-3.34.36.2,6.71,1.08,11.05,2.93,15h0c2,.19,4.23.3,6.31.3h0c2,0,4.12-.1,6.24-.3h0c1.84-3.94,2.73-8.28,2.93-15C41.18,42.2,40.06,42.08,39.06,42Z" fill="#d4f4f0"/><path d="M33.23,57.68q2.45,0,4.83-.18c-2.85-8.69-2.41-7.36-2.8-8.53l1.57-2.07a1.219,1.219,0,0,0,0-1.43,1.291,1.291,0,0,0-1.07-.53H32.52a1.23,1.23,0,0,0-1.14.78A1.291,1.291,0,0,0,31.59,47l1.5,2-3,8.64C31.12,57.65,32.17,57.68,33.23,57.68Z" fill="#a8ccc6"/><path d="M39,51.05l.64.85a.514.514,0,0,0,.19.14.5.5,0,0,0,.65-.279h0L42.71,43Z" fill="#a8ccc6"/><path d="M32.07,45.27l-4.53,5.86s.19.32.41.72c.34.63.73.17.74.16.56-.74,4.51-6.31,4.51-6.31Z" data-name=" Path 2" fill="#a8ccc6" id="ebcdcfe0-9da8-4db6-90ff-ceec58178fdc"/><path d="M30.69,46.6,32.51,49a.82.82,0,0,0,1.147.17l.013-.01a.809.809,0,0,0,.16-.16l1.85-2.42a.83.83,0,0,0-.17-1.16.779.779,0,0,0-.49-.16H31.36a.83.83,0,0,0-.85.81h0A1,1,0,0,0,30.69,46.6Z" data-name=" Path 3" fill="#5e748e" id="b79f82db-0ced-4d36-b195-20e7214884e1"/><path d="M31.38,45.27H31.3l1.23,1.63a.82.82,0,0,0,1.147.17l.013-.01a.809.809,0,0,0,.16-.16l1.23-1.63Z" fill="#475b77"/><path d="M30.69,46.6,32.51,49a.82.82,0,0,0,1.147.17l.013-.01a.809.809,0,0,0,.16-.16l1.85-2.42a.83.83,0,0,0-.17-1.16.779.779,0,0,0-.49-.16H31.36a.83.83,0,0,0-.85.81h0A1,1,0,0,0,30.69,46.6Z" data-name=" Path 4" fill="none" id="a1cd52d5-e9e5-4504-b9b7-3c4af1301cb0" stroke="#333" stroke-linejoin="round"/><path d="M29.66,57.58c1.18.06,2.37.1,3.57.1s2.37,0,3.54-.09l-3-8.52H32.58Z" fill="#5e748e"/><path d="M31.14,57.64h2c1.15,0,2.44,0,3.57-.09l-2.95-8.52H32.57l-.33,1h0a.93.93,0,0,1,.95.91v.02Z" fill="#475b77"/><path d="M29.66,57.58c1.12.06,2.43.1,3.57.1s2.44,0,3.54-.09l-3-8.52H32.58Z" fill="none" stroke="#333" stroke-linejoin="round"/><path d="M25.09,39.11,23.67,43l3.75,8.26,4.65-6A15,15,0,0,1,25.09,39.11Z" data-name=" Path 8" fill="#d4f4f0" id="b672af94-021e-4ad5-8304-4414d16b8f16"/><path d="M32.07,45.27a14.75,14.75,0,0,1-7-6.16L23.67,43l3.75,8.26,4.65-6" data-name=" Path 9" fill="none" id="b1a9130b-f4ec-4a7f-b753-5bfb140eecc2" stroke="#333" stroke-linecap="round" stroke-linejoin="round" stroke-width="1.5"/><path d="M41.3,39.11,42.72,43l-3.79,8.27-4.66-6A14.993,14.993,0,0,0,41.3,39.11Z" data-name=" Path 10" fill="#d4f4f0" id="aea94cd6-bc2d-42b5-a5e8-16db3c2dc1ad"/><path d="M34.27,45.27a15,15,0,0,0,7-6.15L42.72,43l-3.79,8.27-4.66-6" data-name=" Path 12" fill="none" id="a6ece0ce-6743-4906-8554-db56ed3177c1" stroke="#333" stroke-linecap="round" stroke-linejoin="round" stroke-width="1.5"/><path d="M23.94,40.68l-6.68,5.67,3.86,2.72-2.7,3.5L23,56.87c1.25.2,2.55.36,3.91.5C24.92,53.1,24,48.39,23.94,40.68Z" fill="#ddd" stroke="#333" stroke-linejoin="round" stroke-width="1.527"/><path d="M42.32,40.68,49,46.35l-3.86,2.72,2.7,3.5-4.57,4.3c-1.25.2-2.55.36-3.91.5C41.35,53.1,42.22,48.39,42.32,40.68Z" fill="#ddd" stroke="#333" stroke-linejoin="round" stroke-width="1.527"/><path d="M21.3,42.92c-3.65.85-8.13,1.88-9.61,2.25a5.64,5.64,0,0,0-4.5,4.5l-.5,2.5a65.257,65.257,0,0,0,26.53,5.5,65.335,65.335,0,0,0,26.47-5.5l-.5-2.5a5.64,5.64,0,0,0-4.5-4.5c-1.33-.33-6-1.42-9.75-2.26" fill="none" stroke="#333" stroke-linecap="round" stroke-linejoin="round" stroke-width="1.5"/><path d="M44.11,23V20.8c0-5.95-2.09-12.08-11-12.08s-11,6.13-11,12.09V23c-.09,0-3.29,0-2.2,5.49a4.27,4.27,0,0,0,3.29,3.29c0,3.9,1.1,4.39,4.81,8.21,1.43,1.82,3.17,1.67,5.07,1.67s3.65.15,5.07-1.67C41.9,36.17,43,35.68,43,31.78a4.27,4.27,0,0,0,3.29-3.29C47.4,23,44.2,23,44.11,23Z" fill="#a68064"/><path d="M46.31,28.48C47.41,23,44.2,23,44.11,23V20.8c0-5.95-2.09-12.08-11-12.08a15.347,15.347,0,0,0-2.9.28V21a3.9,3.9,0,0,1-1.27,2.88.45.45,0,0,0,.2.77c1.5.43,2.3.71,3.23.47.31-.08.86.27.86.59v1.57a1.69,1.69,0,0,0,.64,1.4,1.1,1.1,0,0,1-.64,2c-.81,0-1.1-.55-2.2-.55-.65,0-.55.85-.57.82a2.378,2.378,0,0,1,1.1.29,3.379,3.379,0,0,0,1.65.43V35a1.91,1.91,0,0,0,1.25,1.76,1.55,1.55,0,0,1,.94,1.63c0,3-5.43-.3-5.43,3h0a9.9,9.9,0,0,0,3.16.29c1.9,0,3.65.15,5.07-1.67,3.71-3.84,4.8-4.33,4.8-8.23A4.308,4.308,0,0,0,46.31,28.48Z" fill="#9b775c"/><path d="M43,23.37H24.4v4.21a3,3,0,0,0,3,3H30a2.922,2.922,0,0,0,1.52-.36,4.215,4.215,0,0,1,2.15-.76,4.175,4.175,0,0,1,2.15.76,2.922,2.922,0,0,0,1.52.36H40a3,3,0,0,0,3-3Z" fill="#957058"/><path d="M24.76,30.68a3.669,3.669,0,0,1-1.52-3.29V24.7a2.441,2.441,0,0,0-1.46-1.65c-.83.17-2.72,1-1.83,5.45a4.27,4.27,0,0,0,3.29,3.29c0,3.3.8,4.17,3.29,6.68V35.09A5.2,5.2,0,0,0,24.76,30.68Z" fill="#9b775c"/><path d="M44.14,23A2.181,2.181,0,0,0,43,24.86v2.53a3.641,3.641,0,0,1-1.52,3.29,5.238,5.238,0,0,0-1.78,4.39v3.38c2.5-2.51,3.29-3.38,3.29-6.68a4.27,4.27,0,0,0,3.29-3.29C47.37,23.17,44.41,23,44.14,23Z" fill="#957058"/><path d="M44.11,23V20.8c0-5.95-2.09-12.08-11-12.08s-11,6.13-11,12.09V23c-.09,0-3.29,0-2.2,5.49a4.27,4.27,0,0,0,3.29,3.29c0,3.9,1.1,4.39,4.81,8.21,1.43,1.82,3.17,1.67,5.07,1.67s3.65.15,5.07-1.67C41.9,36.17,43,35.68,43,31.78a4.27,4.27,0,0,0,3.29-3.29C47.4,23,44.2,23,44.11,23Z" fill="none" stroke="#333" stroke-linejoin="round" stroke-width="1.5"/><line fill="none" stroke="#977059" stroke-linecap="round" stroke-miterlimit="10" stroke-width="0.75" x1="33.13" x2="33.13" y1="31.64" y2="32.64"/><line fill="none" stroke="#977059" stroke-linecap="round" stroke-miterlimit="10" stroke-width="0.75" x1="32.13" x2="34.13" y1="36.71" y2="36.71"/><line fill="none" stroke="#977059" stroke-linecap="round" stroke-miterlimit="10" stroke-width="0.75" x1="33.01" x2="33.26" y1="39.41" y2="39.41"/><path d="M34.49,33.5a2.828,2.828,0,0,0-1.18.13.607.607,0,0,1-.42,0,2.878,2.878,0,0,0-1.18-.13c-.67.1-.74.52-2.09,1.25l1.19.73a2.29,2.29,0,0,0,1.27.41h2.07a2.217,2.217,0,0,0,1.27-.41l1.23-.7C35.29,34.05,35.16,33.59,34.49,33.5Z" fill="#957058"/><path d="M36.64,34.78c-1,0-1.26-.39-2.24-.39a6.756,6.756,0,0,0-1.29.17,7.473,7.473,0,0,0-1.29-.17c-.94,0-1.15.36-2.21.36" fill="none" stroke="#674848" stroke-linecap="round" stroke-miterlimit="10" stroke-width="0.75"/><path d="M30.41,30.77a2.669,2.669,0,0,1,1.31.34h0a2.751,2.751,0,0,0,2.61,0h0a2.743,2.743,0,0,1,1.31-.34" fill="none" stroke="#674848" stroke-linecap="round" stroke-miterlimit="10" stroke-width="0.75"/><path d="M42.71,26.5c0-3,1.69-3.38,1.69-3.38.43-3,.89-4.88.17-7.43C43.32,11.32,39.3,8.5,33.13,8.5s-9.83,2.82-11.08,7.19c-.7,2.46-.31,4.15.17,7.43,0,0,1.5.35,1.5,3.38,0-2.6-.09-3.9.81-5a1,1,0,0,0,.19-.6V18.65a2.1,2.1,0,0,1,1.39-2,22.14,22.14,0,0,1,7.11-1.36,22.14,22.14,0,0,1,7.11,1.36,2.1,2.1,0,0,1,1.39,2v2.21a1,1,0,0,0,.19.6C42.91,23.06,42.71,24.19,42.71,26.5Z" fill="#333"/><path d="M39.22,9.67A15.007,15.007,0,0,0,33.13,8.5c-6.17,0-9.83,2.82-11.08,7.19-.7,2.46-.31,4.15.17,7.43,0,0,1.2.29,1.45,2.51v-5C23.66,8.79,35.23,9,39.22,9.67Z" fill="#444"/><path d="M23.37,26.5c0-.75-.07-1.49-.07-2.26a5.775,5.775,0,0,1,.39-2.38A5.009,5.009,0,0,1,24,21.3l.09-.13v-.06a.472.472,0,0,0,0-.13.627.627,0,0,0,0-.15V18.88a2.914,2.914,0,0,1,.21-1.35,2.745,2.745,0,0,1,.89-1.13,3.312,3.312,0,0,1,.64-.35l.54-.2a22.311,22.311,0,0,1,6.8-1.31,20.11,20.11,0,0,1,4.6.61c.75.19,1.49.42,2.21.68l.54.2a2.655,2.655,0,0,1,.64.35,2.756,2.756,0,0,1,.9,1.13,2.914,2.914,0,0,1,.21,1.35V21c0,.08.31.54.44.9a5.481,5.481,0,0,1,.45,2.37c0,.77-.07,1.51-.09,2.26a.35.35,0,0,1-.69,0h0c-.08-1.5.06-3-.57-4.2a4.5,4.5,0,0,0-.25-.43,1.935,1.935,0,0,1-.32-.65,1.488,1.488,0,0,1,0-.4V18.88A1.674,1.674,0,0,0,41,18a1.408,1.408,0,0,0-.86-.73l-.52-.17a21.671,21.671,0,0,0-2.1-.55,25.032,25.032,0,0,0-4.27-.51,24.059,24.059,0,0,0-4.28.49,21.437,21.437,0,0,0-2.1.56l-.52.17a1.417,1.417,0,0,0-.35.17,1.494,1.494,0,0,0-.51.58,1.725,1.725,0,0,0-.16.84v1.96a1.488,1.488,0,0,1,0,.4,1.721,1.721,0,0,1-.16.39,1.185,1.185,0,0,1-.12.17l-.08.1a3.381,3.381,0,0,0-.26.4,5.1,5.1,0,0,0-.45,2c-.05.73-.06,1.48-.09,2.23a.34.34,0,0,1-.35.33h0a.37.37,0,0,1-.442-.28A.274.274,0,0,1,23.37,26.5Z" fill="#333"/><path d="M23.37,26.5a5.336,5.336,0,0,0-.31-1.8,2.532,2.532,0,0,0-.41-.74,1.3,1.3,0,0,0-.54-.41.452.452,0,0,1-.33-.36,25.154,25.154,0,0,1-.62-5.55,10.773,10.773,0,0,1,1.89-5.41,10,10,0,0,1,4.59-3.51,15.2,15.2,0,0,1,5.64-1,15.574,15.574,0,0,1,5.63,1,10.525,10.525,0,0,1,4.64,3.46,10.127,10.127,0,0,1,1.92,5.43,26.984,26.984,0,0,1-.62,5.55.469.469,0,0,1-.35.38h0a1.535,1.535,0,0,0-.62.39,2.564,2.564,0,0,0-.47.72A4.985,4.985,0,0,0,43,26.51a.345.345,0,0,1-.69,0,5.652,5.652,0,0,1,.31-2.13,2.927,2.927,0,0,1,.58-1,2.218,2.218,0,0,1,1.06-.7l-.35.38a25.906,25.906,0,0,0,.41-5.34,8.751,8.751,0,0,0-6-7.59,15.416,15.416,0,0,0-5.12-.87,15.169,15.169,0,0,0-5.13.76A8.739,8.739,0,0,0,24,13a9.628,9.628,0,0,0-1.82,4.76,30.061,30.061,0,0,0,.42,5.35l-.33-.36a2.005,2.005,0,0,1,1,.75,3.169,3.169,0,0,1,.49,1,6.346,6.346,0,0,1,.25,2.06.35.35,0,0,1-.35.34.359.359,0,0,1-.33-.35Z" fill="#333"/><polygon fill="none" points="58.51 14.5 58.51 10.38 54.94 8.32 51.37 10.38 51.37 14.5 54.94 16.56 58.51 14.5" stroke="#000" stroke-miterlimit="10"/><line fill="none" stroke="#000" stroke-miterlimit="10" x1="54.94" x2="54.94" y1="8.32" y2="6"/><line fill="none" stroke="#000" stroke-miterlimit="10" x1="51.37" x2="49.36" y1="10.38" y2="9.22"/><line fill="none" stroke="#000" stroke-miterlimit="10" x1="58.51" x2="60.52" y1="14.5" y2="15.66"/><line fill="none" stroke="#000" stroke-miterlimit="10" x1="58.51" x2="60.52" y1="10.38" y2="9.22"/><line fill="none" stroke="#000" stroke-miterlimit="10" x1="51.37" x2="49.36" y1="14.5" y2="15.66"/><line fill="none" stroke="#000" stroke-miterlimit="10" x1="54.94" x2="54.94" y1="16.56" y2="18.88"/><polyline fill="none" points="14.94 16.08 13.12 19.24 14.94 22.4" stroke="#000" stroke-miterlimit="10"/><polygon fill="none" points="13.12 12.92 9.47 12.92 7.65 16.08 9.47 19.24 13.12 19.24 14.94 16.08 13.12 12.92" stroke="#000" stroke-miterlimit="10"/><polyline fill="none" points="7.65 22.4 9.47 19.24 7.65 16.08" stroke="#000" stroke-miterlimit="10"/><line fill="none" stroke="#000" stroke-miterlimit="10" x1="7.65" x2="4" y1="9.76" y2="9.76"/><polyline fill="none" points="9.47 6.6 7.65 9.76 9.47 12.92 13.12 12.92 14.94 9.76" stroke="#000" stroke-miterlimit="10"/><path d="M43.67,21.69h-21v4.74a3.43,3.43,0,0,0,3.43,3.43h2.92a3.319,3.319,0,0,0,1.71-.4,4.711,4.711,0,0,1,2.42-.86,4.655,4.655,0,0,1,2.42.86,3.319,3.319,0,0,0,1.71.4H40.2a3.43,3.43,0,0,0,3.43-3.43h0Z" fill="#98a4bf"/><path d="M43.67,21.69H30.14a3.885,3.885,0,0,1-1.2,2.19.45.45,0,0,0,.2.77c1.5.43,2.3.71,3.23.47.31-.08.86.27.86.59v1.57a1.7,1.7,0,0,0,.62,1.38,5.992,5.992,0,0,1,1.77.79,3.319,3.319,0,0,0,1.71.4h2.92a3.43,3.43,0,0,0,3.43-3.43h0V21.69Z" fill="#8f9db5"/><circle cx="28.83" cy="25.85" fill="#77859e" r="0.65"/><circle cx="37.79" cy="25.85" fill="#77859e" r="0.65"/><path d="M25.51,23.55A5.959,5.959,0,0,1,27,23a5.586,5.586,0,0,1,1.58-.09,9.725,9.725,0,0,1,2.82,1h0a.23.23,0,0,1,.12.3.24.24,0,0,1-.23.14,12.189,12.189,0,0,1-1.48-.26c-.47-.09-.93-.14-1.37-.21a7.311,7.311,0,0,0-2.75.06h0a.24.24,0,0,1-.27-.18A.219.219,0,0,1,25.51,23.55Z" fill="#77859e"/><path d="M40.45,24a7.29,7.29,0,0,0-2.75-.06c-.45.07-.9.12-1.37.21a12.189,12.189,0,0,1-1.48.26.22.22,0,0,1-.239-.2.148.148,0,0,1,0-.021.23.23,0,0,1,.14-.23h0a9.725,9.725,0,0,1,2.82-1,6.356,6.356,0,0,1,1.57.09,5.2,5.2,0,0,1,1.45.55.229.229,0,0,1,.09.31.209.209,0,0,1-.25.12Z" fill="#77859e"/><rect fill="#6592e0" height="1.3" stroke="#6592e0" stroke-linejoin="round" stroke-width="1.126" width="20.97" x="22.71" y="21.04"/></g></g></g></g></svg> 