<svg height="512pt" viewBox="0 -10 512.00009 512" width="512pt" xmlns="http://www.w3.org/2000/svg"><path d="m255.585938 356.535156h16.484374c2.75 0 5 2.25 5 5v13.960938c0 2.75-2.25 5-5 5h-8.816406v30.636718c0 5.5-4.5 10-10 10h-7.496094v31.257813h146.140626c-5.542969-3.273437-9.570313-8.894531-10.679688-15.671875-.144531-.90625.109375-1.832031.703125-2.527344.59375-.699218 1.464844-1.105468 2.378906-1.105468h10.773438c-7.152344-2.808594-12.542969-9.191407-13.855469-17.207032-.148438-.902344.109375-1.828125.703125-2.527344.59375-.699218 1.460937-1.101562 2.378906-1.101562h10.769531c-7.148437-2.8125-12.539062-9.191406-13.851562-17.207031-.148438-.90625.105469-1.828125.703125-2.527344.589844-.699219 1.460937-1.105469 2.378906-1.105469h10.769531c-7.148437-2.808594-12.542968-9.191406-13.851562-17.207031-.148438-.902344.105469-1.828125.699219-2.527344s1.464843-1.101562 2.378906-1.101562h90.21875v-85.300781c0-5.726563-4.300781-12.269532-9.5625-14.527344l-56.648437-24.355469c-5.257813-2.261719-9.5625-8.800781-9.5625-14.53125v-14.03125c-9.316407 5.722656-20.285157 9.027344-32.03125 9.027344h-16.140626c-12.164062 0-23.488281-3.554688-33.015624-9.65625v14.660156c0 5.730469-4.300782 12.269531-9.5625 14.53125l-56.648438 24.355469c-5.257812 2.261718-9.558594 8.800781-9.558594 14.527344v41.054687c6.539063 8.859375 11.316406 19.097656 13.800782 30.207031zm0 0" fill="#def9ff"/><path d="m253.253906 421.132812h-7.496094v31.257813h16.511719v-36.96875c-1.613281 3.363281-5.050781 5.710937-9.015625 5.710937zm0 0" fill="#abebff"/><path d="m255.585938 356.535156h6.683593v-60.9375c0-5.730468 4.300781-12.269531 9.558594-14.53125l56.652344-24.355468c5.257812-2.261719 9.558593-8.800782 9.558593-14.53125v-16.609376c-7.40625-1.539062-14.316406-4.421874-20.480468-8.371093v14.660156c0 5.730469-4.300782 12.269531-9.5625 14.53125l-56.648438 24.355469c-5.257812 2.261718-9.558594 8.800781-9.558594 14.527344v41.054687c6.535157 8.859375 11.3125 19.097656 13.796876 30.207031zm0 0" fill="#abebff"/><g fill="#ffe2b8"><path d="m289.359375 165.792969v-32.023438h-10.964844c-7.121093 0-12.898437 5.761719-12.898437 12.867188v15.574219c0 7.105468 5.777344 12.863281 12.898437 12.863281h11.667969c-.460938-3.027344-.703125-6.125-.703125-9.28125zm0 0"/><path d="m437.90625 133.769531h-9.976562v32.023438c0 3.152343-.242188 6.253906-.703126 9.28125h10.683594c7.125 0 12.898438-5.761719 12.898438-12.863281v-15.574219c0-7.105469-5.777344-12.867188-12.902344-12.867188zm0 0"/><path d="m289.359375 124.304688v41.488281c0 33.722656 27.40625 61.0625 61.214844 61.0625h16.140625c33.808594 0 61.214844-27.339844 61.214844-61.0625v-41.488281zm0 0"/></g><path d="m309.921875 165.792969v-41.488281h-20.5625v41.488281c0 33.722656 27.40625 61.0625 61.214844 61.0625h16.140625c.742187 0 1.476562-.03125 2.210937-.058594-32.78125-1.160156-59.003906-28.019531-59.003906-61.003906zm0 0" fill="#ffc987"/><path d="m444 62.199219c0-19.277344-15.605469-34.902344-34.859375-34.902344-6.449219 0-12.484375 1.761719-17.667969 4.816406-4.386718-14.253906-17.644531-24.613281-33.320312-24.613281-15.675782 0-28.929688 10.359375-33.3125 24.613281-5.183594-3.058593-11.222656-4.816406-17.671875-4.816406-19.253907 0-34.859375 15.625-34.859375 34.902344 0 12.761719 6.84375 23.917969 17.054687 30.003906v32.101563h138.566407v-32.710938c9.664062-6.207031 16.070312-17.046875 16.070312-29.394531zm0 0" fill="#def9ff"/><path d="m293.308594 54.964844c0-10.769532 4.363281-20.519532 11.417968-27.574219-18.113281 1.257813-32.417968 16.355469-32.417968 34.808594 0 12.761719 6.84375 23.917969 17.050781 30.007812v32.101563h22.988281v-35.839844c-11.398437-6.796875-19.039062-19.253906-19.039062-33.503906zm0 0" fill="#abebff"/><path d="m176.4375 293.542969v-18.277344c0-4.601563-3.726562-8.332031-8.324219-8.332031h-41.621093c-4.597657 0-8.324219 3.730468-8.324219 8.332031v18.277344zm0 0" fill="#69cdff"/><path d="m139 293.542969v-18.277344c0-4.601563 3.726562-8.332031 8.324219-8.332031h-20.832031c-4.597657 0-8.324219 3.730468-8.324219 8.332031v18.277344zm0 0" fill="#00a9ff"/><path d="m255.585938 356.535156c-8.066407-36.046875-40.1875-62.992187-78.617188-62.992187h-59.328125c-38.433594 0-70.554687 26.945312-78.617187 62.992187zm0 0" fill="#e0e0e0"/><path d="m70.589844 356.535156c8.0625-36.046875 40.1875-62.992187 78.621094-62.992187h-31.570313c-38.433594 0-70.554687 26.945312-78.617187 62.992187zm0 0" fill="#c7c8ca"/><path d="m48.851562 421.132812h20.785157v31.257813h-20.785157zm0 0" fill="#69cdff"/><path d="m224.972656 421.132812h20.785156v31.257813h-20.785156zm0 0" fill="#69cdff"/><path d="m31.355469 380.496094v30.636718c0 5.5 4.5 10 10 10h211.898437c5.5 0 10-4.5 10-10v-30.636718zm0 0" fill="#c7c8ca"/><path d="m63 411.132812v-30.636718h-31.644531v30.636718c0 5.5 4.5 10 10 10h31.644531c-5.5 0-10-4.5-10-10zm0 0" fill="#a7a9ac"/><path d="m277.070312 375.496094c0 2.75-2.25 5-5 5h-249.535156c-2.75 0-5-2.25-5-5v-13.960938c0-2.75 2.25-5 5-5h249.535156c2.75 0 5 2.25 5 5zm0 0" fill="#69cdff"/><path d="m49 375.496094v-13.960938c0-2.75 2.25-5 5-5h-31.464844c-2.75 0-5 2.25-5 5v13.960938c0 2.75 2.25 5 5 5h31.464844c-2.75 0-5-2.25-5-5zm0 0" fill="#00a9ff"/><path d="m395.074219 391.410156h95.53125c7.148437-2.808594 12.542969-9.191406 13.855469-17.207031.144531-.902344-.109376-1.828125-.703126-2.527344s-1.464843-1.101562-2.378906-1.101562h-117.078125c-.914062 0-1.785156.402343-2.378906 1.101562s-.851563 1.625-.703125 2.527344c1.3125 8.015625 6.703125 14.398437 13.855469 17.207031zm0 0" fill="#ffcb00"/><path d="m395.074219 391.410156h31.5c-7.152344-2.808594-12.542969-9.191406-13.855469-17.207031-.148438-.902344.109375-1.828125.703125-2.527344s1.460937-1.101562 2.378906-1.101562h-31.5c-.917969 0-1.785156.402343-2.378906 1.101562s-.851563 1.625-.703125 2.527344c1.3125 8.015625 6.703125 14.398437 13.855469 17.207031zm0 0" fill="#ffaf10"/><path d="m395.074219 412.25h95.53125c7.148437-2.8125 12.542969-9.195312 13.855469-17.207031.144531-.90625-.109376-1.832031-.703126-2.527344-.59375-.699219-1.464843-1.105469-2.378906-1.105469h-117.078125c-.914062 0-1.785156.402344-2.378906 1.105469-.59375.695313-.851563 1.621094-.703125 2.527344 1.3125 8.011719 6.703125 14.394531 13.855469 17.207031zm0 0" fill="#ff99a3"/><path d="m395.074219 412.25h31.5c-7.152344-2.8125-12.542969-9.195312-13.855469-17.207031-.148438-.90625.109375-1.832031.703125-2.527344.59375-.699219 1.460937-1.105469 2.378906-1.105469h-31.5c-.917969 0-1.785156.402344-2.378906 1.105469-.59375.695313-.851563 1.621094-.703125 2.527344 1.3125 8.011719 6.703125 14.394531 13.855469 17.207031zm0 0" fill="#f66"/><path d="m395.074219 433.085938h95.53125c7.148437-2.808594 12.542969-9.191407 13.855469-17.207032.144531-.902344-.109376-1.828125-.703126-2.527344-.59375-.699218-1.464843-1.101562-2.378906-1.101562h-117.078125c-.914062 0-1.785156.402344-2.378906 1.101562-.59375.699219-.851563 1.625-.703125 2.527344 1.3125 8.015625 6.703125 14.398438 13.855469 17.207032zm0 0" fill="#ffcb00"/><path d="m395.074219 433.085938h31.5c-7.152344-2.808594-12.542969-9.191407-13.855469-17.207032-.148438-.902344.109375-1.828125.703125-2.527344.59375-.699218 1.460937-1.101562 2.378906-1.101562h-31.5c-.917969 0-1.785156.402344-2.378906 1.101562-.59375.699219-.851563 1.625-.703125 2.527344 1.3125 8.015625 6.703125 14.398438 13.855469 17.207032zm0 0" fill="#ffaf10"/><path d="m391.898438 452.390625h101.878906c5.542968-3.273437 9.570312-8.894531 10.683594-15.671875.144531-.90625-.109376-1.832031-.703126-2.527344-.59375-.699218-1.464843-1.105468-2.378906-1.105468h-117.078125c-.914062 0-1.785156.402343-2.378906 1.105468-.59375.695313-.851563 1.621094-.703125 2.527344 1.109375 6.777344 5.136719 12.398438 10.679688 15.671875zm0 0" fill="#ff99a3"/><path d="m391.898438 452.390625h31.5c-5.542969-3.273437-9.570313-8.894531-10.679688-15.671875-.148438-.90625.109375-1.832031.703125-2.527344.59375-.699218 1.460937-1.105468 2.378906-1.105468h-31.5c-.917969 0-1.785156.402343-2.378906 1.105468-.59375.695313-.851563 1.621094-.703125 2.527344 1.109375 6.777344 5.136719 12.398438 10.679688 15.671875zm0 0" fill="#f66"/><path d="m504.5 478.644531c0 2.75-2.25 5-5 5h-487c-2.75 0-5-2.25-5-5v-21.253906c0-2.75 2.25-5 5-5h487c2.75 0 5 2.25 5 5zm0 0" fill="#02af8e"/><path d="m48 478.644531v-21.253906c0-2.75 2.25-5 5-5h-40.5c-2.75 0-5 2.25-5 5v21.253906c0 2.75 2.25 5 5 5h40.5c-2.75 0-5-2.25-5-5zm0 0" fill="#008e83"/><path d="m356.285156 178.265625h7.792969c4.144531 0 7.5-3.355469 7.5-7.5 0-4.140625-3.355469-7.5-7.5-7.5h-3.925781v-13.464844c0-4.144531-3.355469-7.5-7.5-7.5-4.140625 0-7.5 3.355469-7.5 7.5v17.507813c0 6.042968 4.996094 10.957031 11.132812 10.957031zm0 0"/><path d="m323.609375 161.820312c4.140625 0 7.5-3.355468 7.5-7.5v-6.628906c0-4.140625-3.359375-7.5-7.5-7.5-4.144531 0-7.5 3.359375-7.5 7.5v6.628906c0 4.144532 3.355469 7.5 7.5 7.5zm0 0"/><path d="m392.699219 161.820312c4.140625 0 7.5-3.355468 7.5-7.5v-6.628906c0-4.140625-3.359375-7.5-7.5-7.5-4.144531 0-7.5 3.359375-7.5 7.5v6.628906c0 4.144532 3.355469 7.5 7.5 7.5zm0 0"/><path d="m328.925781 196.621094c8.117188 7.777344 18.777344 11.667968 29.441407 11.667968 10.660156 0 21.324218-3.890624 29.4375-11.667968 2.992187-2.867188 3.09375-7.613282.226562-10.605469-2.867188-2.988281-7.613281-3.089844-10.601562-.222656-10.511719 10.070312-27.613282 10.070312-38.128907 0-2.988281-2.867188-7.738281-2.765625-10.601562.226562-2.867188 2.988281-2.765625 7.738281.226562 10.601563zm0 0"/><path d="m346.070312 301.222656c-1.398437-1.398437-3.332031-2.199218-5.3125-2.199218-1.96875 0-3.898437.800781-5.296874 2.199218-1.402344 1.398438-2.203126 3.332032-2.203126 5.300782 0 1.980468.800782 3.910156 2.203126 5.300781 1.398437 1.398437 3.328124 2.199219 5.296874 2.199219 1.980469 0 3.910157-.800782 5.3125-2.199219 1.390626-1.390625 2.199219-3.320313 2.199219-5.300781 0-1.96875-.808593-3.910157-2.199219-5.300782zm0 0"/><path d="m384.570312 301.222656c-1.398437-1.398437-3.332031-2.199218-5.300781-2.199218-1.980469 0-3.910156.800781-5.308593 2.199218-1.394532 1.390625-2.191407 3.332032-2.191407 5.300782s.800781 3.910156 2.191407 5.300781c1.398437 1.398437 3.328124 2.199219 5.308593 2.199219 1.96875 0 3.898438-.800782 5.300781-2.199219 1.398438-1.390625 2.199219-3.332031 2.199219-5.300781s-.800781-3.902344-2.199219-5.300782zm0 0"/><path d="m346.070312 343.933594c-1.398437-1.390625-3.332031-2.191406-5.3125-2.191406-1.96875 0-3.898437.800781-5.296874 2.191406-1.402344 1.398437-2.203126 3.339844-2.203126 5.308594 0 1.972656.800782 3.902343 2.203126 5.300781 1.398437 1.398437 3.328124 2.199219 5.296874 2.199219 1.980469 0 3.910157-.800782 5.3125-2.199219 1.390626-1.390625 2.199219-3.328125 2.199219-5.300781 0-1.980469-.808593-3.910157-2.199219-5.308594zm0 0"/><path d="m379.269531 341.742188c-1.980469 0-3.910156.800781-5.308593 2.191406-1.390626 1.398437-2.191407 3.328125-2.191407 5.308594 0 1.972656.800781 3.902343 2.191407 5.300781 1.398437 1.398437 3.328124 2.199219 5.308593 2.199219 1.972657 0 3.902344-.800782 5.300781-2.199219 1.398438-1.398438 2.199219-3.328125 2.199219-5.300781 0-1.96875-.800781-3.910157-2.199219-5.308594-1.398437-1.390625-3.332031-2.191406-5.300781-2.191406zm0 0"/><path d="m346.070312 386.652344c-1.398437-1.390625-3.332031-2.1875-5.3125-2.1875-1.96875 0-3.898437.796875-5.296874 2.1875-1.402344 1.402344-2.203126 3.332031-2.203126 5.3125 0 1.96875.800782 3.898437 2.203126 5.296875 1.398437 1.402343 3.328124 2.203125 5.296874 2.203125 1.980469 0 3.910157-.800782 5.3125-2.203125 1.390626-1.398438 2.199219-3.328125 2.199219-5.296875 0-1.980469-.808593-3.910156-2.199219-5.3125zm0 0"/><path d="m340.761719 427.171875c-1.972657 0-3.902344.800781-5.300781 2.199219-1.402344 1.402344-2.199219 3.332031-2.199219 5.300781 0 1.980469.796875 3.910156 2.199219 5.3125 1.398437 1.386719 3.328124 2.1875 5.300781 2.1875 1.976562 0 3.910156-.800781 5.308593-2.1875 1.390626-1.402344 2.199219-3.332031 2.199219-5.3125 0-1.96875-.808593-3.910156-2.199219-5.300781-1.398437-1.398438-3.332031-2.199219-5.308593-2.199219zm0 0"/><path d="m508.085938 448.328125c1.84375-3.125 3.15625-6.625 3.773437-10.402344.503906-3.085937-.367187-6.214843-2.382813-8.585937-.480468-.566406-1.015624-1.070313-1.589843-1.515625 1.949219-3.207031 3.332031-6.820313 3.972656-10.738281.503906-3.082032-.367187-6.214844-2.382813-8.582032-.480468-.566406-1.015624-1.070312-1.589843-1.519531 1.949219-3.207031 3.332031-6.820313 3.972656-10.738281.503906-3.082032-.367187-6.214844-2.382813-8.582032-.480468-.566406-1.015624-1.070312-1.589843-1.515624 1.949219-3.207032 3.332031-6.824219 3.972656-10.738282.503906-3.082031-.367187-6.214844-2.382813-8.585937-2.019531-2.382813-4.972656-3.75-8.097656-3.75h-19.359375v-20.5c0-4.144531-3.359375-7.5-7.5-7.5-4.144531 0-7.5 3.355469-7.5 7.5v20.5h-82.71875c-3.125 0-6.078125 1.367187-8.09375 3.742187-2.023437 2.378906-2.894531 5.507813-2.390625 8.597656.640625 3.914063 2.023438 7.527344 3.972656 10.734376-.574218.445312-1.105468.945312-1.582031 1.507812-2.023437 2.375-2.894531 5.507812-2.390625 8.597656.640625 3.914063 2.023438 7.527344 3.972656 10.730469-.574218.445313-1.105468.945313-1.582031 1.507813-2.023437 2.378906-2.894531 5.511718-2.390625 8.597656.640625 3.914062 2.023438 7.527344 3.972656 10.734375-.574218.445312-1.105468.945312-1.582031 1.507812-2.023437 2.378907-2.894531 5.507813-2.390625 8.597657.402344 2.445312 1.101563 4.769531 2.035156 6.960937h-49.566406v-152.039063c0-3.773437 2.503906-9.875 5.152344-12.558593l46.222656-46.820313c4.703125-.757812 9.246094-1.992187 13.582032-3.652344v2.035157c0 8.757812 6.0625 17.964843 14.101562 21.421875l56.648438 24.355468c2.488281 1.070313 5.023437 4.925782 5.023437 7.640626v22.300781c0 4.140625 3.359375 7.5 7.5 7.5 4.144531 0 7.5-3.359375 7.5-7.5v-22.300781c0-8.753907-6.0625-17.964844-14.097656-21.417969l-56.648438-24.355469c-2.488281-1.070312-5.027343-4.925781-5.027343-7.640625v-10.035156c13.222656-9.3125 23.019531-23.152344 27.09375-39.25h4.570312c11.25 0 20.398438-9.132813 20.398438-20.363281v-15.574219c0-11.230469-9.148438-20.363281-20.398438-20.363281h-2.480469v-30.832032c10.136719-8.011718 16.074219-20.15625 16.074219-33.242187 0-23.382813-19.003906-42.402344-42.359375-42.402344-4.707031 0-9.359375.785156-13.773437 2.304687-7.292969-13.492187-21.378907-22.101562-37.214844-22.101562-15.839844 0-29.925782 8.609375-37.214844 22.101562-4.410156-1.519531-9.066406-2.304687-13.773438-2.304687-23.355468 0-42.359374 19.019531-42.359374 42.402344 0 13.386719 6.4375 26.046875 17.054687 33.996093v30.074219h-3.464844c-11.246093 0-20.398437 9.136719-20.398437 20.367188v15.574219c0 11.230468 9.152344 20.363281 20.398437 20.363281h5.554688c3.972656 15.695312 13.386719 29.25 26.109375 38.554687v10.726563c0 2.714843-2.535156 6.570312-5.023438 7.640625l-56.648437 24.359375c-8.039063 3.453125-14.101563 12.664062-14.101563 21.417969v22.023437c-14.191406-12.199219-31.773437-19.496094-50.347656-20.960937v-11.070313c0-8.730469-7.097656-15.835937-15.824219-15.835937h-41.621093c-8.726563 0-15.824219 7.105468-15.824219 15.835937v11.070313c-19.480469 1.535156-37.882813 9.472656-52.414063 22.765624-11.925781 10.902344-20.492187 24.714844-25.015625 39.933594h-25.738281c-4.144531 0-7.5 3.359375-7.5 7.5 0 4.144532 3.355469 7.5 7.5 7.5h2.535156v11.460938c0 6.894531 5.609375 12.5 12.5 12.5h1.316406v23.136718c0 9.648438 7.851563 17.5 17.5 17.5v16.257813h-28.851562c-6.894531 0-12.5 5.605469-12.5 12.5v21.257813c0 6.890624 5.605469 12.5 12.5 12.5h414.5c4.144531 0 7.5-3.359376 7.5-7.5 0-4.144532-3.355469-7.5-7.5-7.5h-412v-16.257813h482v16.257813h-34c-4.144531 0-7.5 3.355468-7.5 7.5 0 4.140624 3.355469 7.5 7.5 7.5h36.5c6.894531 0 12.5-5.609376 12.5-12.5v-21.257813c0-3.566406-1.511719-6.78125-3.914062-9.0625zm-70.179688-307.058594c2.980469 0 5.398438 2.40625 5.398438 5.367188v15.574219c0 2.957031-2.421876 5.363281-5.398438 5.363281h-2.523438c.015626-.59375.046876-1.183594.046876-1.78125v-24.523438zm-159.507812 26.304688c-2.976563 0-5.398438-2.40625-5.398438-5.363281v-15.574219c0-2.957031 2.421875-5.367188 5.398438-5.367188h3.460937v24.523438c0 .597656.03125 1.1875.046875 1.78125zm14.800781-81.8125c-8.261719-4.925781-13.394531-13.953125-13.394531-23.5625 0-15.109375 12.273437-27.402344 27.359374-27.402344 4.878907 0 9.671876 1.304687 13.859376 3.777344 1.980468 1.167969 4.382812 1.363281 6.523437.535156 2.140625-.832031 3.78125-2.59375 4.457031-4.789063 3.554688-11.554687 14.0625-19.320312 26.148438-19.320312 12.085937 0 22.59375 7.765625 26.148437 19.320312.675781 2.195313 2.316407 3.957032 4.460938 4.789063 2.140625.828125 4.542969.632813 6.519531-.535156 4.191406-2.472657 8.980469-3.777344 13.859375-3.777344 15.085937 0 27.355469 12.292969 27.355469 27.402344 0 9.378906-4.71875 18.007812-12.621094 23.082031-2.148438 1.378906-3.449219 3.757812-3.449219 6.3125v25.210938h-123.566406v-24.601563c0-2.640625-1.386719-5.085937-3.660156-6.441406zm3.660156 80.03125v-33.988281h123.566406v33.988281c0 29.53125-24.09375 53.5625-53.710937 53.5625h-16.140625c-29.617188-.003907-53.714844-24.03125-53.714844-53.5625zm-171.191406 109.472656c0-.460937.371093-.832031.824219-.832031h41.621093c.457031 0 .824219.375.824219.832031v10.777344h-43.269531zm-57.292969 44.902344c13.488281-12.332031 30.984375-19.125 49.265625-19.125h59.328125c18.277344 0 35.773438 6.792969 49.261719 19.125 8.769531 8.019531 15.363281 17.929687 19.363281 28.867187h-196.578125c4-10.9375 10.59375-20.847656 19.359375-28.867187zm-43.339844 52.828125v-8.960938h244.535156v8.960938zm37.101563 71.894531h-5.785157v-16.257813h5.785157zm176.121093 0h-5.785156v-16.257813h5.785156zm-109.257812-31.257813c-4.144531 0-7.5 3.359376-7.5 7.5 0 4.140626 3.355469 7.5 7.5 7.5h88.472656v16.257813h-140.335937v-16.257813h16.863281c4.144531 0 7.5-3.359374 7.5-7.5 0-4.140624-3.355469-7.5-7.5-7.5h-52.644531c-1.355469 0-2.5-1.144531-2.5-2.5v-23.136718h216.898437v23.136718c0 1.355469-1.144531 2.5-2.5 2.5zm182.285156-120.78125v152.039063h-58.027344v-16.257813c9.648438 0 17.496094-7.851562 17.496094-17.5v-23.136718h1.316406c6.894532 0 12.5-5.605469 12.5-12.5v-11.460938h2.535157c4.144531 0 7.5-3.355468 7.5-7.5 0-4.140625-3.355469-7.5-7.5-7.5h-25.738281c-2.664063-8.96875-6.738282-17.445312-12.078126-25.128906v-38.632812c0-2.714844 2.535157-6.570313 5.023438-7.640626l56.648438-24.355468c8.035156-3.457032 14.097656-12.664063 14.097656-21.421875v-2.40625c4.191406 1.679687 8.589844 2.949219 13.140625 3.78125l9.234375 9.507812-26.671875 27.015625c-5.402344 5.472656-9.476563 15.402344-9.476563 23.097656zm180.203125 152.039063h-97.300781c-1.511719-1.167969-2.789062-2.625-3.757812-4.304687h104.816406c-.964844 1.679687-2.246094 3.136718-3.757813 4.304687zm-2.441406-19.304687h-92.414063c-2.585937-1.289063-4.746093-3.316407-6.203124-5.835938h104.820312c-1.457031 2.519531-3.617188 4.546875-6.203125 5.835938zm0-20.835938h-92.414063c-2.585937-1.292969-4.746093-3.316406-6.203124-5.839844h104.820312c-1.457031 2.523438-3.617188 4.546875-6.203125 5.839844zm0-20.839844h-92.414063c-2.585937-1.289062-4.746093-3.316406-6.203124-5.835937h104.820312c-1.457031 2.519531-3.617188 4.546875-6.203125 5.835937zm0 0"/><path d="m131.132812 189.703125h17.941407c9.152343 0 16.601562 7.460937 16.601562 16.632813 0 9.167968-7.449219 16.628906-16.601562 16.628906h-17.488281c-4.144532 0-7.5 3.359375-7.5 7.5 0 4.144531 3.355468 7.5 7.5 7.5h17.488281c17.421875 0 31.601562-14.1875 31.601562-31.628906 0-17.441407-14.179687-31.632813-31.601562-31.632813h-17.941407c-4.144531 0-7.5 3.359375-7.5 7.5 0 4.144531 3.355469 7.5 7.5 7.5zm0 0"/><path d="m82.105469 189.703125h21.050781c4.140625 0 7.5-3.355469 7.5-7.5 0-4.140625-3.359375-7.5-7.5-7.5h-21.050781c-10.714844 0-19.433594-8.730469-19.433594-19.46875 0-10.734375 8.71875-19.46875 19.433594-19.46875h23.765625c4.144531 0 7.5-3.359375 7.5-7.5 0-4.144531-3.355469-7.5-7.5-7.5h-23.765625c-18.988281 0-34.433594 15.460937-34.433594 34.46875s15.445313 34.46875 34.433594 34.46875zm0 0"/><path d="m134.035156 148.882812c4.144532 0 7.5-3.359374 7.5-7.5v-4.351562c0-5.964844 4.84375-10.816406 10.796875-10.816406h43.332031c16.175782 0 29.335938-13.171875 29.335938-29.363282 0-16.191406-13.160156-29.363281-29.335938-29.363281h-15.066406c-4.144531 0-7.5 3.355469-7.5 7.5 0 4.140625 3.355469 7.5 7.5 7.5h15.066406c7.902344 0 14.335938 6.441407 14.335938 14.363281 0 7.917969-6.433594 14.363282-14.335938 14.363282h-43.332031c-14.222656 0-25.796875 11.582031-25.796875 25.816406v4.351562c0 4.140626 3.359375 7.5 7.5 7.5zm0 0"/></svg>