<?xml version="1.0" encoding="iso-8859-1"?>
<!-- Generator: Adobe Illustrator 19.0.0, SVG Export Plug-In . SVG Version: 6.00 Build 0)  -->
<svg version="1.1" id="Layer_1" xmlns="http://www.w3.org/2000/svg" xmlns:xlink="http://www.w3.org/1999/xlink" x="0px" y="0px"
	 viewBox="0 0 512.001 512.001" style="enable-background:new 0 0 512.001 512.001;" xml:space="preserve">
<polygon style="fill:#ADD9FF;" points="289.699,349.012 289.699,308.438 381.118,308.438 381.118,381.198 "/>
<rect x="289.694" y="349.01" style="fill:#C8E6FF;" width="126.638" height="120.353"/>
<path style="fill:#94C8EF;" d="M336.162,145.04h-55.749v44.743l55.748-0.354c21.872,0,39.668,17.795,39.668,39.668v265.33
	l44.388-29.111v-236.22C420.217,182.673,382.584,145.04,336.162,145.04z"/>
<rect x="225.084" y="219.278" style="fill:#C8E6FF;" width="65.105" height="37.91"/>
<rect x="227.089" y="7.92" style="fill:#94C8EF;" width="62.246" height="54.468"/>
<rect x="211.544" y="40.849" style="fill:#7AB6DE;" width="89.807" height="178.437"/>
<g>
	<path style="fill:#4693BD;" d="M418.039,441.988c-25.726,0-46.655-20.93-46.655-46.655c0-25.725,20.929-46.655,46.655-46.655
		c25.726,0,46.655,20.93,46.655,46.655S443.765,441.988,418.039,441.988z"/>
	<path style="fill:#4693BD;" d="M81.458,470.233c-17.882,0-32.379,14.496-32.379,32.379l369.986,0.545v-32.924H81.458z"/>
</g>
<g>
	<path style="fill:#1D2328;" d="M212.383,16.34h89.477c4.512,0,8.17-3.658,8.17-8.17S306.372,0,301.859,0h-89.477
		c-4.512,0-8.17,3.658-8.17,8.17S207.87,16.34,212.383,16.34z"/>
	<path style="fill:#1D2328;" d="M451.408,495.66h-25.121v-48.112c25.87-3.949,45.753-26.348,45.753-53.305
		c0-26.956-19.883-49.356-45.753-53.305V227.606c0-50.854-41.373-92.226-92.226-92.226H310.03V40.851c0-4.512-3.658-8.17-8.17-8.17
		h-89.477c-4.512,0-8.17,3.658-8.17,8.17v170.262h-2.723c-4.512,0-8.17,3.658-8.17,8.17c0,4.512,3.658,8.17,8.17,8.17h14.909v29.74
		c0,4.512,3.658,8.17,8.17,8.17h65.105c4.512,0,8.17-3.658,8.17-8.17v-29.74h14.91c4.512,0,8.17-3.658,8.17-8.17
		c0-4.512-3.658-8.17-8.17-8.17h-2.723V151.72h24.031c41.843,0,75.886,34.041,75.886,75.886v113.332
		c-25.87,3.949-45.753,26.348-45.753,53.305c0,26.956,19.883,49.356,45.753,53.305v48.113H57.719
		c3.359-9.341,12.307-16.039,22.789-16.039h304.928c4.512,0,8.17-3.658,8.17-8.17s-3.658-8.17-8.17-8.17h-87.593V319.832h67.715
		v2.723c0,4.512,3.658,8.17,8.17,8.17c4.512,0,8.17-3.658,8.17-8.17v-94.95c0-26.378-21.46-47.838-47.838-47.838
		c-4.512,0-8.17,3.658-8.17,8.17s3.658,8.17,8.17,8.17c17.368,0,31.498,14.13,31.498,31.498v75.886H167.745
		c-4.512,0-8.17,3.658-8.17,8.17c0,4.512,3.658,8.17,8.17,8.17h113.758v109.614h-56.934c-4.512,0-8.17,3.658-8.17,8.17
		s3.658,8.17,8.17,8.17h56.934v17.495H80.509c-22.358,0-40.548,18.19-40.548,40.549c0,4.512,3.658,8.17,8.17,8.17h403.277
		c4.512,0,8.17-3.658,8.17-8.17S455.92,495.66,451.408,495.66z M281.503,249.024h-48.764v-21.569h48.764V249.024z M220.553,211.113
		V49.021h73.136v162.092H220.553z M380.534,394.242c0-20.721,16.856-37.579,37.576-37.583c0.002,0,0.004,0,0.007,0s0.004,0,0.007,0
		c20.72,0.003,37.576,16.862,37.576,37.583c0,20.723-16.86,37.583-37.583,37.583C397.393,431.825,380.534,414.966,380.534,394.242z"
		/>
</g>
<g>
</g>
<g>
</g>
<g>
</g>
<g>
</g>
<g>
</g>
<g>
</g>
<g>
</g>
<g>
</g>
<g>
</g>
<g>
</g>
<g>
</g>
<g>
</g>
<g>
</g>
<g>
</g>
<g>
</g>
</svg>
