<svg height="512" viewBox="0 0 60 60" width="512" xmlns="http://www.w3.org/2000/svg"><g id="032---Improved-Mental-Health" fill="none" fill-rule="evenodd"><g id="Layer_3" transform="translate(1)"><path id="Shape" d="m43 14 2 2 6-8" stroke="#000" stroke-linecap="round" stroke-linejoin="round" stroke-width="2"/><g fill-rule="nonzero"><path id="Shape" d="m45.14 37.71c-1.2717059 2.9241677-1.7477888 6.1325525-1.38 9.3.2251005 2.0621875.6333794 4.1002353 1.22 6.09.3114798 1.0302921.70611 2.0335892 1.18 3 .2266484.4493031.4874126.880567.78 1.29.1976945.3126654.2125372.7073333.0388853 1.0339643s-.5091256.5350548-.8788853.5460357h-22.61c-.43359.0156841-.8251719-.2576074-.96-.67-.51-1.66-2.01-5.77-4.72-7-2.8490329 1.0371788-5.7535125 1.9151997-8.7 2.63-1.42829941.3054033-2.84225874-.5739027-3.2-1.99-.26996768-.710366-.36930207-1.4742133-.29-2.23.23373353-.770233.31525045-1.578609.24-2.38-.26-1.01-1.23-1.26-1.98-1.8-.62-.44.49-1.85.49-1.85s-1.17-.88-1.6-1.25.18-.98.73-2.15c.22694079-.5080204.29323378-1.0732554.19-1.62-.2-1.07-1.83-1.47-2.63-2.07-.37-.28-.98-.7-1.05-1.21-.1-.71.73-1.71 1.14-2.21 1.74602057-2.2433313 3.23530279-4.6751548 4.44-7.25.16449211-.2694045.26061668-.5749433.28-.89-.03-1.43-2.07-2.02-2.27-3.41-.02977445-.4079441.04239212-.816888.21-1.19.57239348-1.2275971 1.06671007-2.4901084 1.48-3.78.23804444-1.185596.55202463-2.3546712.94-3.5.83859812-2.3003324 2.13083757-4.40872311 3.8-6.2 2.44-2.59 6.05-3.87 9.46-4.55 3.1317619-.69119864 6.3104843-1.14912185 9.51-1.37 3.8630441-.22644569 7.716312.58495033 11.16 2.35-1.5521965 1.23349883-2.7410153 2.8646688-3.44 4.72-2.7098214-1.35217028-5.691698-2.07028277-8.72-2.1-9.11 0-17 6.6-17 13.5s7.39 8.5 16.5 8.5h.49c2.2114453-.0016591 4.0061374 1.7885575 4.01 4-.0013301 1.0566314.4755731 2.0571094 1.297242 2.7214375.821669.664328 1.8998344.9211396 2.932758.6985625 1.6393628-.3709651 2.7949001-1.8393735 2.77-3.52v-1.47c.0052631-1.9314814 1.1225342-3.687193 2.87-4.51 1.4520776-.6128515 2.6637297-1.6840222 3.45-3.05.5555547.0887639 1.1174033.1322403 1.68.13 1.7339006.0023784 3.4437785-.4053881 4.99-1.19.01.42.02.83.01 1.24-.0252405 2.7307662-.8188544 5.3992498-2.29 7.7-1.49 2.35-3.44 4.39-4.57 6.96z" fill="#ffe0b2"/><path id="Shape" d="m45.5 22.891c-.058-.009-.117-.012-.175-.021-.01.019-.025.035-.035.054.066-.009.135-.024.21-.033z" fill="#dfc49c"/><path id="Shape" d="m49.71 30.75c1.4711456-2.3007502 2.2647595-4.9692338 2.29-7.7.01-.41 0-.82-.01-1.24-.9440175.4717182-1.9510042.8051352-2.99.99v.25c-.0252405 2.7307662-.8188544 5.3992498-2.29 7.7-1.49 2.35-3.44 4.39-4.57 6.96-1.2717059 2.9241677-1.7477888 6.1325525-1.38 9.3.2251005 2.0621875.6333794 4.1002353 1.22 6.09.3114798 1.0302921.70611 2.0335892 1.18 3 .2266484.4493031.4874126.880567.78 1.29.1976945.3126654.2125372.7073333.0388853 1.0339643s-.5091256.5350548-.8788853.5460357h3c.3697597-.0109809.7052334-.2194047.8788853-.5460357s.1588092-.7212989-.0388853-1.0339643c-.2925874-.409433-.5533516-.8406969-.78-1.29-.47389-.9664108-.8685202-1.9697079-1.18-3-.5866206-1.9897647-.9948995-4.0278125-1.22-6.09-.3677888-3.1674475.1082941-6.3758323 1.38-9.3 1.13-2.57 3.08-4.61 4.57-6.96z" fill="#dfc49c"/><path id="Shape" d="m45.32 22.87c-.7862703 1.3659778-1.9979224 2.4371485-3.45 3.05-1.7474658.822807-2.8647369 2.5785186-2.87 4.51v1.47c.0249001 1.6806265-1.1306372 3.1490349-2.77 3.52-1.0329236.2225771-2.111089-.0342345-2.932758-.6985625-.8216689-.6643281-1.2985721-1.6648061-1.297242-2.7214375-.0038626-2.2114425-1.7985547-4.0016591-4.01-4h-.49c-9.11 0-16.5-1.6-16.5-8.5s7.89-13.5 17-13.5c3.028302.02971723 6.0101786.74782972 8.72 2.1-.479505 1.24417821-.7236489 2.5666241-.72 3.9-.0050384 5.4281313 3.9547087 10.04642 9.32 10.87z" fill="#f44335"/><path id="Shape" d="m58 12c.0048625 4.1385964-2.3190111 7.927941-6.01 9.8v.01c-1.5462215.7846119-3.2560994 1.1923784-4.99 1.19-.5625967.0022403-1.1244453-.0412361-1.68-.13-5.3652913-.82358-9.3250384-5.4418687-9.32-10.87-.0036489-1.3333759.240495-2.65582179.72-3.9 1.887719-4.95771419 7.0449259-7.86184771 12.2629599-6.90553508s9.0101643 5.50059721 9.0170401 10.80553508z" fill="#60a917"/><path id="Shape" d="m47 1c-.5056337.0027745-1.010483.0401955-1.511.112 4.7639443.64768908 8.5540378 4.31651848 9.3562441 9.056891.8022064 4.7403726-1.5696773 9.4519844-5.8552441 11.631109v.01c-1.0980469.5534232-2.2811142.918822-3.5 1.081.5000769.0724165 1.004707.1088434 1.51.109 1.7339006.0023784 3.4437785-.4053881 4.99-1.19v-.01c4.5297366-2.3092386 6.8866098-7.4220203 5.7004985-12.36613161s-5.6061019-8.4310973-10.6904985-8.43386839z" fill="#549414"/><path id="Shape" d="m32 16v2c0 .5522847-.4477153 1-1 1h-2.5c-.2761424 0-.5.2238576-.5.5v2.5c0 .5522847-.4477153 1-1 1h-2c-.5522847 0-1-.4477153-1-1v-2.5c0-.2761424-.2238576-.5-.5-.5h-2.5c-.5522847 0-1-.4477153-1-1v-2c0-.5522847.4477153-1 1-1h2.5c.2761424 0 .5-.2238576.5-.5v-2.5c0-.5522847.4477153-1 1-1h2c.5522847 0 1 .4477153 1 1v2.5c0 .2761424.2238576.5.5.5h2.5c.5522847 0 1 .4477153 1 1z" fill="#f5f5f5"/></g></g><g id="Layer_12" fill="#000" fill-rule="nonzero" transform="translate(-1)"><path id="Shape" d="m52.2 7.4-5.308 7.078-1.185-1.185c-.3923789-.3789722-1.0160848-.3735524-1.4018186.0121814s-.3911536 1.0094397-.0121814 1.4018186c2.18 2.18 2.168 2.293 2.707 2.293.3147573 0 .6111456-.1481942.8-.4l6-8c.3313708-.4418278.2418278-1.06862915-.2-1.4s-1.0686292-.2418278-1.4.2z"/><path id="Shape" d="m42.057 2.231c-6.878-3.255-12.892-2.416-20.763-.81-4.5.9-7.765 2.481-9.992 4.844-1.76412633 1.88852304-3.12843062 4.1140635-4.011 6.543-.37813658 1.1017488-.68477386 2.2267536-.918 3.368-.522 2.3-1.985 4.038-1.763 5.588.249 1.74 2.264 2.543 2.26 3.287-1.21342803 2.6747907-2.73218833 5.2002415-4.526 7.526-2 2.44-1.619 3.526.117 4.816.706.526 2.17 1.049 2.246 1.453.06547962.6605206-.13134283 1.3203068-.548 1.837-1.021 1.818-.521 2.164.872 3.237-.55542048.7550718-.43839846 1.81001.269 2.425.706.505 1.468.737 1.592 1.232.236.934-.844 2.056.075 4.694.51567129 1.8965911 2.42614715 3.057292 4.347 2.641 2.8506942-.6875883 5.6615737-1.5308522 8.42-2.526 2.189 1.292 3.485 5.042 3.843 6.206.2622872.8297322 1.0378972 1.3890819 1.908 1.376h22.615c.7368102-.0099744 1.4099193-.4197929 1.7570631-1.0697775s.3134079-1.4373149-.0880631-2.0552225c-1.856-2.824-2.613-6.6-3.02-9.951-.3514397-2.9894906.0971775-6.0186917 1.3-8.778 2.125-4.82 7.051-7.314 6.951-15.734 3.8226848-2.2108638 6.1202144-6.3444487 5.9796157-10.7581852-.1405988-4.41373649-2.6965526-8.39271463-6.6521979-10.35580114-3.9556452-1.96308651-8.6702707-1.59231273-12.2704178.96498634zm4.166 35.083c-1.3459172 3.086068-1.848366 6.4741462-1.456 9.818.925 7.619 2.806 9.714 3.333 10.855h-22.613c-.650992-2.3735968-1.856011-4.5588075-3.516-6.376.27-.094 2.047-.717 2.331-.808 4.271-1.354 6.406-3.3 6.347-5.8-.0129787-.5522847-.4712153-.9894787-1.0235-.9765s-.9894787.4712153-.9765 1.0235c.024 1.03-.815 2.532-4.952 3.844-1.727.547-8.969 3.268-12.793 4.056-.93249957.1761712-1.83776144-.4152724-2.051-1.34-.771-2.213.435-2.7-.024-4.526-.294-1.166-1.116-1.617-2.058-2.17.295-.619.666-.777.589-1.366-.074-.561-.382-.627-1.613-1.609.74955557-.9896128 1.08161271-2.2334808.925-3.465-.308-1.639-2.249-2.116-3.078-2.733-.21083485-.1452774-.40949115-.30748-.594-.485 0-.152.162-.521.923-1.452 1.78952618-2.3007756 3.31821413-4.7930266 4.558-7.431.24091312-.4141665.37430172-.882058.388-1.361-.10609677-1.0000942-.63490898-1.9070453-1.453-2.492-1.01-.934-.926-1.052-.669-1.738.59709687-1.2657663 1.10435057-2.5719947 1.518-3.909.23076839-1.1416737.5313325-2.2681212.9-3.373.78947269-2.1764519 2.010957-4.17076061 3.591-5.863 1.905-2.022 4.909-3.454 8.931-4.256 6.946-1.416 12.575-2.321 18.7.282-.8829493.91472894-1.615668 1.96335019-2.171 3.107-12.849-5.581-26.216 3.313-26.216 12.73 0 8.427 9.635 9.5 17.99 9.5 1.6589339-.0011089 3.0055883 1.3410716 3.01 3 .0276142 2.4852814 2.0647186 4.4776142 4.55 4.45s4.4776142-2.0647186 4.45-4.55v-1.47c.0101792-1.5443113.9041363-2.9462691 2.3-3.607 1.4094888-.6254117 2.6226651-1.6218754 3.51-2.883 1.7510955.1766538 3.5195353-.0403012 5.176-.635-.252 6.886-4.586 9.056-6.763 14.009zm-.623-13.814c-.6236765.6311216-1.3565037 1.1440668-2.163 1.514-2.0910124.9951233-3.4269551 3.1002923-3.437 5.416v1.47c.0279517 1.2083175-.7971582 2.2698892-1.975 2.541-.7381439.1612339-1.5095819-.0209832-2.0975694-.495455-.5879874-.4744719-.9290752-1.1899988-.9274306-1.945545-.0060648-2.7628118-2.2471816-4.9994553-5.01-5-7.029 0-15.99-.584-15.99-7.5 0-8.087 11.938-15.935 23.489-10.864-1.854975 6.3433152 1.7728275 12.9915283 8.111 14.864zm3.4-1.5c-5.5228475 0-10-4.4771525-10-10s4.4771525-10 10-10 10 4.4771525 10 10c-.0060624 5.5203344-4.4796656 9.9939376-10 10z"/><path id="Shape" d="m33 14h-2v-2c0-1.1045695-.8954305-2-2-2h-2c-1.1045695 0-2 .8954305-2 2v2h-2c-1.1045695 0-2 .8954305-2 2v2c0 1.1045695.8954305 2 2 2h2v2c0 1.1045695.8954305 2 2 2h2c1.1045695 0 2-.8954305 2-2v-2h2c1.1045695 0 2-.8954305 2-2v-2c0-1.1045695-.8954305-2-2-2zm0 4h-2.5c-.8284271 0-1.5.6715729-1.5 1.5v2.5h-2v-2.5c0-.8284271-.6715729-1.5-1.5-1.5h-2.5v-2h2.5c.8284271 0 1.5-.6715729 1.5-1.5v-2.5h2v2.5c0 .8284271.6715729 1.5 1.5 1.5h2.5z"/></g></g></svg>