<?xml version="1.0" encoding="iso-8859-1"?>
<!-- Generator: Adobe Illustrator 19.0.0, SVG Export Plug-In . SVG Version: 6.00 Build 0)  -->
<svg version="1.1" id="Layer_1" xmlns="http://www.w3.org/2000/svg" xmlns:xlink="http://www.w3.org/1999/xlink" x="0px" y="0px"
	 viewBox="0 0 512 512" style="enable-background:new 0 0 512 512;" xml:space="preserve">
<path style="fill:#FF5959;" d="M395.004,480.126V36.751c0-9.242-7.563-16.803-16.804-16.803H133.793
	c-9.243,0-16.804,7.563-16.804,16.803v443.375L395.004,480.126L395.004,480.126z"/>
<rect x="116.993" y="420.839" style="fill:#F2D383;" width="278.019" height="59.285"/>
<rect x="346.46" y="377.431" style="opacity:0.2;enable-background:new    ;" width="48.542" height="23.361"/>
<rect x="116.993" y="311.604" style="opacity:0.2;enable-background:new    ;" width="48.542" height="23.361"/>
<rect x="209.017" y="188.652" style="opacity:0.2;enable-background:new    ;" width="48.542" height="23.361"/>
<rect x="336.658" y="151.013" style="opacity:0.2;enable-background:new    ;" width="48.542" height="23.361"/>
<rect x="242.549" y="132.839" style="opacity:0.2;enable-background:new    ;" width="48.541" height="23.361"/>
<rect x="132.839" y="121.153" style="opacity:0.2;enable-background:new    ;" width="48.542" height="23.361"/>
<rect x="257.559" y="266.333" style="opacity:0.2;enable-background:new    ;" width="48.542" height="23.361"/>
<rect x="176.141" y="409.164" style="opacity:0.2;enable-background:new    ;" width="48.542" height="23.361"/>
<rect x="209.017" y="420.839" style="fill:#A4A9AD;" width="93.961" height="59.285"/>
<path style="fill:#FFFFFF;" d="M302.977,420.841v-17.94c0-6.162-5.042-11.205-11.203-11.205h-71.555
	c-6.161,0-11.203,5.043-11.203,11.205v17.94H302.977z"/>
<rect x="116.993" y="104.535" style="opacity:0.2;enable-background:new    ;" width="278.019" height="23.9"/>
<path style="fill:#F2D383;" d="M414.972,108.83c0,3.08-2.52,5.603-5.601,5.603H102.63c-3.081,0-5.601-2.522-5.601-5.603V76.316
	c0-3.08,2.52-5.6,5.601-5.6H409.37c3.081,0,5.601,2.52,5.601,5.6V108.83z"/>
<path style="fill:#FFFFFF;" d="M191.394,230.385c0,6.162-5.042,11.203-11.203,11.203h-17.925c-6.161,0-11.203-5.04-11.203-11.203
	v-44.814c0-6.16,5.042-11.203,11.203-11.203h17.925c6.161,0,11.203,5.043,11.203,11.203V230.385z"/>
<path style="opacity:0.2;enable-background:new    ;" d="M180.192,174.369h-17.925c-6.161,0-11.203,5.043-11.203,11.203v17.365
	c0-6.16,5.042-11.203,11.203-11.203h17.925c6.161,0,11.203,5.043,11.203,11.203v-17.365
	C191.394,179.411,186.354,174.369,180.192,174.369z"/>
<path style="fill:#FFFFFF;" d="M276.162,230.385c0,6.162-5.042,11.203-11.203,11.203h-17.925c-6.161,0-11.203-5.04-11.203-11.203
	v-44.814c0-6.16,5.042-11.203,11.203-11.203h17.925c6.161,0,11.203,5.043,11.203,11.203V230.385z"/>
<path style="opacity:0.2;enable-background:new    ;" d="M264.958,174.369h-17.925c-6.161,0-11.203,5.043-11.203,11.203v17.365
	c0-6.16,5.042-11.203,11.203-11.203h17.925c6.161,0,11.203,5.043,11.203,11.203v-17.365
	C276.162,179.411,271.121,174.369,264.958,174.369z"/>
<path style="fill:#FFFFFF;" d="M360.929,230.385c0,6.162-5.042,11.203-11.203,11.203H331.8c-6.161,0-11.203-5.04-11.203-11.203
	v-44.814c0-6.16,5.042-11.203,11.203-11.203h17.925c6.161,0,11.203,5.043,11.203,11.203v44.814H360.929z"/>
<path style="opacity:0.2;enable-background:new    ;" d="M349.725,174.369H331.8c-6.161,0-11.203,5.043-11.203,11.203v17.365
	c0-6.16,5.042-11.203,11.203-11.203h17.925c6.161,0,11.203,5.043,11.203,11.203v-17.365
	C360.929,179.411,355.888,174.369,349.725,174.369z"/>
<rect x="163.291" y="19.948" style="opacity:0.2;enable-background:new    ;" width="15.877" height="32.306"/>
<rect x="204.741" y="19.948" style="opacity:0.2;enable-background:new    ;" width="15.877" height="32.306"/>
<rect x="291.377" y="19.948" style="opacity:0.2;enable-background:new    ;" width="15.877" height="32.306"/>
<rect x="248.064" y="19.948" style="opacity:0.2;enable-background:new    ;" width="15.877" height="32.306"/>
<rect x="332.827" y="19.948" style="opacity:0.2;enable-background:new    ;" width="15.877" height="32.306"/>
<path style="fill:#FFFFFF;" d="M191.394,339.057c0,6.16-5.042,11.203-11.203,11.203h-17.925c-6.161,0-11.203-5.043-11.203-11.203
	v-44.814c0-6.16,5.042-11.203,11.203-11.203h17.925c6.161,0,11.203,5.043,11.203,11.203V339.057z"/>
<path style="opacity:0.2;enable-background:new    ;" d="M180.192,283.04h-17.925c-6.161,0-11.203,5.043-11.203,11.203v17.365
	c0-6.162,5.042-11.203,11.203-11.203h17.925c6.161,0,11.203,5.04,11.203,11.203v-17.365
	C191.394,288.083,186.354,283.04,180.192,283.04z"/>
<path style="fill:#FFFFFF;" d="M276.162,339.057c0,6.16-5.042,11.203-11.203,11.203h-17.925c-6.161,0-11.203-5.043-11.203-11.203
	v-44.814c0-6.16,5.042-11.203,11.203-11.203h17.925c6.161,0,11.203,5.043,11.203,11.203V339.057z"/>
<path style="opacity:0.2;enable-background:new    ;" d="M264.958,283.04h-17.925c-6.161,0-11.203,5.043-11.203,11.203v17.365
	c0-6.162,5.042-11.203,11.203-11.203h17.925c6.161,0,11.203,5.04,11.203,11.203v-17.365
	C276.162,288.083,271.121,283.04,264.958,283.04z"/>
<path style="fill:#FFFFFF;" d="M360.929,339.057c0,6.16-5.042,11.203-11.203,11.203H331.8c-6.161,0-11.203-5.043-11.203-11.203
	v-44.814c0-6.16,5.042-11.203,11.203-11.203h17.925c6.161,0,11.203,5.043,11.203,11.203v44.814H360.929z"/>
<path style="opacity:0.2;enable-background:new    ;" d="M349.725,283.04H331.8c-6.161,0-11.203,5.043-11.203,11.203v17.365
	c0-6.162,5.042-11.203,11.203-11.203h17.925c6.161,0,11.203,5.04,11.203,11.203v-17.365
	C360.929,288.083,355.888,283.04,349.725,283.04z"/>
<path style="fill:#A4A9AD;" d="M504.061,487.777c0,2.351-1.922,4.275-4.275,4.275H12.214c-2.352,0-4.275-1.924-4.275-4.275v-15.302
	c0-2.353,1.923-4.277,4.275-4.277h487.573c2.353,0,4.275,1.924,4.275,4.277V487.777z"/>
<rect x="102.693" y="468.195" style="fill:#333E48;" width="306.608" height="23.855"/>
<g>
	<path style="fill:#00AD68;" d="M133.852,468.197c0-22.081-17.902-39.984-39.984-39.984s-39.984,17.903-39.984,39.984H133.852z"/>
	<path style="fill:#00AD68;" d="M378.14,468.197c0-22.081,17.902-39.984,39.984-39.984c22.082,0,39.984,17.903,39.984,39.984H378.14
		z"/>
</g>
<path style="fill:#1E252B;" d="M180.192,275.102h-17.925c-10.555,0-19.141,8.586-19.141,19.141v44.814
	c0,10.555,8.586,19.141,19.141,19.141h17.925c10.555,0,19.141-8.586,19.141-19.141v-44.814
	C199.333,283.689,190.747,275.102,180.192,275.102z M183.456,339.057c0,1.77-1.495,3.264-3.264,3.264h-17.925
	c-1.77,0-3.264-1.495-3.264-3.264v-44.814c0-1.77,1.495-3.264,3.264-3.264h17.925c1.77,0,3.264,1.495,3.264,3.264V339.057z
	 M264.958,275.102h-17.925c-10.555,0-19.141,8.586-19.141,19.141v44.814c0,10.555,8.586,19.141,19.141,19.141h17.925
	c10.555,0,19.141-8.586,19.141-19.141v-44.814C284.101,283.689,275.514,275.102,264.958,275.102z M268.224,339.057
	c0,1.77-1.496,3.264-3.264,3.264h-17.925c-1.77,0-3.264-1.495-3.264-3.264v-44.814c0-1.77,1.495-3.264,3.264-3.264h17.925
	c1.77,0,3.264,1.495,3.264,3.264V339.057z M331.8,358.198h17.925c10.555,0,19.141-8.586,19.141-19.141v-44.814
	c0-10.555-8.587-19.141-19.141-19.141H331.8c-10.555,0-19.141,8.586-19.141,19.141v44.814
	C312.659,349.612,321.246,358.198,331.8,358.198z M328.536,294.243c0-1.77,1.495-3.264,3.264-3.264h17.925
	c1.77,0,3.264,1.495,3.264,3.264v44.814c0,1.77-1.496,3.264-3.264,3.264H331.8c-1.77,0-3.264-1.495-3.264-3.264V294.243z
	 M499.786,460.259h-34.409c-3.795-22.658-23.533-39.984-47.253-39.984c-5.306,0-10.408,0.88-15.182,2.479V122.371h6.428
	c7.466,0,13.54-6.075,13.54-13.541V76.316c0-7.465-6.074-13.539-13.54-13.539h-6.428V36.751c0-13.643-11.1-24.742-24.743-24.742
	H133.793c-13.644,0-24.743,11.099-24.743,24.742v26.026h-6.421c-7.466,0-13.54,6.074-13.54,13.539v32.515
	c0,7.466,6.074,13.541,13.54,13.541h6.421v300.382c-4.775-1.6-9.877-2.48-15.183-2.48c-23.719,0-43.459,17.326-47.253,39.984h-34.4
	C5.479,460.259,0,465.739,0,472.474v15.302c0,6.734,5.479,12.214,12.214,12.214h487.573c6.735,0,12.214-5.48,12.214-12.214v-15.302
	C512,465.739,506.521,460.259,499.786,460.259z M418.124,436.152c14.931,0,27.508,10.264,31.049,24.107h-62.099
	C390.616,446.416,403.193,436.152,418.124,436.152z M124.928,36.751c0-4.888,3.978-8.865,8.866-8.865h244.405
	c4.889,0,8.866,3.977,8.866,8.865v26.026H124.928V36.751z M104.967,106.494v-27.84h302.066v27.841H104.967V106.494z
	 M291.773,383.757h-71.555c-10.555,0-19.141,8.587-19.141,19.144v57.358H141.12c-1.9-11.346-7.797-21.347-16.193-28.513V122.371
	h38.363v15.402c0,4.385,3.554,7.939,7.939,7.939s7.939-3.553,7.939-7.939v-15.402h68.89v15.402c0,4.385,3.554,7.939,7.939,7.939
	c4.384,0,7.939-3.553,7.939-7.939v-15.402h68.89v15.402c0,4.385,3.554,7.939,7.939,7.939c4.384,0,7.939-3.553,7.939-7.939v-15.402
	h38.363v309.374c-8.397,7.165-14.294,17.167-16.194,28.513h-59.956v-57.358C310.915,392.345,302.328,383.757,291.773,383.757z
	 M295.038,402.901v57.358h-78.085v-57.358c0-1.771,1.495-3.266,3.264-3.266h71.555C293.543,399.634,295.038,401.13,295.038,402.901z
	 M93.868,436.152c14.931,0,27.508,10.264,31.049,24.107H62.818C66.359,446.416,78.937,436.152,93.868,436.152z M94.756,484.113
	H15.877v-7.978h78.879V484.113z M401.366,484.113H110.633v-7.978h290.733V484.113z M496.123,484.113h-78.879v-7.978h78.879V484.113z
	 M264.958,166.43h-17.925c-10.555,0-19.141,8.586-19.141,19.141v44.814c0,10.555,8.586,19.141,19.141,19.141h17.925
	c10.555,0,19.141-8.586,19.141-19.141v-44.814C284.101,175.018,275.514,166.43,264.958,166.43z M268.224,230.385
	c0,1.77-1.496,3.264-3.264,3.264h-17.925c-1.77,0-3.264-1.495-3.264-3.264v-44.814c0-1.77,1.495-3.264,3.264-3.264h17.925
	c1.77,0,3.264,1.495,3.264,3.264V230.385z M180.192,166.43h-17.925c-10.555,0-19.141,8.586-19.141,19.141v44.814
	c0,10.555,8.586,19.141,19.141,19.141h17.925c10.555,0,19.141-8.586,19.141-19.141v-44.814
	C199.333,175.018,190.747,166.43,180.192,166.43z M183.456,230.385c0,1.77-1.495,3.264-3.264,3.264h-17.925
	c-1.77,0-3.264-1.495-3.264-3.264v-44.814c0-1.77,1.495-3.264,3.264-3.264h17.925c1.77,0,3.264,1.495,3.264,3.264V230.385z
	 M331.8,249.527h17.925c10.555,0,19.141-8.586,19.141-19.141v-44.814c0-10.555-8.587-19.141-19.141-19.141H331.8
	c-10.555,0-19.141,8.586-19.141,19.141v44.814C312.659,240.941,321.246,249.527,331.8,249.527z M328.536,185.572
	c0-1.77,1.495-3.264,3.264-3.264h17.925c1.77,0,3.264,1.495,3.264,3.264v44.814c0,1.77-1.496,3.264-3.264,3.264H331.8
	c-1.77,0-3.264-1.495-3.264-3.264V185.572z"/>
<g>
</g>
<g>
</g>
<g>
</g>
<g>
</g>
<g>
</g>
<g>
</g>
<g>
</g>
<g>
</g>
<g>
</g>
<g>
</g>
<g>
</g>
<g>
</g>
<g>
</g>
<g>
</g>
<g>
</g>
</svg>
