<svg height="460pt" viewBox="0 -42 460.42 460" width="460pt" xmlns="http://www.w3.org/2000/svg"><path d="m209.085938 249.039062c-.066407-.105468-.175782-.160156-.246094-.261718-10.109375-11.890625-23.273438-21.09375-38.273438-26.398438v-14.015625c9.953125-9.191406 17.222656-21.203125 20.5625-34.769531.660156.128906 1.324219.195312 1.996094.195312 7.773438 0 13.863281-7.875 13.863281-17.925781 0-2.3125-.355469-4.488281-.945312-6.5v-23.210937c0-31.625-17.785157-59.164063-43.875-73.171875.410156-1.808594.6875-3.625.6875-5.441407 0-17.277343-17.863281-31.332031-39.828125-31.332031s-39.828125 14.054688-39.828125 31.332031c0 1.8125.277343 3.632813.6875 5.441407-26.085938 14.011719-43.875 41.546875-43.875 73.171875v23.210937c-.589844 2.011719-.945313 4.1875-.945313 6.5 0 10.054688 6.089844 17.925781 13.867188 17.925781.667968 0 1.335937-.070312 1.996094-.195312 3.335937 13.566406 10.605468 25.578125 20.558593 34.769531v.144531h-29.589843c-1.039063 0-1.964844.417969-2.679688 1.070313h-5.046875c-1.617187 0-2.929687 1.3125-2.929687 2.929687 0 1.613282 1.3125 2.925782 2.929687 2.925782h3.730469v7.867187h-3.730469c-1.617187 0-2.929687 1.3125-2.929687 2.929688 0 1.617187 1.3125 2.925781 2.929687 2.925781h3.730469v8.785156h-3.730469c-1.617187 0-2.929687 1.3125-2.929687 2.929688 0 1.613281 1.3125 2.925781 2.929687 2.925781h3.601563c-1.582032 1.597656-3.089844 3.261719-4.546876 4.96875-.074218.101563-.183593.15625-.246093.265625-.007813.011719-.007813.027344-.015625.039062-13.066406 15.507813-20.960938 35.503907-20.960938 57.320313v64.921875c0 2.210938 1.792969 4 4 4h206.058594c2.210938 0 4-1.789062 4-4v-64.910156c0-21.816406-7.894531-41.816406-20.957031-57.320313-.011719-.015625-.011719-.027343-.019531-.042969zm0 0" fill="#e6e7e8"/><path d="m436.203125 245.601562c-.117187-.136718-.230469-.265624-.367187-.382812-9.597657-10.089844-21.519532-17.9375-34.90625-22.667969v-11.089843c9.949218-9.191407 17.222656-21.199219 20.558593-34.765626.660157.125 1.324219.195313 1.992188.195313 7.777343 0 13.867187-7.875 13.867187-17.929687 0-10-6.027344-17.828126-13.742187-17.910157.597656.007813-.734375-26.601562-.894531-27.53125-2.578126-15.15625-9.90625-29.496093-21.078126-40.097656-.535156-.507813-1.015624-1.0625-1.570312-1.554687-.105469-.101563-.253906-.128907-.375-.214844-12.371094-10.894532-28.550781-17.566406-46.300781-17.566406-17.738281 0-33.917969 6.667968-46.289063 17.5625-.121094.089843-.273437.117187-.386718.222656-.5625.503906-1.050782 1.066406-1.597657 1.582031-10.175781 9.667969-17.171875 22.5-20.277343 36.15625-2.359376 10.375-1.648438 20.902344-1.648438 31.441406-7.71875.070313-13.753906 7.90625-13.753906 17.914063 0 10.058594 6.085937 17.929687 13.863281 17.929687.667969 0 1.332031-.074219 1.996094-.199219 3.335937 13.570313 10.605469 25.574219 20.558593 34.769532v.144531h-29.585937c-1.042969 0-1.972656.421875-2.6875 1.074219h-5.050781c-1.617188 0-2.925782 1.308594-2.925782 2.925781s1.308594 2.929687 2.925782 2.929687h3.734375v7.867188h-3.734375c-1.617188 0-2.925782 1.3125-2.925782 2.929688 0 1.613281 1.308594 2.925781 2.925782 2.925781h3.734375v8.785156h-3.734375c-1.617188 0-2.925782 1.3125-2.925782 2.925781 0 1.617188 1.308594 2.929688 2.925782 2.929688h.824218c-14.28125 15.808594-22.992187 36.734375-22.992187 59.667968v64.921876c0 2.210937 1.792969 4 4 4h206.0625c2.210937 0 4-1.789063 4-4v-64.921876c0-23.574218-9.21875-45.015624-24.21875-60.96875zm0 0" fill="#e6e7e8"/><path d="m63.484375 209.234375c0-4.242187 0-8.480469 0-12.71875h-33.589844v32.785156c9.382813-9.089843 20.828125-16.046875 33.589844-20.066406zm0 0" fill="#6dc9f7"/><path d="m107.027344 31.144531c12.34375 0 24.023437 2.835938 34.433594 7.886719.886718-2.382812 1.390624-4.886719 1.390624-7.484375 0-15.09375-16.039062-27.328125-35.828124-27.328125-19.789063 0-35.828126 12.234375-35.828126 27.328125 0 2.597656.503907 5.101563 1.394532 7.484375 10.414062-5.054688 22.09375-7.886719 34.4375-7.886719zm0 0" fill="#d4fbff"/><path d="m107.027344 31.144531c12.34375 0 24.023437 2.835938 34.433594 7.886719.886718-2.382812 1.390624-4.886719 1.390624-7.484375 0-15.09375-16.039062-27.328125-35.828124-27.328125-19.789063 0-35.828126 12.234375-35.828126 27.328125 0 2.597656.503907 5.101563 1.394532 7.484375 10.414062-5.054688 22.09375-7.886719 34.4375-7.886719zm0 0" fill="#d4fbff"/><path d="m107.027344 31.144531c-43.640625 0-79.015625 35.378907-79.015625 79.015625v23.847656c1.574219-4.753906 4.960937-8.070312 8.921875-8.070312 1.828125 0 3.523437.753906 4.992187 1.976562 2.296875-13.894531 8.238281-27.015624 17.375-37.941406 6.847657-8.191406 16.980469-12.921875 27.65625-12.921875h40.144531c10.675782 0 20.800782 4.730469 27.65625 12.921875 9.132813 10.925782 15.074219 24.046875 17.375 37.941406 1.46875-1.222656 3.160157-1.976562 4.992188-1.976562 3.960938 0 7.351562 3.3125 8.917969 8.070312v-23.847656c0-43.636718-35.375-79.015625-79.015625-79.015625zm0 0" fill="#d4fbff"/><path d="m177.121094 125.9375c-1.828125 0-3.523438.753906-4.992188 1.976562.703125 4.261719 1.09375 8.582032 1.09375 12.949219 0 3.773438-.332031 7.472657-.9375 11.074219 1.433594 1.148438 3.066406 1.855469 4.835938 1.855469 5.445312 0 9.863281-6.234375 9.863281-13.925781.003906-7.691407-4.414063-13.929688-9.863281-13.929688zm0 0" fill="#fff"/><path d="m40.828125 140.867188c0-4.363282.390625-8.691407 1.097656-12.949219-1.46875-1.222657-3.160156-1.976563-4.992187-1.976563-5.449219 0-9.867188 6.238282-9.867188 13.929688s4.417969 13.925781 9.867188 13.925781c1.765625 0 3.398437-.707031 4.835937-1.855469-.609375-3.605468-.941406-7.304687-.941406-11.074218zm0 0" fill="#fff"/><path d="m124.960938 205.304688h-2.976563c-4.8125 1.113281-9.804687 1.761718-14.957031 1.761718s-10.144532-.648437-14.957032-1.761718h-2.972656c-46.996094 0-85.097656 38.101562-85.097656 85.097656v64.921875h206.058594v-64.921875c0-47-38.097656-85.097656-85.097656-85.097656zm0 0" fill="#fa759e"/><path d="m121.984375 205.304688c-4.8125 1.113281-9.804687 1.761718-14.957031 1.761718s-10.144532-.648437-14.957032-1.761718h-2.972656c-4.675781 0-9.265625.386718-13.738281 1.109374v148.910157h63.335937v-148.910157c-4.472656-.722656-9.058593-1.109374-13.734374-1.109374zm0 0" fill="#d4fbff"/><path d="m144.257812 218.394531c-13.460937 2.738281-27.144531 3.921875-40.808593 3.664063v27.097656h42.089843v-31.160156c-.414062.175781-.847656.304687-1.28125.398437zm0 0" fill="#6dc9f7"/><path d="m107.027344 207.066406c-16.675782 0-31.898438-6.179687-43.539063-16.355468v19.898437c0 3.523437 2.816407 7.078125 6.316407 7.789063 24.5625 5.003906 49.886718 5.003906 74.453124 0 3.5-.710938 6.3125-4.261719 6.3125-7.789063 0-6.632813 0-13.265625 0-19.898437-11.640624 10.175781-26.867187 16.355468-43.542968 16.355468zm0 0" fill="#6dc9f7"/><path d="m154.757812 89.976562c-6.851562-8.191406-16.980468-12.921874-27.65625-12.921874h-40.144531c-10.675781 0-20.804687 4.730468-27.65625 12.921874-11.9375 14.273438-18.472656 32.285157-18.472656 50.890626 0 36.558593 29.640625 66.199218 66.199219 66.199218 36.5625 0 66.199218-29.640625 66.199218-66.199218 0-18.605469-6.539062-36.617188-18.46875-50.890626zm0 0" fill="#fff"/><path d="m91.617188 106.953125h-25.988282c-8.203125 0-14.855468 6.652344-14.855468 14.855469v10.140625c0 9.523437 7.71875 17.25 17.246093 17.25h16.53125c9.523438 0 17.25-7.722657 17.25-17.25v-14.816407c-.003906-5.621093-4.5625-10.179687-10.183593-10.179687zm0 0" fill="#d4fbff"/><path d="m148.429688 106.953125h-29.472657c-3.699219 0-6.695312 3-6.695312 6.695313v18.300781c0 9.523437 7.722656 17.25 17.246093 17.25h16.53125c9.523438 0 17.25-7.722657 17.25-17.25v-10.140625c0-8.207032-6.652343-14.855469-14.859374-14.855469zm0 0" fill="#d4fbff"/><path d="m144.78125 157.769531c-3.25 0-5.882812 1.660157-5.882812 3.703125 0 2.050782 2.632812 3.707032 5.882812 3.707032 3.246094 0 5.878906-1.660157 5.878906-3.707032 0-2.042968-2.632812-3.703125-5.878906-3.703125zm0 0" fill="#ffd7e5"/><path d="m69.273438 156.945312c-3.25 0-5.882813 1.660157-5.882813 3.703126 0 2.050781 2.632813 3.707031 5.882813 3.707031 3.246093 0 5.878906-1.660157 5.878906-3.707031 0-2.042969-2.632813-3.703126-5.878906-3.703126zm0 0" fill="#ffd7e5"/><path d="m107.027344 182.449219c-10.667969 0-16.136719-7.40625-16.363282-7.722657-1.320312-1.828124-.90625-4.378906.925782-5.699218 1.8125-1.3125 4.351562-.910156 5.675781.890625.183594.242187 3.429687 4.367187 9.757813 4.367187 6.277343 0 9.761718-4.367187 9.792968-4.410156 1.355469-1.796875 3.914063-2.160156 5.71875-.792969 1.800782 1.359375 2.152344 3.925781.792969 5.71875-.230469.3125-5.90625 7.648438-16.300781 7.648438zm0 0" fill="#fa759e"/><path d="m296.777344 208.554688v-8.945313h-36.515625v29.859375c10.082031-9.777344 22.578125-17.070312 36.515625-20.914062zm0 0" fill="#fa759e"/><path d="m380.933594 209.410156v7.21875c0 3.523438-2.816406 7.078125-6.316406 7.789063-24.566407 5.003906-49.890626 5.003906-74.453126 0-3.5-.710938-6.316406-4.261719-6.316406-7.789063 0-2.40625 0-4.816406 0-7.21875-34.480468 10.871094-59.488281 43.085938-59.488281 81.160156v64.921876h206.0625v-64.921876c0-38.074218-25.011719-70.292968-59.488281-81.160156zm0 0" fill="#fff"/><path d="m421.183594 236.707031c-11.417969-9.347656-25.324219-15.742187-40.558594-18.140625-.792969 2.800782-3.160156 5.273438-6.011719 5.851563-24.566406 5.003906-49.890625 5.003906-74.453125 0-.464844-.097657-.917968-.242188-1.351562-.433594-30.792969 12.808594-52.453125 43.15625-52.453125 78.585937v52.921876h194.058593v-64.921876c.007813-20.445312-7.214843-39.191406-19.230468-53.863281zm0 0" fill="#6dc9f7"/><path d="m374.617188 224.417969c-13.730469 2.796875-27.695313 3.972656-41.632813 3.644531v27.121094h42.089844v-30.90625c-.152344.039062-.300781.109375-.457031.140625zm0 0" fill="#fa759e"/><path d="m337.386719 210.160156c-16.65625 0-31.859375-6.164062-43.496094-16.3125-.011719.148438-.042969.285156-.042969.445313v22.339843c0 3.523438 2.816406 7.078126 6.316406 7.789063 24.5625 5.003906 49.886719 5.003906 74.453126 0 3.5-.710937 6.316406-4.261719 6.316406-7.789063 0-7.445312 0-14.894531 0-22.339843 0-.15625-.039063-.296875-.046875-.445313-11.632813 10.144532-26.84375 16.3125-43.5 16.3125zm0 0" fill="#6dc9f7"/><path d="m337.386719 210.160156c-16.65625 0-31.859375-6.164062-43.496094-16.3125-.011719.148438-.042969.285156-.042969.445313v22.339843c0 3.523438 2.816406 7.078126 6.316406 7.789063 24.5625 5.003906 49.886719 5.003906 74.453126 0 3.5-.710937 6.316406-4.261719 6.316406-7.789063 0-7.445312 0-14.894531 0-22.339843 0-.15625-.039063-.296875-.046875-.445313-11.632813 10.144532-26.84375 16.3125-43.5 16.3125zm0 0" fill="#fa759e"/><path d="m407.484375 129.035156c-1.382813 0-2.699219.40625-3.894531 1.136719v13.785156c0 3.777344-.332032 7.472657-.941406 11.078125 1.4375 1.148438 3.066406 1.855469 4.835937 1.855469 5.449219 0 9.863281-6.238281 9.863281-13.929687 0-7.691407-4.414062-13.925782-9.863281-13.925782zm0 0" fill="#fff"/><path d="m337.386719 210.160156c-36.558594 0-66.199219-29.636718-66.199219-66.199218v-35.675782c0-36.558594 29.640625-66.199218 66.199219-66.199218 36.5625 0 66.203125 29.640624 66.203125 66.199218v35.675782c0 36.5625-29.636719 66.199218-66.203125 66.199218zm0 0" fill="#fff"/><path d="m321.976562 106.953125h-25.988281c-8.203125 0-14.855469 6.652344-14.855469 14.855469v10.140625c0 9.523437 7.722657 17.25 17.246094 17.25h16.53125c9.527344 0 17.25-7.722657 17.25-17.25v-14.816407c-.003906-5.621093-4.558594-10.179687-10.183594-10.179687zm0 0" fill="#d4fbff"/><path d="m378.792969 106.953125h-29.472657c-3.699218 0-6.695312 3-6.695312 6.695313v18.300781c0 9.523437 7.71875 17.25 17.246094 17.25h16.53125c9.527344 0 17.25-7.722657 17.25-17.25v-10.140625c-.003906-8.207032-6.65625-14.855469-14.859375-14.855469zm0 0" fill="#d4fbff"/><path d="m271.1875 143.957031v-13.785156c-1.195312-.730469-2.511719-1.136719-3.894531-1.136719-5.449219 0-9.863281 6.234375-9.863281 13.925782 0 7.691406 4.414062 13.929687 9.863281 13.929687 1.765625 0 3.398437-.707031 4.835937-1.855469-.609375-3.605468-.941406-7.300781-.941406-11.078125zm0 0" fill="#fff"/><path d="m381.402344 58.851562c-4.027344 6.003907-6.378906 13.226563-6.378906 21 0 17.679688 12.164062 32.472657 28.566406 36.589844v-8.160156c0-19.660156-8.578125-37.308594-22.1875-49.429688zm0 0" fill="#d4fbff"/><path d="m293.375 58.851562c4.027344 6.003907 6.382812 13.226563 6.382812 21 0 17.679688-12.164062 32.472657-28.566406 36.589844v-8.160156c-.003906-19.660156 8.578125-37.308594 22.183594-49.429688zm0 0" fill="#d4fbff"/><g fill="#3a2c60"><path d="m154.566406 206.453125v-14.085937c9.953125-9.191407 17.222656-21.203126 20.5625-34.769532.660156.128906 1.324219.195313 1.996094.195313 7.773438 0 13.863281-7.875 13.863281-17.925781 0-2.3125-.355469-4.488282-.945312-6.5v-23.210938c0-31.625-17.785157-59.164062-43.875-73.175781.410156-1.808594.6875-3.625.6875-5.441407 0-17.273437-17.863281-31.328124-39.828125-31.328124s-39.828125 14.054687-39.828125 31.328124c0 1.8125.277343 3.632813.6875 5.441407-26.085938 14.011719-43.875 41.550781-43.875 73.175781v23.210938c-.589844 2.011718-.945313 4.1875-.945313 6.5 0 10.050781 6.089844 17.925781 13.867188 17.925781.667968 0 1.335937-.070313 1.996094-.195313 3.335937 13.566406 10.605468 25.578125 20.558593 34.769532v.144531h-29.589843c-1.039063 0-1.96875.417969-2.683594 1.070312h-5.046875c-1.617188 0-2.929688 1.3125-2.929688 2.929688 0 1.613281 1.3125 2.925781 2.929688 2.925781h3.730469v7.867188h-3.730469c-1.617188 0-2.929688 1.3125-2.929688 2.929687s1.3125 2.925781 2.929688 2.925781h3.730469v8.785156h-3.730469c-1.617188 0-2.929688 1.3125-2.929688 2.929688 0 1.613281 1.3125 2.925781 2.929688 2.925781h3.679687c-15.945312 16.105469-25.847656 38.195313-25.847656 62.597657v64.921874c0 2.210938 1.792969 4 4 4h206.058594c2.210937 0 4-1.789062 4-4v-64.917968c-.003906-38.742188-24.890625-71.703125-59.492188-83.949219zm29.054688 28.128906c-11.628906 8.972657-18.484375 22.664063-18.484375 37.589844v79.15625h-22.441407v-91.625c.726563.730469 1.730469 1.1875 2.839844 1.1875 2.207032 0 4-1.792969 4-4v-36.652344c1.890625-1.402343 3.398438-3.328125 4.246094-5.527343 11.402344 4.351562 21.5625 11.191406 29.839844 19.871093zm-76.175782 10.574219v-3.710938h34.089844v3.710938zm26.515626-20.949219c1.527343-.222656 3.050781-.476562 4.574218-.734375 1-.167968 2.007813-.292968 3-.480468v10.453124h-34.089844v-7.289062c7.878907-.015625 15.757813-.578125 23.617188-1.582031.964844-.125 1.933594-.234375 2.898438-.367188zm12.605468-25.351562v11.75c0 1.664062-1.511718 3.542969-3.109375 3.867187-3.226562.65625-6.480469 1.226563-9.761719 1.707032-.070312.011718-.144531.015624-.214843.027343-9.820313 1.417969-19.859375 2.042969-29.957031 1.851563-.035157 0-.066407.019531-.101563.019531-10.96875-.21875-21.929687-1.382813-32.820313-3.605469-1.601562-.324218-3.113281-2.203125-3.113281-3.867187v-11.75c.089844.0625.191407.113281.289063.179687.070312.046875.152344.089844.222656.140625 1.617188 1.082031 3.28125 2.082031 4.976562 3.027344.550782.308594 1.113282.589844 1.671876.882813 1.28125.667968 2.578124 1.296874 3.898437 1.878906.648437.289062 1.292969.585937 1.953125.851562 1.550781.636719 3.125 1.210938 4.714844 1.730469.488281.160156.972656.332031 1.464844.484375 1.796874.542969 3.621093 1.007812 5.460937 1.40625.707031.15625 1.425781.277344 2.144531.410156 1.429688.261719 2.871094.480469 4.324219.660156.683594.082032 1.363281.171876 2.050781.230469 2.113282.191407 4.234375.324219 6.375.324219 2.136719 0 4.261719-.128906 6.375-.324219.691406-.0625 1.371094-.152343 2.054688-.230469 1.445312-.179687 2.886718-.398437 4.320312-.660156.71875-.132812 1.4375-.257812 2.148438-.410156 1.832031-.398438 3.640625-.859375 5.433594-1.398438.507812-.15625 1.003906-.332031 1.507812-.496093 1.585938-.519531 3.148438-1.089844 4.6875-1.722657.664062-.269531 1.3125-.566406 1.964844-.859374 1.3125-.582032 2.609375-1.207032 3.882812-1.871094.566406-.296875 1.128906-.578125 1.6875-.890625 1.6875-.941407 3.34375-1.9375 4.953125-3.015625.082031-.054688.164063-.101563.246094-.152344.082031-.0625.179687-.113281.269531-.175781zm-86.289062 15.851562c1.449218 3.753907 4.765625 6.800781 8.726562 7.605469.785156.160156 1.570313.269531 2.355469.421875v128.59375h-22.4375v-79.15625c0-14.921875-6.859375-28.617187-18.488281-37.589844 8.277344-8.679687 18.4375-15.519531 29.84375-19.875zm55.984375-101.058593c0-1.488282 1.210937-2.699219 2.695312-2.699219h29.476563c5.988281 0 10.855468 4.871093 10.855468 10.855469v10.140624c0 7.304688-5.945312 13.25-13.25 13.25h-16.53125c-7.304687 0-13.246093-5.941406-13.246093-13.25zm32.171875-10.699219h-29.476563c-5.902343 0-10.695312 4.800781-10.695312 10.699219v4.324218h-2.464844v-.839844c0-7.820312-6.359375-14.179687-14.179687-14.179687h-25.988282c-5.371094 0-10.199218 2.285156-13.636718 5.90625 2.730468-5.824219 6.203124-11.320313 10.378906-16.3125 6.109375-7.304687 15.074218-11.492187 24.589844-11.492187h40.144531c9.519531 0 18.484375 4.1875 24.585937 11.492187 4.171875 4.992187 7.644532 10.484375 10.375 16.304687-3.441406-3.617187-8.265625-5.902343-13.632812-5.902343zm-50.636719 29c0 7.304687-5.945313 13.25-13.25 13.25h-16.53125c-7.304687 0-13.246094-5.941407-13.246094-13.25v-10.140625c0-5.988282 4.871094-10.855469 10.855469-10.855469h25.988281c3.40625 0 6.179688 2.773437 6.179688 6.179687v14.816407zm78.859375 17.804687c.039062-.320312.054688-.636718.089844-.953125.066406-.570312.117187-1.148437.167968-1.726562.191407-2.082031.316407-4.15625.316407-6.207031 0-2.0625-.105469-4.15625-.273438-6.273438-.074219-.957031-.183593-1.902344-.289062-2.855469-.03125-.269531-.046875-.53125-.078125-.804687.183594-.289063.339844-.597656.441406-.941406h.03125c.296875-.011719.59375.011718.882812.082031.082032.019531.171876.058593.253907.085937.269531.089844.535156.199219.792969.351563.074218.042969.148437.109375.222656.164062 1.257812.863281 2.332031 2.476563 3.027344 4.585938.035156.097656.101562.171875.136718.269531.382813 1.285156.609375 2.746094.609375 4.339844 0 6.171875-3.351562 10.421875-6.332031 9.882812zm-101.34375-116.332031c-.078125-.628906-.113281-1.257813-.113281-1.878906 0-12.863281 14.277343-23.328125 31.828125-23.328125 17.550781 0 31.828125 10.464844 31.828125 23.328125 0 .621093-.035157 1.25-.113281 1.878906-1.941407-.808594-3.925782-1.46875-5.914063-2.121094-.417969-.136719-.816406-.3125-1.234375-.441406-2.285156-.710937-4.605469-1.285156-6.9375-1.789063-.335938-.074218-.65625-.179687-.992188-.25-2.324218-.46875-4.679687-.804687-7.050781-1.078124-.398437-.042969-.78125-.132813-1.175781-.171876-2.777344-.277343-5.578125-.429687-8.410156-.429687-2.828125 0-5.632813.148437-8.40625.429687-.398438.039063-.777344.128907-1.167969.171876-2.378906.273437-4.738281.609374-7.066406 1.078124-.335938.070313-.660157.175782-.992188.25-2.332031.503907-4.652343 1.078126-6.929687 1.789063-.429688.128906-.835938.3125-1.265625.449219-1.976563.652344-3.953125 1.308594-5.886719 2.113281zm-43.300781 76.738281c0-41.363281 33.652343-75.015625 75.015625-75.015625 41.363281 0 75.011718 33.652344 75.011718 75.015625v12.9375c-.585937-.289062-1.203124-.515625-1.828124-.695312-.238282-.066406-.484376-.109375-.726563-.160156-.679687-.152344-1.367187-.238282-2.058594-.261719-.105469-.003907-.203125-.039063-.304687-.039063-.050782 0-.09375.011719-.136719.011719-.484375.003906-.964844.066406-1.449219.136719-.144531.019531-.292968.019531-.433594.046875-.011718.003906-.027343 0-.039062.003906-.101562-.445313-.238281-.886719-.347656-1.332031-.214844-.863282-.429688-1.726563-.675782-2.582032-.488281-1.730468-1.019531-3.441406-1.613281-5.128906-.230469-.640625-.480469-1.269531-.722656-1.902344-.558594-1.472656-1.160156-2.929687-1.804687-4.371093-.289063-.648438-.582032-1.296875-.890626-1.9375-.878906-1.839844-1.804687-3.664063-2.816406-5.4375-.113281-.195313-.234375-.378907-.347656-.570313-.976562-1.679687-2.023438-3.316406-3.121094-4.925781-.324218-.476563-.648437-.941406-.984375-1.414063-1.242187-1.753906-2.535156-3.472656-3.914062-5.128906-7.628907-9.125-18.828125-14.355468-30.722657-14.355468h-40.144531c-11.898437 0-23.09375 5.230468-30.726562 14.355468-1.382813 1.65625-2.671875 3.375-3.917969 5.132813-.332031.464843-.65625.929687-.976562 1.402343-1.101563 1.617188-2.152344 3.257813-3.132813 4.945313-.105469.1875-.230469.363281-.335937.550781-1.015626 1.777344-1.9375 3.597656-2.820313 5.441406-.308594.644532-.601563 1.292969-.890625 1.941407-.640625 1.433593-1.234375 2.882812-1.792969 4.347656-.25.65625-.511719 1.316406-.746093 1.984375-.585938 1.660156-1.109376 3.347656-1.589844 5.046875-.246094.878906-.472656 1.761719-.691406 2.652344-.109376.429687-.234376.855469-.335938 1.285156-.011719-.003906-.023438 0-.035156-.003906-.152344-.027344-.308594-.027344-.464844-.050781-.46875-.066407-.941406-.128907-1.410156-.132813-.050782 0-.097656-.011719-.148438-.011719-.113281 0-.214844.035156-.324218.039063-.6875.023437-1.363282.109375-2.03125.257812-.25.050781-.492188.097657-.738282.164063-.625.183594-1.238281.40625-1.828125.695312v-12.9375zm5.386719 39.59375c-2.96875.574219-6.332032-3.707031-6.332032-9.882812 0-1.695313.28125-3.21875.71875-4.558594.007813-.019531.019532-.03125.027344-.050781.347656-1.046875.792969-1.96875 1.300781-2.746094.171875-.253906.351563-.484375.539063-.707031.082031-.101563.164062-.214844.25-.3125.292968-.304688.59375-.574219.90625-.792969.015625-.011719.03125-.027344.050781-.042969.238281-.164062.476563-.261718.714844-.371094.136719-.058593.273437-.140624.414062-.179687.082031-.027344.171875-.023437.253907-.042969.261718-.050781.523437-.085937.789062-.074218.109375.347656.265625.65625.449219.945312-.03125.253906-.046875.5-.078125.75-.105469.96875-.21875 1.941406-.292969 2.917969-.167969 2.113281-.277344 4.203125-.277344 6.257812 0 2.035157.128907 4.101563.3125 6.171875.050781.597656.101563 1.199219.171875 1.792969.03125.308594.046875.617187.082032.925781zm8.035156-.695312c-.113282-.828125-.238282-1.65625-.316406-2.484375-.171876-1.882813-.289063-3.785157-.289063-5.710938 0-2.054687.105469-4.097656.269531-6.128906.085938-1.023437.257813-2.070313.386719-3.105469l1.285156-.367187v.683593c0 11.714844 9.53125 21.25 21.246094 21.25h16.53125c11.71875 0 21.25-9.535156 21.25-21.25v-5.972656h2.464844v5.976563c0 11.714843 9.53125 21.25 21.246093 21.25h16.53125c11.71875 0 21.25-9.535157 21.25-21.25v-.683594l1.28125.363281c.128907 1.027344.300782 2.066406.390626 3.085938.167968 2.039062.269531 4.089844.269531 6.152344 0 1.929687-.113281 3.839843-.289063 5.726562-.078125.804688-.203125 1.609375-.304687 2.414062-4.007813 30.453126-30.074219 54.058594-61.605469 54.058594-31.515625 0-57.566406-23.582031-61.597656-54.007812zm14.050781 57.292968c-.628906.222657-1.238281.507813-1.859375.742188-.753906.285156-1.496094.59375-2.242188.894531-1.453124.597657-2.894531 1.21875-4.320312 1.894531-.769531.363282-1.523438.753907-2.277344 1.140626-1.066406.542968-2.136718 1.058593-3.179687 1.648437v-12.164063h13.875v5.84375zm-25.589844-5.839843h3.714844v17.257812c-.285156.199219-.550781.429688-.828125.632813-.960938.699218-1.953125 1.355468-2.886719 2.089844zm-25.898437 89.890625c0-18.761719 6.453125-36.011719 17.195312-49.757813 9.878906 7.457031 15.730469 18.960938 15.730469 31.519531v79.160157h-32.925781zm71.363281 60.921875v-127.214844c6.679687.988281 13.378906 1.597656 20.085937 1.863281v30.914063c0 2.207031 1.789063 4 4 4 2.207032 0 4-1.792969 4-4v-3.734375h5.726563v3.734375c0 2.207031 1.792969 4 4 4s4-1.792969 4-4v-3.734375h6.640625v3.734375c0 2.207031 1.792969 4 4 4 1.140625 0 2.15625-.488281 2.882812-1.257813v91.691406h-55.335937zm126.695313 0h-32.917969v-79.160157c0-12.558593 5.847656-24.0625 15.726562-31.519531 10.746094 13.746094 17.195313 30.992188 17.195313 49.757813v60.921875zm0 0"/><path d="m77.820312 124.976562c-3.65625 0-6.621093 2.964844-6.621093 6.621094s2.964843 6.621094 6.621093 6.621094 6.621094-2.964844 6.621094-6.621094-2.964844-6.621094-6.621094-6.621094zm0 0"/><path d="m136.230469 124.976562c-3.65625 0-6.617188 2.964844-6.617188 6.621094s2.960938 6.621094 6.617188 6.621094 6.621093-2.964844 6.621093-6.621094-2.964843-6.621094-6.621093-6.621094zm0 0"/><path d="m107.027344 165.066406c6.355468 0 11.527344-5.171875 11.527344-11.527344 0-2.210937-1.789063-4-4-4-2.207032 0-4 1.789063-4 4 0 1.941407-1.582032 3.527344-3.527344 3.527344-1.941406 0-3.527344-1.585937-3.527344-3.527344 0-2.210937-1.792969-4-4-4s-4 1.789063-4 4c0 6.355469 5.171875 11.527344 11.527344 11.527344zm0 0"/><path d="m131.011719 119.835938 12.964843 2.253906c.230469.039062.464844.058594.6875.058594 1.90625 0 3.597657-1.367188 3.9375-3.3125.378907-2.179688-1.082031-4.25-3.257812-4.628907l-12.964844-2.257812c-2.1875-.359375-4.242187 1.085937-4.625 3.257812-.378906 2.175781 1.082032 4.246094 3.257813 4.628907zm0 0"/><path d="m81.671875 111.949219-12.964844 2.257812c-2.175781.378907-3.636719 2.449219-3.253906 4.628907.339844 1.941406 2.027344 3.3125 3.933594 3.3125.230469 0 .460937-.019532.6875-.058594l12.964843-2.253906c2.175782-.382813 3.636719-2.453126 3.257813-4.628907-.382813-2.171875-2.441406-3.617187-4.625-3.257812zm0 0"/><path d="m123.621094 163.273438c.097656.046874 10.105468 4.988281 12.226562 12.613281.25.882812 1.050782 1.464843 1.925782 1.464843.175781 0 .359374-.027343.535156-.074218 1.0625-.296875 1.6875-1.398438 1.390625-2.464844-2.597657-9.34375-13.855469-14.90625-14.335938-15.136719-.996093-.488281-2.1875-.074219-2.671875.921875s-.066406 2.191406.929688 2.675782zm0 0"/><path d="m74.621094 177.277344c.175781.046875.359375.074218.535156.074218.875 0 1.679688-.582031 1.921875-1.464843 2.113281-7.59375 12.128906-12.566407 12.230469-12.613281.992187-.484376 1.40625-1.679688.917968-2.671876-.480468-.992187-1.671874-1.398437-2.667968-.921874-.480469.230468-11.734375 5.792968-14.335938 15.136718-.289062 1.0625.328125 2.164063 1.398438 2.460938zm0 0"/><path d="m340.980469 351.492188h-19.019531c-2.214844 0-4 1.792968-4 4 0 2.210937 1.785156 4 4 4h19.019531c2.210937 0 4-1.789063 4-4 0-2.207032-1.789063-4-4-4zm0 0"/><path d="m420.386719 229.867188c-.21875-.296876-.457031-.558594-.742188-.777344-9.566406-9.996094-21.410156-17.761719-34.710937-22.46875v-11.160156c9.96875-9.210938 17.253906-21.246094 20.582031-34.851563.65625.128906 1.304687.28125 1.96875.28125 7.777344 0 13.867187-7.875 13.867187-17.929687 0-10.003907-6.035156-17.839844-13.753906-17.910157v-16.769531c0-2.488281-.140625-4.941406-.394531-7.363281-.039063-.367188-.125-.726563-.167969-1.097657-.25-2.066406-.558594-4.117187-.988281-6.125-.09375-.445312-.234375-.878906-.339844-1.320312-.441406-1.910156-.933593-3.800781-1.53125-5.644531-.1875-.582031-.421875-1.136719-.628906-1.710938-.585937-1.664062-1.195313-3.3125-1.902344-4.917969-.324219-.738281-.703125-1.457031-1.050781-2.183593-.664062-1.375-1.335938-2.738281-2.085938-4.0625-.492187-.875-1.03125-1.714844-1.558593-2.566407-.695313-1.113281-1.402344-2.222656-2.152344-3.296874-.65625-.933594-1.351563-1.84375-2.058594-2.746094-.722656-.929688-1.453125-1.839844-2.222656-2.726563-.800781-.929687-1.621094-1.828125-2.46875-2.71875-.78125-.816406-1.585937-1.605469-2.40625-2.382812-.535156-.507813-1.015625-1.0625-1.570313-1.554688-.105468-.101562-.253906-.128906-.375-.214843-12.371093-10.894532-28.550781-17.566407-46.300781-17.566407-17.738281 0-33.914062 6.667969-46.285156 17.558594-.125.089844-.273437.121094-.390625.222656-.5625.503907-1.050781 1.066407-1.597656 1.582031-.804688.765626-1.59375 1.535157-2.355469 2.335938-.863281.898438-1.695313 1.8125-2.5 2.753906-.761719.878906-1.484375 1.78125-2.203125 2.699219-.707031.910156-1.410156 1.828125-2.070312 2.773437-.753907 1.066407-1.449219 2.167969-2.140626 3.273438-.53125.855469-1.074218 1.703125-1.566406 2.582031-.75 1.320313-1.417968 2.679688-2.082031 4.050781-.351563.730469-.730469 1.449219-1.058594 2.191407-.703125 1.601562-1.316406 3.25-1.902343 4.910156-.203126.574219-.4375 1.132813-.625 1.714844-.597657 1.847656-1.089844 3.734375-1.53125 5.648437-.105469.441406-.246094.871094-.34375 1.316406-.425782 2.011719-.734376 4.058594-.984376 6.125-.046874.371094-.128906.730469-.167968 1.097657-.253906 2.425781-.394532 4.875-.394532 7.363281v16.769531c-7.71875.070313-13.753906 7.90625-13.753906 17.914063 0 10.054687 6.085938 17.929687 13.863282 17.929687.664062 0 1.316406-.15625 1.972656-.285156 3.328125 13.605469 10.605468 25.640625 20.582031 34.855469v.144531h-29.585937c-1.042969 0-1.972657.421875-2.683594 1.074219h-5.054688c-1.613281 0-2.925781 1.308594-2.925781 2.925781s1.3125 2.929687 2.925781 2.929687h3.734375v7.867188h-3.734375c-1.613281 0-2.925781 1.3125-2.925781 2.929688 0 1.613281 1.3125 2.925781 2.925781 2.925781h3.734375v8.785156h-3.734375c-1.613281 0-2.925781 1.3125-2.925781 2.925781 0 1.617188 1.3125 2.929688 2.925781 2.929688h.871094c-14.292969 15.804687-23.039062 36.722656-23.039062 59.667968v64.921876c0 2.210937 1.792968 4 4 4h67.125c2.210937 0 4-1.789063 4-4 0-2.207032-1.789063-4-4-4h-13.417969v-79.15625c0-17.121094-9.128907-32.675782-23.667969-41.117188 7.359375-6.816406 15.960938-12.285156 25.449219-16.023438v1.433594c0 5.484375 4.179687 10.625 9.515625 11.707032 9.832031 2.003906 19.722656 3.199218 29.617187 3.640624v30.933594c0 2.207032 1.789063 4 4 4 2.210938 0 4-1.792968 4-4v-3.730468h5.726563v3.730468c0 2.207032 1.789062 4 4 4 2.214844 0 4-1.792968 4-4v-3.730468h6.640625v3.730468c0 2.207032 1.789062 4 4 4 2.210937 0 4-1.792968 4-4v-3.730468h5.730469v3.730468c0 2.207032 1.785156 4 4 4 2.210937 0 4-1.792968 4-4v-36.050781c3.464843-2.148437 5.855468-6.089844 5.855468-10.230469v-1.433594c9.488282 3.738282 18.089844 9.207032 25.445313 16.019532-14.535157 8.445312-23.667969 23.996094-23.667969 41.113281v79.160156h-30.003906c-2.210938 0-4 1.792969-4 4 0 2.210938 1.789062 4 4 4h83.714844c2.210937 0 4-1.789062 4-4v-64.917969c-.007813-23.460937-9.167969-44.78125-24.042969-60.703124zm-36.15625-162.378907c.484375.558594.988281 1.101563 1.453125 1.671875.726562.898438 1.402344 1.84375 2.082031 2.78125.507813.703125 1.03125 1.394532 1.507813 2.117188.546874.832031 1.042968 1.699218 1.554687 2.554687.523437.882813 1.0625 1.761719 1.542969 2.667969.390625.738281.730468 1.503906 1.089844 2.257812.507812 1.066407 1.027343 2.125 1.476562 3.21875.269531.660157.492188 1.34375.738281 2.015626.445313 1.203124.898438 2.410156 1.269531 3.640624.203126.671876.347657 1.367188.527344 2.050782.328125 1.246094.667969 2.484375.917969 3.753906.175781.894531.28125 1.820312.417969 2.726562.164062 1.074219.359375 2.136719.46875 3.214844.195312 2.019532.3125 4.058594.3125 6.125v2.617188c-12.328125-5.210938-20.570313-17.332032-20.570313-31.046875 0-5.0625 1.121094-9.992188 3.269531-14.492188.667969.6875 1.3125 1.402344 1.941407 2.125zm5.417969 54.320313v10.140625c0 7.304687-5.945313 13.25-13.253907 13.25h-16.53125c-7.304687 0-13.25-5.941407-13.25-13.25v-18.300781c0-1.488282 1.210938-2.699219 2.699219-2.699219h29.472656c5.996094 0 10.863282 4.871093 10.863282 10.859375zm7.675781-3.234375c.746093.296875 1.496093.589843 2.269531.847656v4.074219l-1.941406-.554688v-1.136718c-.003906-1.101563-.144532-2.175782-.328125-3.230469zm16.023437 24.386719c0 6.171874-3.320312 10.453124-6.332031 9.886718.039063-.304687.050781-.609375.089844-.914062.066406-.609375.121093-1.222656.175781-1.835938.175781-1.988281.292969-3.96875.296875-5.925781 0-.074219.015625-.140625.015625-.214844v-10.917969c2.742188.101563 5.753906 4.152344 5.753906 9.921876zm-37.152344-83.207032c-3.382812 6.140625-5.171874 13.015625-5.171874 20.097656 0 8.460938 2.542968 16.433594 6.980468 23.097657h-28.683594c-5.898437 0-10.699218 4.800781-10.699218 10.699219v4.324218h-2.460938v-.839844c0-7.820312-6.359375-14.179687-14.179687-14.179687h-25.199219c4.433594-6.667969 6.980469-14.636719 6.980469-23.097656 0-7.082031-1.789063-13.953125-5.171875-20.097657 10.644531-8.53125 24.128906-13.671874 38.804687-13.671874 14.667969-.003907 28.152344 5.132812 38.800781 13.667968zm-99.066406 62.054688v1.136718l-1.941406.558594v-4.078125c.773438-.253906 1.519531-.550781 2.269531-.847656-.183593 1.050781-.328125 2.125-.328125 3.230469zm-1.628906-19.652344c.105469-1.0625.300781-2.105469.460938-3.164062.140624-.925782.242187-1.867188.425781-2.78125.25-1.246094.585937-2.464844.90625-3.6875.183593-.707032.335937-1.421876.542969-2.117188.363281-1.207031.808593-2.386719 1.242187-3.570312.257813-.699219.484375-1.40625.765625-2.089844.441406-1.070313.953125-2.117188 1.453125-3.164063.367187-.773437.714844-1.554687 1.113281-2.3125.472656-.894531 1.011719-1.753906 1.527344-2.628906.515625-.867187 1.019531-1.746094 1.574219-2.589844.472656-.714843.992187-1.398437 1.492187-2.09375.683594-.941406 1.359375-1.890625 2.09375-2.796875.460938-.570312.964844-1.113281 1.453125-1.675781.632813-.722656 1.273438-1.433594 1.9375-2.128906 2.148438 4.503906 3.269531 9.429687 3.269531 14.492187 0 13.714844-8.242187 25.835938-20.570312 31.046875v-2.617187c0-2.0625.113281-4.101563.3125-6.121094zm9.628906 19.652344c0-5.988282 4.871094-10.855469 10.855469-10.855469h25.992187c3.40625 0 6.179688 2.773437 6.179688 6.179687v14.816407c0 7.304687-5.941406 13.25-13.25 13.25h-16.535156c-7.304688 0-13.246094-5.941407-13.246094-13.25v-10.140625zm-17.363281 31.039062c-3.082031.570313-6.332031-3.714844-6.332031-9.886718 0-5.773438 3.011718-9.824219 5.753906-9.921876v10.917969c0 2.050781.128906 4.121094.3125 6.191407.050781.59375.105469 1.1875.171875 1.773437.035156.308594.050781.617187.09375.925781zm7.421875-8.890625v-12.140625l1.941406-.554687v.683593c0 11.714844 9.53125 21.25 21.246094 21.25h16.535156c11.71875 0 21.25-9.535156 21.25-21.25v-5.972656h2.460938v5.976563c0 11.714843 9.53125 21.25 21.25 21.25h16.53125c11.722656 0 21.253906-9.535157 21.253906-21.25v-.683594l1.941406.554687v12.140626c0 34.296874-27.90625 62.199218-62.207031 62.199218-34.296875 0-62.203125-27.902344-62.203125-62.203125zm14.660156 62.664063c-1.21875.433594-2.445312.855468-3.640625 1.339844-1.097656.445312-2.175781.941406-3.253906 1.429687-1.226563.550781-2.441406 1.113281-3.632813 1.714844-1.117187.566406-2.214843 1.164062-3.308593 1.777343-.011719.007813-.027344.015626-.042969.023438v-9.296875h13.878906zm-25.585937-3.015625h3.710937v14.332031c-.445312.316406-.859375.664062-1.300781.988281-.796875.589844-1.636719 1.121094-2.410156 1.730469zm15.804687 68.730469v79.15625h-41.707031v-60.921876c0-20.441406 7.632813-39.097656 20.160156-53.355468 13.140625 6.746094 21.546875 20.179687 21.546875 35.121094zm17.78125-55.707032-.011718-14.6875c.09375.066406.1875.117188.28125.175782.105468.074218.222656.136718.332031.207031 1.578125 1.058593 3.203125 2.035156 4.855469 2.957031.570312.320312 1.15625.617188 1.734374.921875 1.257813.652344 2.527344 1.265625 3.824219 1.84375.667969.300781 1.332031.597656 2.007813.878906 1.519531.621094 3.0625 1.179688 4.621094 1.691407.546874.179687 1.09375.371093 1.648437.539062 1.757813.535156 3.539063.984375 5.339844 1.378906.71875.15625 1.449219.277344 2.171875.410156 1.421875.265626 2.855468.484376 4.296875.65625.6875.085938 1.367187.171876 2.058593.238282 2.113282.191406 4.234376.320312 6.371094.320312 2.136719 0 4.261719-.125 6.378906-.320312.691407-.066406 1.371094-.152344 2.054688-.234375 1.449219-.175781 2.882812-.394531 4.316406-.660157.71875-.132812 1.4375-.253906 2.152344-.40625 1.824219-.398437 3.628906-.855468 5.410156-1.398437.519532-.15625 1.03125-.339844 1.546875-.507813 1.574219-.515624 3.128907-1.082031 4.660157-1.707031.671874-.277343 1.328124-.574219 1.992187-.871093 1.300781-.582032 2.582031-1.195313 3.84375-1.851563.578125-.300781 1.15625-.597656 1.726563-.914063 1.644531-.914062 3.253906-1.886718 4.824218-2.933593.121094-.085938.253906-.15625.378906-.242188.082032-.054687.175782-.105469.261719-.164062v14.683593c0 1.664063-1.515625 3.542969-3.113281 3.863282-24.175781 4.929687-48.691406 4.925781-72.859375 0-1.59375-.320313-3.105469-2.203125-3.105469-3.867188zm39.542969 15.5625c7.960937 0 15.917969-.566406 23.855469-1.578125.804687-.097656 1.613281-.195312 2.417968-.308593 1.660157-.230469 3.320313-.492188 4.980469-.765626.808594-.132812 1.628907-.234374 2.433594-.378906v10.304688h-34.089844v-7.28125c.132813 0 .269531.007812.402344.007812zm-.410156 15.273438h34.089843v3.714844h-34.089843zm99.441406 104.027344h-41.710937v-79.15625c0-14.941407 8.40625-28.378907 21.546874-35.125 12.53125 14.257812 20.15625 32.917968 20.15625 53.359374v60.921876zm0 0"/><path d="m307.015625 128.074219c-3.65625 0-6.621094 2.964843-6.621094 6.621093s2.964844 6.617188 6.621094 6.617188 6.621094-2.960938 6.621094-6.617188-2.964844-6.621093-6.621094-6.621093zm0 0"/><path d="m365.429688 128.074219c-3.65625 0-6.621094 2.964843-6.621094 6.621093s2.964844 6.617188 6.621094 6.617188 6.617187-2.960938 6.617187-6.617188-2.960937-6.621093-6.617187-6.621093zm0 0"/><path d="m337.386719 168.160156c6.359375 0 11.535156-5.171875 11.535156-11.527344 0-2.207031-1.789063-4-4-4-2.214844 0-4 1.792969-4 4 0 1.945313-1.585937 3.527344-3.535156 3.527344-1.945313 0-3.527344-1.582031-3.527344-3.527344 0-2.207031-1.789063-4-4-4s-4 1.792969-4 4c0 6.355469 5.171875 11.527344 11.527344 11.527344zm0 0"/><path d="m374.542969 117.304688-12.964844-2.253907c-2.210937-.363281-4.25 1.078125-4.625 3.253907-.378906 2.175781 1.078125 4.25 3.25 4.628906l12.964844 2.257812c.234375.039063.464843.058594.691406.058594 1.914063 0 3.597656-1.367188 3.9375-3.316406.378906-2.175782-1.078125-4.25-3.253906-4.628906zm0 0"/><path d="m298.585938 125.246094c.226562 0 .453124-.019532.691406-.058594l12.957031-2.257812c2.175781-.378907 3.632813-2.453126 3.253906-4.628907-.378906-2.175781-2.417969-3.621093-4.628906-3.253906l-12.960937 2.253906c-2.175782.382813-3.628907 2.453125-3.25 4.628907.335937 1.949218 2.023437 3.316406 3.9375 3.316406zm0 0"/><path d="m337.386719 185.460938c11.394531 0 17.597656-8.019532 17.855469-8.363282 1.328124-1.75.984374-4.226562-.753907-5.566406-1.734375-1.335938-4.242187-1.011719-5.597656.710938-.167969.210937-4.179687 5.21875-11.5 5.21875-7.441406 0-11.246094-4.882813-11.441406-5.144532-1.292969-1.765625-3.777344-2.160156-5.566407-.875-1.789062 1.292969-2.195312 3.792969-.902343 5.585938.242187.34375 6.21875 8.433594 17.90625 8.433594zm0 0"/><path d="m317.773438 84.367188c12.839843-4.171876 26.40625-4.171876 39.238281 0 .203125.066406.417969.09375.617187.09375.84375 0 1.628906-.535157 1.902344-1.382813.339844-1.046875-.234375-2.175781-1.285156-2.519531-13.644532-4.4375-28.074219-4.4375-41.707032 0-1.050781.339844-1.625 1.472656-1.28125 2.519531.339844 1.046875 1.46875 1.636719 2.515626 1.289063zm0 0"/><path d="m359.277344 166.339844c7.773437 3.246094 12.199218 11.597656 12.246094 11.683594.355468.683593 1.054687 1.074218 1.773437 1.074218.3125 0 .628906-.070312.917969-.222656.980468-.507812 1.363281-1.714844.855468-2.691406-.207031-.398438-5.109374-9.71875-14.253906-13.539063-1.007812-.425781-2.1875.058594-2.613281 1.078125-.421875 1.019532.054687 2.191406 1.074219 2.617188zm0 0"/><path d="m300.558594 178.875c.292968.152344.609375.222656.921875.222656.71875 0 1.414062-.390625 1.773437-1.074218.046875-.085938 4.46875-8.4375 12.246094-11.683594 1.019531-.425782 1.5-1.597656 1.074219-2.617188-.421875-1.019531-1.597657-1.5-2.609375-1.078125-9.140625 3.820313-14.054688 13.140625-14.257813 13.539063-.511719.976562-.128906 2.183594.851563 2.691406zm0 0"/></g></svg>