<?xml version="1.0" encoding="iso-8859-1"?>
<!-- Generator: Adobe Illustrator 19.0.0, SVG Export Plug-In . SVG Version: 6.00 Build 0)  -->
<svg version="1.1" id="Layer_1" xmlns="http://www.w3.org/2000/svg" xmlns:xlink="http://www.w3.org/1999/xlink" x="0px" y="0px"
	 viewBox="0 0 512 512" style="enable-background:new 0 0 512 512;" xml:space="preserve">
<polygon style="fill:#86CBED;" points="360.062,231.986 95.905,231.986 159.943,135.929 296.024,135.929 "/>
<rect x="23.862" y="231.981" style="fill:#E30613;" width="464.276" height="96.055"/>
<g>
	<rect x="464.119" y="312.037" style="fill:#CBBBA0;" width="40.028" height="32.019"/>
	<rect x="7.853" y="312.037" style="fill:#CBBBA0;" width="40.028" height="32.019"/>
</g>
<circle style="fill:#575756;" cx="119.917" cy="328.046" r="48.029"/>
<circle style="fill:#FFFFFF;" cx="119.917" cy="328.046" r="24.014"/>
<circle style="fill:#575756;" cx="392.083" cy="328.046" r="48.029"/>
<circle style="fill:#FFFFFF;" cx="392.083" cy="328.046" r="24.014"/>
<g>
	<rect x="448.11" y="256" style="fill:#F9B233;" width="40.028" height="24.014"/>
	<rect x="23.862" y="256" style="fill:#F9B233;" width="40.028" height="24.014"/>
</g>
<g>
	<path style="fill:#1D1D1B;" d="M392.081,383.924c-30.813,0-55.881-25.068-55.881-55.881s25.068-55.881,55.881-55.881
		s55.881,25.068,55.881,55.881S422.893,383.924,392.081,383.924z M392.081,287.868c-22.153,0-40.176,18.023-40.176,40.176
		c0,22.153,18.023,40.176,40.176,40.176s40.176-18.023,40.176-40.176C432.257,305.89,414.233,287.868,392.081,287.868z"/>
	<path style="fill:#1D1D1B;" d="M392.081,359.91c-17.571,0-31.868-14.295-31.868-31.867c0-17.571,14.295-31.868,31.868-31.868
		c17.572,0,31.868,14.295,31.868,31.868C423.948,345.614,409.652,359.91,392.081,359.91z M392.081,311.881
		c-8.911,0-16.162,7.25-16.162,16.162c0,8.911,7.25,16.161,16.162,16.161s16.162-7.25,16.162-16.161
		C408.242,319.131,400.992,311.881,392.081,311.881z"/>
	<path style="fill:#1D1D1B;" d="M119.919,383.924c-30.813,0-55.881-25.068-55.881-55.881s25.068-55.881,55.881-55.881
		s55.881,25.068,55.881,55.881S150.732,383.924,119.919,383.924z M119.919,287.868c-22.153,0-40.176,18.023-40.176,40.176
		c0,22.153,18.023,40.176,40.176,40.176s40.176-18.023,40.176-40.176C160.095,305.89,142.072,287.868,119.919,287.868z"/>
	<path style="fill:#1D1D1B;" d="M119.919,359.91c-17.571,0-31.868-14.295-31.868-31.867c0-17.571,14.295-31.868,31.868-31.868
		s31.868,14.295,31.868,31.868C151.787,345.614,137.49,359.91,119.919,359.91z M119.919,311.881c-8.911,0-16.162,7.25-16.162,16.162
		c0,8.911,7.25,16.161,16.162,16.161s16.162-7.25,16.162-16.161C136.081,319.131,128.83,311.881,119.919,311.881z"/>
	<rect x="183.954" y="320.194" style="fill:#1D1D1B;" width="144.082" height="15.706"/>
	<rect x="472.275" y="199.963" style="fill:#1D1D1B;" width="15.706" height="16.01"/>
	<rect x="223.982" y="256.157" style="fill:#1D1D1B;" width="24.015" height="15.706"/>
	<rect x="192.11" y="256" style="fill:#1D1D1B;" width="15.706" height="48.029"/>
	<path style="fill:#1D1D1B;" d="M480.284,239.838v8.309H440.26v39.72h40.024v16.314h-24.014v47.725H512v-47.725h-16.01v-80.048
		H364.264l-64.039-96.057H155.741l-64.039,96.057H63.734v-64.189H48.029v64.189H16.01v80.048H0v47.725h55.729v-47.725H31.716
		v-16.314H71.74v-39.72H31.716v-8.309h152.242v-15.706h-73.38l53.568-80.352h127.675l53.568,80.352H207.82v-72.195h-15.706v87.901
		H480.284z M40.024,319.886V336.2H15.706v-16.314H40.024z M56.033,263.853v8.309H31.716v-8.309H56.033z M455.967,272.162v-8.309
		h24.318v8.309H455.967z M496.294,336.2h-24.318v-16.314h24.318V336.2z"/>
	<rect x="48.029" y="135.926" style="fill:#1D1D1B;" width="15.706" height="16.009"/>
</g>
<g>
	
		<rect x="240.144" y="156.621" transform="matrix(-0.7071 -0.7071 0.7071 -0.7071 304.6049 462.0536)" style="fill:#FFFFFF;" width="15.705" height="22.641"/>
	
		<rect x="260.154" y="159.657" transform="matrix(-0.7071 -0.7071 0.7071 -0.7071 324.6102 510.3748)" style="fill:#FFFFFF;" width="15.705" height="56.602"/>
</g>
<g>
</g>
<g>
</g>
<g>
</g>
<g>
</g>
<g>
</g>
<g>
</g>
<g>
</g>
<g>
</g>
<g>
</g>
<g>
</g>
<g>
</g>
<g>
</g>
<g>
</g>
<g>
</g>
<g>
</g>
</svg>
