<svg width="400" height="300" viewBox="0 0 400 300" fill="none" xmlns="http://www.w3.org/2000/svg">
<path d="M159.72 244.24L232.51 203.55L196.78 183.72L133.09 226.09C139.41 229.93 153.51 240.23 159.72 244.24Z" fill="url(#paint0_linear)"/>
<path d="M244.34 46.5C244.34 46.5 248.12 49.36 249.47 52.5C250.82 55.64 250.9 55.82 253.2 57.36C255.5 58.9 254.71 60.36 253.99 62.25C253.27 64.14 252.64 64.46 254.31 66.12C255.98 67.78 257.8 68.98 256.53 70.73C255.26 72.48 254.2 72.79 255.53 74.73C256.86 76.67 258.53 77.67 257.69 79.49C257.69 79.49 243.4 82.03 233.79 78.93C224.18 75.83 229.44 69.64 229.67 69.4C229.9 69.16 234.52 56.14 234.52 56.14" fill="black"/>
<path d="M212.43 208.21L257.83 181.11L239.56 170.31L191.13 196.5C197.45 200.34 206.22 204.2 212.43 208.21Z" fill="url(#paint1_linear)"/>
<path d="M255 166C255 166 249.55 169.2 247 167.72C247 167.72 248.42 178.72 246.12 180.04C243.82 181.36 240.35 184.12 241.42 184.83C242.49 185.54 242.75 186.34 245.95 185.45C248.021 184.841 250.03 184.038 251.95 183.05C251.95 183.05 252.56 177.05 253.72 177.37C254.88 177.69 254.61 182.52 254.61 182.52L257.72 181.22L255 166Z" fill="#CE6D0D"/>
<path d="M245.4 161.17C245.4 161.17 239.95 164.37 237.4 162.89C237.4 162.89 238.82 173.89 236.52 175.21C234.22 176.53 230.75 179.29 231.82 180C232.89 180.71 233.15 181.51 236.35 180.62C238.421 180.011 240.43 179.208 242.35 178.22C242.35 178.22 242.96 172.22 244.12 172.54C245.28 172.86 245.01 177.69 245.01 177.69L248.12 176.39L245.4 161.17Z" fill="#CE6D0D"/>
<path d="M229.58 92.78C229.58 92.78 229.19 113.35 229.41 123.05C229.63 132.75 234.88 163.44 234.88 163.44C234.88 163.44 236.7 166.69 245.28 163.82L246.48 170.05C246.48 170.05 257.25 172.93 263.33 166.31C263.33 166.31 259.57 119.49 258.96 114.31C257.75 104.31 250.96 91.71 250.96 91.71" fill="#F7931E"/>
<path opacity="0.63" d="M239.72 102.3C239.67 101.51 238.43 101.51 238.49 102.3C239.923 122.893 242.183 143.4 245.27 163.82C245.39 164.6 246.58 164.27 246.46 163.49C243.393 143.163 241.147 122.767 239.72 102.3Z" fill="black"/>
<path d="M236.22 139.7L194.44 165.17L171.44 179.17C170.495 179.601 169.605 180.145 168.79 180.79C167.56 182.13 168.1 179.93 169.32 181.25C167.46 179.25 163.52 177.84 161.18 176.46L136.61 162V164.59L178.17 134.72L190.34 126C192.41 124.51 195.81 122.91 197.42 120.91C198.63 119.4 198.42 121.53 196.9 120.23C197.621 120.723 198.384 121.152 199.18 121.51L211.4 128.36L236.23 142.29C237.92 143.24 239.43 140.65 237.74 139.7L198.39 117.63C198.161 117.494 197.901 117.423 197.635 117.423C197.369 117.423 197.109 117.494 196.88 117.63L135.1 162C134.879 162.136 134.696 162.326 134.569 162.553C134.442 162.78 134.376 163.035 134.376 163.295C134.376 163.555 134.442 163.81 134.569 164.037C134.696 164.264 134.879 164.454 135.1 164.59L167.92 183.89C168.149 184.024 168.41 184.094 168.675 184.094C168.94 184.094 169.201 184.024 169.43 183.89L237.74 142.26C239.38 141.29 237.88 138.69 236.22 139.7Z" fill="#42210B"/>
<path d="M168.59 181.54L170 211.86" stroke="#42210B" stroke-miterlimit="10"/>
<path d="M135.92 164.61L139.42 184.9C140.11 188.9 139.63 195.76 143.32 198.08C150.26 202.45 157.69 206.16 164.84 210.18C166.39 211.05 168.54 212.92 170.4 212.81C171.4 212.75 172.69 211.81 173.53 211.43L219.22 191.12L228.16 187.12C229.16 186.68 231 186.26 231.79 185.51C232.86 184.51 232.79 182.8 233.01 181.38L234.81 170.15C236.23 161.3 237.54 152.42 239.06 143.58C239.5 141.04 240.06 138.58 240.67 136.03C241.28 133.48 240.67 134.39 242.36 132.47L246.25 128.1C246.41 127.936 246.53 127.739 246.603 127.522C246.675 127.305 246.698 127.074 246.669 126.848C246.64 126.621 246.561 126.403 246.436 126.212C246.312 126.02 246.145 125.859 245.95 125.74L226 115.57L212.72 108.77C211.12 107.95 208.46 105.77 206.6 105.67C204.42 105.5 199.34 108.98 197.93 110.52C196.22 112.39 196.35 116.46 196.11 118.96C195.39 126.21 195.23 133.57 194.8 140.85L193.25 166.74C193.13 168.67 196.13 168.66 196.25 166.74L199 121.21C199.15 118.65 199.55 117.21 199.8 114.37C199.8 113.95 200.34 111.89 199.8 112.74C199.26 113.59 200.8 112.25 201.26 111.98C202.96 110.91 205.26 109.98 206.71 108.57C205.95 109.29 204.95 107.81 206.71 109.03C207.963 109.784 209.266 110.453 210.61 111.03L222.76 117.25L244.45 128.36L244.15 126C242.4 128 239.74 130 238.52 132.36C237.3 134.72 236.96 138.59 236.43 141.36C235.43 146.65 234.71 152.03 233.86 157.36L230 181.14C229.911 181.959 229.781 182.774 229.61 183.58C229.52 183.93 230.9 182.76 229.73 183.18C227.88 183.84 226.1 184.8 224.31 185.59L179 205.76L171.49 209.1C170.867 209.269 170.274 209.532 169.73 209.88C169.06 210.6 170.79 210.51 170.37 209.83C169.31 208.07 164.07 206.29 162.37 205.3L150.63 198.7L145.58 195.86C145.11 195.59 144.58 195.34 144.16 195.06C143.33 194.57 144.27 195.22 144.4 195.61C143.5 192.9 143.4 189.61 142.89 186.85L138.89 163.85C138.56 161.95 135.67 162.76 136 164.65L135.92 164.61Z" fill="#42210B"/>
<path d="M208.66 105.6C208.66 105.6 205.01 106.84 206.36 111.14L236 125.51C236 125.51 240.71 125.33 240.77 120.86L208.66 105.6Z" fill="#F8D55F"/>
<path d="M146.73 223.1C148.431 223.1 149.81 221.64 149.81 219.84C149.81 218.04 148.431 216.58 146.73 216.58C145.029 216.58 143.65 218.04 143.65 219.84C143.65 221.64 145.029 223.1 146.73 223.1Z" fill="#42210B"/>
<path d="M170 233.79C171.701 233.79 173.08 232.33 173.08 230.53C173.08 228.73 171.701 227.27 170 227.27C168.299 227.27 166.92 228.73 166.92 230.53C166.92 232.33 168.299 233.79 170 233.79Z" fill="#42210B"/>
<path d="M229.42 206.81C231.121 206.81 232.5 205.35 232.5 203.55C232.5 201.75 231.121 200.29 229.42 200.29C227.719 200.29 226.34 201.75 226.34 203.55C226.34 205.35 227.719 206.81 229.42 206.81Z" fill="#42210B"/>
<path d="M145.9 169.23L149.06 199.6" stroke="#42210B" stroke-miterlimit="10"/>
<path d="M232.5 173.84C232.5 173.84 169.5 202.31 169.56 202.67L141.06 185.67L195.5 154.24L232.5 173.82" stroke="#42210B" stroke-miterlimit="10"/>
<path d="M181.16 176.41L182.24 205.93" stroke="#42210B" stroke-miterlimit="10"/>
<path d="M193.32 169.23L193.99 200.71" stroke="#42210B" stroke-miterlimit="10"/>
<path d="M208.88 159.24L206.86 194.99" stroke="#42210B" stroke-miterlimit="10"/>
<path d="M223.97 150.01L219.75 189.26" stroke="#42210B" stroke-miterlimit="10"/>
<path d="M235 158.12L196.83 138.33C196.83 138.33 139 173.66 139 173.84L169.67 191.84L234.77 161" stroke="#42210B" stroke-miterlimit="10"/>
<path d="M142.86 196.11L194.76 166.73L231.04 184.24L230.42 197.51L170 226.09L147.26 214.53L160.59 206.08L158.17 176.45" stroke="#42210B" stroke-miterlimit="10"/>
<path d="M210.91 126.37C210.81 127.25 206.06 172.18 206.06 172.18" stroke="#42210B" stroke-miterlimit="10"/>
<path d="M225.82 134.74L220.31 179.06" stroke="#42210B" stroke-miterlimit="10"/>
<path d="M184.24 129.85C184.24 130.53 185.13 172.18 185.13 172.18" stroke="#42210B" stroke-miterlimit="10"/>
<path d="M171.7 137.57C171.95 137.39 173.82 179.5 173.82 179.5" stroke="#42210B" stroke-miterlimit="10"/>
<path d="M158.36 147.15L161.08 179.06" stroke="#42210B" stroke-miterlimit="10"/>
<path d="M147.48 155C147.07 155.29 149.48 171.39 149.48 171.39" stroke="#42210B" stroke-miterlimit="10"/>
<path d="M166.22 150.12V140.39C166.22 138.15 165.94 135.55 166.52 133.39C167.21 130.79 170.52 127.29 173.35 129.39C174.81 130.45 174.86 132.63 174.88 134.26C174.88 137.75 174.88 141.26 174.88 144.74C174.903 144.953 175.004 145.151 175.164 145.294C175.323 145.438 175.53 145.517 175.745 145.517C175.96 145.517 176.167 145.438 176.326 145.294C176.486 145.151 176.587 144.953 176.61 144.74C176.61 140.67 177.04 136.37 176.51 132.33C175.87 127.5 171.19 125.45 167.27 128.8C164.63 131.06 164.48 134.48 164.48 137.68V150.16C164.503 150.373 164.604 150.571 164.764 150.714C164.923 150.858 165.13 150.937 165.345 150.937C165.56 150.937 165.767 150.858 165.926 150.714C166.086 150.571 166.187 150.373 166.21 150.16L166.22 150.12Z" fill="#F7931E"/>
<path d="M156.38 144.64L180.99 130.52L189.01 134.29L166.01 153.26L156.38 144.64Z" fill="#68E1FD"/>
<path opacity="0.63" d="M156.38 144.64L180.99 130.52L189.01 134.29L166.01 153.26L156.38 144.64Z" fill="black"/>
<path d="M166.65 148.53C167.36 148.1 189.06 134.4 189.06 134.4L196.2 170.4L165.94 186.96L166.65 148.53Z" fill="#D18840"/>
<path d="M166.65 148.53L156.37 144.53L151.44 181.18L165.93 186.93" fill="#68E1FD"/>
<path d="M166.65 148.53L156.37 144.53L151.44 181.18L165.93 186.93" fill="#A36C36"/>
<path d="M173.93 152.36V142.63C173.93 140.39 173.65 137.79 174.23 135.63C174.92 133.03 178.23 129.53 181.06 131.63C182.52 132.69 182.57 134.87 182.59 136.5C182.59 139.99 182.59 143.5 182.59 146.98C182.613 147.193 182.714 147.391 182.874 147.534C183.033 147.678 183.24 147.757 183.455 147.757C183.67 147.757 183.877 147.678 184.036 147.534C184.196 147.391 184.297 147.193 184.32 146.98C184.32 142.91 184.75 138.61 184.22 134.57C183.58 129.74 178.9 127.69 174.98 131.04C172.34 133.3 172.19 136.72 172.19 139.92V152.4C172.213 152.613 172.314 152.811 172.474 152.954C172.633 153.098 172.84 153.177 173.055 153.177C173.27 153.177 173.477 153.098 173.636 152.954C173.796 152.811 173.897 152.613 173.92 152.4L173.93 152.36Z" fill="#F7931E"/>
<path d="M175.69 172.44L223.69 144.73V170.83C223.69 170.83 175.69 199.47 175.69 198.54V172.44Z" fill="#E55A5A"/>
<path d="M175.69 172.44L166.91 168.52V194.62L175.69 198.53V172.44Z" fill="#C13030"/>
<path d="M166.91 168.55L175.69 173.83L223.72 144.73L215.69 140.2L166.91 168.55Z" fill="#FF9C9C"/>
<path d="M237.75 139.7L236.91 139.23C236.831 139.299 236.747 139.362 236.66 139.42C235.74 139.98 234.784 140.481 233.8 140.92L234.03 141.05L194.46 165.17L171.46 179.17C170.52 179.598 169.634 180.135 168.82 180.77C166.82 179.01 163.35 177.77 161.19 176.46L138.61 163.2H138.66C137.72 162.71 136.81 162.12 135.87 161.55L135.13 162.08C134.909 162.216 134.726 162.406 134.599 162.633C134.472 162.86 134.406 163.115 134.406 163.375C134.406 163.635 134.472 163.89 134.599 164.117C134.726 164.344 134.909 164.534 135.13 164.67L167.95 183.97C168.179 184.104 168.44 184.174 168.705 184.174C168.97 184.174 169.231 184.104 169.46 183.97L237.77 142.34C237.965 142.23 238.131 142.074 238.253 141.886C238.374 141.698 238.449 141.483 238.47 141.26C238.552 140.957 238.525 140.635 238.393 140.349C238.261 140.064 238.034 139.834 237.75 139.7V139.7Z" fill="#42210B"/>
<path d="M196.92 120.23C197.035 120.324 197.155 120.41 197.28 120.49C197.153 120.414 197.032 120.327 196.92 120.23V120.23Z" fill="#42210B"/>
<path d="M197.67 120.66C198.42 119.9 198.41 120.83 197.67 120.66V120.66Z" fill="#42210B"/>
<path d="M168.75 180.86C167.75 181.86 167.99 180.63 168.75 180.86V180.86Z" fill="#42210B"/>
<path d="M169.1 181C169.186 181.067 169.266 181.14 169.34 181.22C169.26 181.19 169.17 181.12 169.1 181Z" fill="#42210B"/>
<path d="M169.101 181.525L168.102 181.571L169.506 211.889L170.505 211.842L169.101 181.525Z" fill="#42210B"/>
<path d="M246 125.78L226 115.57L212.72 108.77C211.12 107.95 208.46 105.77 206.6 105.67C204.42 105.5 199.34 108.98 197.93 110.52C196.52 112.06 196.38 114.82 196.23 117.18C197.29 117.18 198.35 117.31 199.41 117.38C199.54 116.5 199.67 115.57 199.77 114.38C199.77 114.13 199.98 113.29 200.02 112.84C200.4 112.61 201.02 112.14 201.25 111.99C203.034 111.063 204.751 110.014 206.39 108.85L206.67 109.04C207.923 109.794 209.226 110.463 210.57 111.04L222.72 117.26L242.72 127.48C241.091 128.894 239.676 130.538 238.52 132.36C237.23 134.82 236.96 138.59 236.43 141.36C235.43 146.65 234.71 152.03 233.86 157.36L230 181.14C229.89 181.81 229.83 182.52 229.69 183.19C227.86 183.85 226.08 184.8 224.3 185.59L179 205.76L171.49 209.1C171.18 209.24 170.62 209.39 170.19 209.59C168.82 207.91 163.99 206.25 162.32 205.31L150.58 198.71L145.53 195.87L144.2 195.12C143.44 192.52 143.29 189.5 142.84 186.87L138.84 163.87C138.51 161.97 135.62 162.78 135.95 164.67C137.12 171.43 138.71 178.14 139.45 184.96C139.9 189.09 139.66 195.82 143.35 198.14C150.29 202.51 157.72 206.22 164.87 210.24C166.42 211.11 168.57 212.98 170.43 212.87C171.43 212.81 172.72 211.87 173.56 211.49L219.25 191.18L228.19 187.18C229.19 186.74 231.03 186.32 231.82 185.57C232.89 184.57 232.82 182.86 233.04 181.44L234.84 170.21C236.26 161.36 237.57 152.48 239.09 143.64C239.53 141.1 240.09 138.64 240.7 136.09C241.31 133.54 240.7 134.45 242.39 132.53L246.28 128.16C246.444 127.998 246.569 127.8 246.646 127.582C246.722 127.364 246.748 127.131 246.721 126.902C246.694 126.672 246.615 126.452 246.49 126.258C246.365 126.063 246.197 125.9 246 125.78V125.78ZM206.35 108.78C205.8 108.84 205.42 108.21 206.35 108.78V108.78Z" fill="#42210B"/>
<path d="M208.68 105.6C208.68 105.6 205.03 106.84 206.38 111.14L236 125.51C236 125.51 240.71 125.33 240.77 120.86L208.68 105.6Z" fill="#F8D55F"/>
<path d="M146.75 223.1C148.451 223.1 149.83 221.64 149.83 219.84C149.83 218.04 148.451 216.58 146.75 216.58C145.049 216.58 143.67 218.04 143.67 219.84C143.67 221.64 145.049 223.1 146.75 223.1Z" fill="#42210B"/>
<path d="M170.01 233.79C171.711 233.79 173.09 232.33 173.09 230.53C173.09 228.73 171.711 227.27 170.01 227.27C168.309 227.27 166.93 228.73 166.93 230.53C166.93 232.33 168.309 233.79 170.01 233.79Z" fill="#42210B"/>
<path d="M229.44 206.81C231.141 206.81 232.52 205.35 232.52 203.55C232.52 201.75 231.141 200.29 229.44 200.29C227.739 200.29 226.36 201.75 226.36 203.55C226.36 205.35 227.739 206.81 229.44 206.81Z" fill="#42210B"/>
<path d="M146.427 169.167L145.432 169.271L148.597 199.636L149.592 199.533L146.427 169.167Z" fill="#42210B"/>
<path d="M233.66 173.88L206.66 159.59L205.66 160.17L231.42 173.81C227.82 175.44 214.35 181.54 200.87 187.67C177.43 198.34 171.28 201.17 169.68 202.12L142.07 185.7L158.73 176.08L157.73 175.49L140.1 185.69L170.1 203.58V202.95C173.45 201.19 212.1 183.62 232.73 174.31L233.66 173.88Z" fill="#42210B"/>
<path d="M181.672 176.404L180.672 176.441L181.755 205.961L182.754 205.924L181.672 176.404Z" fill="#42210B"/>
<path d="M193.839 169.217L192.839 169.239L193.51 200.712L194.509 200.69L193.839 169.217Z" fill="#42210B"/>
<path d="M208.417 159.226L206.387 194.969L207.385 195.025L209.415 159.283L208.417 159.226Z" fill="#42210B"/>
<path d="M223.467 149.944L219.265 189.2L220.259 189.307L224.461 150.051L223.467 149.944Z" fill="#42210B"/>
<path d="M221.77 150.68L220.77 151.27L234.84 158.56L235.3 157.67L221.77 150.68Z" fill="#42210B"/>
<path d="M169.74 191.28L140 173.82C141.1 173.12 143.57 171.59 146.94 169.51C146.64 169.31 146.34 169.09 146.05 168.88C138.51 173.54 138.52 173.65 138.57 173.94V174.17L169.44 192.29L169.67 192.42L234.98 161.42L234.55 160.52L169.74 191.28Z" fill="#42210B"/>
<path d="M170 226.64L146.26 214.58L160.07 205.82L158.6 187.82L143.12 196.58L142.63 195.71L158.52 186.71L157.69 176.52L158.69 176.44L159.48 186.17L194.76 166.17L231.58 183.94L230.93 197.84L170 226.64ZM148.28 214.48L170.02 225.48L230 197.19L230.59 184.55L194.8 167.29L159.57 187.23L161.13 206.33L148.28 214.48Z" fill="#42210B"/>
<path d="M250.8 86.1C250.59 81.92 254.07 68.38 250.95 65.21C250.26 64.86 245.43 61.12 244.73 60.79C242.388 59.5902 239.703 59.2369 237.13 59.79C234.152 60.4402 231.325 61.6518 228.8 63.36C223.1 67.03 227.11 84.13 229.58 92.79C236.07 96.32 244.64 95.64 250.95 91.79C250.8 86.1 251.08 91.74 250.8 86.1Z" fill="#F7931E"/>
<path d="M232.46 51.62C232.25 52.4 232.09 61.48 237.83 62.06C243.57 62.64 244.53 55.36 244.13 51.62C243.73 47.88 234.36 44.58 232.46 51.62Z" fill="#E3B96E"/>
<path d="M232.38 55.29C232.52 55.59 235.26 52.04 236.56 50.29C236.56 50.29 238.3 58.19 243.56 56.23C242.898 57.5723 242.388 58.9844 242.04 60.44C242.04 60.44 245.77 58.89 246.13 53.03C246.49 47.17 243.55 44.78 239.57 44.54C236.87 44.4 228.24 46.54 232.38 55.29Z" fill="black"/>
<path d="M244.22 56C244.072 55.8002 243.854 55.6629 243.61 55.6148C243.366 55.5668 243.113 55.6114 242.9 55.74C242.331 56.1647 241.94 56.7843 241.8 57.48C241.784 57.537 241.782 57.597 241.794 57.655C241.805 57.713 241.831 57.7673 241.868 57.8134C241.906 57.8595 241.953 57.8959 242.008 57.9197C242.062 57.9434 242.121 57.9538 242.18 57.95L241.98 58.23C241.947 58.2711 241.923 58.3189 241.91 58.37C241.57 58.66 241.91 59.26 242.34 59C242.913 58.6373 243.412 58.169 243.81 57.62C244.11 57.23 244.56 56.57 244.22 56Z" fill="#E3B96E"/>
<path d="M211.74 111.73C213.07 109.73 214.74 107.96 216.28 106.09C217.1 105.09 217.91 104.09 218.75 103.09C217.88 101.36 214.66 102.96 213.43 100.9C211.551 101.975 209.843 103.323 208.36 104.9C208.226 105.024 208.138 105.19 208.11 105.37C207.296 105.807 206.634 106.479 206.21 107.3C206.161 107.445 206.151 107.6 206.182 107.75C206.212 107.9 206.281 108.04 206.383 108.154C206.484 108.269 206.614 108.355 206.759 108.403C206.905 108.452 207.06 108.461 207.21 108.43L207.49 108.36C207.26 108.63 207.05 108.91 206.84 109.2C206.537 109.521 206.3 109.898 206.14 110.31C206.102 110.426 206.09 110.549 206.104 110.671C206.117 110.792 206.157 110.909 206.219 111.014C206.282 111.119 206.366 111.21 206.466 111.28C206.566 111.35 206.68 111.398 206.8 111.42C206.29 112.15 206.06 112.97 207.27 113.27H207.35C207.525 113.334 207.716 113.341 207.895 113.291C208.074 113.241 208.234 113.135 208.35 112.99C208.58 112.71 208.84 112.46 209.07 112.18C209.073 112.397 209.152 112.607 209.292 112.773C209.433 112.939 209.626 113.051 209.84 113.09C209.908 113.155 209.99 113.205 210.078 113.237C210.167 113.268 210.261 113.282 210.355 113.275C210.449 113.268 210.541 113.242 210.624 113.198C210.708 113.155 210.781 113.094 210.84 113.02L211.5 112.28C211.558 112.088 211.638 111.903 211.74 111.73V111.73Z" fill="#E3B96E"/>
<path d="M230.27 105.66C229.53 106.66 226.1 113.06 225.27 113.99L223.03 117.07C222.969 117.143 222.924 117.228 222.897 117.319C222.871 117.411 222.864 117.507 222.878 117.601C222.891 117.695 222.924 117.786 222.974 117.867C223.024 117.947 223.091 118.017 223.17 118.07C223.254 118.27 223.404 118.435 223.595 118.537C223.786 118.639 224.007 118.672 224.22 118.63C224 118.92 223.8 119.22 223.58 119.5C223.469 119.64 223.403 119.811 223.391 119.989C223.378 120.168 223.42 120.346 223.51 120.5C223.51 120.5 223.51 120.5 223.51 120.57C224.06 121.69 224.82 121.29 225.42 120.64C225.467 120.753 225.538 120.855 225.628 120.939C225.718 121.023 225.825 121.086 225.942 121.125C226.058 121.164 226.182 121.177 226.304 121.164C226.426 121.151 226.544 121.112 226.65 121.05C227.02 120.807 227.339 120.494 227.59 120.13C227.84 119.87 228.06 119.6 228.28 119.32C228.28 119.42 228.28 119.51 228.28 119.61C228.284 119.761 228.327 119.909 228.405 120.039C228.483 120.169 228.594 120.276 228.726 120.35C228.859 120.423 229.008 120.461 229.159 120.46C229.311 120.458 229.459 120.417 229.59 120.34C230.304 119.754 230.823 118.967 231.08 118.08C231.251 118.016 231.396 117.896 231.49 117.74C232.58 115.92 235.89 109.49 236.39 107.41C234.23 106.67 232.68 105.59 230.27 105.66Z" fill="#E3B96E"/>
<path d="M227.49 111L223.43 112.61L226.02 113.85" fill="#E3B96E"/>
<path d="M227.49 107.12C227.49 107.12 232.49 111.7 236.96 111C236.96 111 246.9 93.19 248.57 86.72C250.24 80.25 252.29 66.81 248.57 65.82C244.85 64.83 240.57 68.15 239.57 72.43C238.57 76.71 237.38 90.2 237.38 90.2L227.49 107.12Z" fill="#F7931E"/>
<path d="M209.44 99.88C209.44 99.88 213.74 105.09 218.29 105.01C218.29 105.01 230.56 88.72 233.1 82.54C235.64 76.36 239.5 63.32 235.95 61.84C232.4 60.36 227.67 63.06 226.17 67.16C223.75 73.8 222.45 81.54 218.57 87.52C217.26 89.52 215.57 91.35 214.2 93.31L209.44 99.88Z" fill="#F7931E"/>
<path d="M216.97 105.24V109.65L214.34 108.4L216.97 105.24Z" fill="#E3B96E"/>
<path d="M230.25 74.45C230.25 74.3174 230.197 74.1902 230.104 74.0964C230.01 74.0027 229.883 73.95 229.75 73.95C229.617 73.95 229.49 74.0027 229.396 74.0964C229.303 74.1902 229.25 74.3174 229.25 74.45C229.083 80.3367 229.083 86.2233 229.25 92.11C229.25 92.75 230.25 92.75 230.25 92.11C230.083 86.2233 230.083 80.3367 230.25 74.45Z" fill="#CE6D0D"/>
<path d="M245.66 94.1L250.66 81.52L250.95 91.75L245.66 94.1Z" fill="#CE6D0D"/>
<path d="M240.55 77.41C238.325 87.7412 233.939 97.4847 227.68 106C227.3 106.52 228.17 107 228.54 106.5C234.863 97.9026 239.294 88.0633 241.54 77.63C241.65 77 240.68 76.78 240.55 77.41Z" fill="#CE6D0D"/>
<defs>
<linearGradient id="paint0_linear" x1="175.87" y1="217.18" x2="280.97" y2="153.35" gradientUnits="userSpaceOnUse">
<stop stop-opacity="0"/>
<stop offset="1" stop-color="#2E3192"/>
</linearGradient>
<linearGradient id="paint1_linear" x1="216.6" y1="195.25" x2="253.47" y2="165.06" gradientUnits="userSpaceOnUse">
<stop stop-color="#808080" stop-opacity="0"/>
<stop offset="1" stop-color="#2E3192"/>
</linearGradient>
</defs>
</svg>
