<svg width="400" height="300" viewBox="0 0 400 300" fill="none" xmlns="http://www.w3.org/2000/svg">
<path d="M63.9681 205.193L179.418 271.803C180.193 272.253 181.072 272.49 181.968 272.49C182.864 272.49 183.743 272.253 184.518 271.803L345.688 177.893C346.456 177.446 347.093 176.806 347.536 176.035C347.979 175.265 348.212 174.392 348.212 173.503C348.212 172.615 347.979 171.742 347.536 170.972C347.093 170.201 346.456 169.561 345.688 169.113L227.838 100.683C227.065 100.236 226.187 100 225.293 100C224.399 100 223.521 100.236 222.748 100.683L60.5281 194.603C59.7431 195.06 59.0947 195.718 58.6503 196.509C58.2059 197.301 57.9818 198.197 58.0012 199.105C58.0206 200.012 58.2828 200.898 58.7606 201.67C59.2384 202.442 59.9143 203.071 60.7181 203.493L63.9681 205.193Z" fill="#FFC107" fill-opacity="0.2"/>
</svg>
