<?xml version="1.0" standalone="no"?>
<!DOCTYPE svg PUBLIC "-//W3C//DTD SVG 20010904//EN"
 "http://www.w3.org/TR/2001/REC-SVG-20010904/DTD/svg10.dtd">
<svg version="1.0" xmlns="http://www.w3.org/2000/svg"
 width="700.000000pt" height="700.000000pt" viewBox="0 0 700.000000 700.000000"
 preserveAspectRatio="xMidYMid meet">
<metadata>
Created by potrace 1.11, written by Peter Selinger 2001-2013
</metadata>
<g transform="translate(0.000000,700.000000) scale(0.100000,-0.100000)"
fill="#000000" stroke="none">
<path d="M3368 6405 c-2 -2 -49 -6 -106 -10 -57 -3 -113 -8 -125 -10 -12 -2
-56 -9 -97 -15 -887 -139 -1679 -706 -2109 -1510 -75 -141 -190 -421 -217
-529 -2 -9 -17 -67 -33 -130 -16 -62 -32 -129 -35 -150 -12 -74 -17 -107 -27
-160 -31 -180 -31 -556 1 -785 98 -696 426 -1306 961 -1787 205 -184 525 -388
759 -484 36 -14 79 -32 95 -40 84 -37 371 -123 468 -139 15 -3 35 -7 45 -10
29 -9 222 -35 317 -43 159 -13 475 -7 595 12 184 29 242 40 342 65 553 138
1046 433 1435 855 140 152 259 312 371 495 46 76 172 341 207 435 36 94 90
265 100 310 2 11 13 61 24 110 22 101 28 129 37 194 3 25 8 57 10 71 18 115
24 417 10 580 -53 659 -319 1261 -775 1755 -48 51 -214 208 -260 245 -24 19
-49 40 -56 47 -31 29 -233 167 -333 227 -329 197 -746 339 -1117 380 -27 3
-75 8 -105 12 -52 6 -377 13 -382 9z m-62 -991 c130 -62 157 -239 55 -356 -24
-29 -29 -44 -35 -115 l-7 -83 68 -1 c214 -1 485 -78 655 -185 l37 -24 10 38
c6 20 20 81 31 135 20 93 21 101 5 140 -37 91 -28 202 23 279 101 154 348 133
449 -39 74 -126 -1 -311 -151 -373 -48 -20 -57 -30 -136 -151 l-85 -129 95
-98 c101 -104 185 -221 245 -339 19 -40 39 -73 44 -73 8 0 279 127 371 173 25
13 51 35 58 49 26 54 103 127 168 159 173 85 351 31 435 -132 81 -160 40 -356
-93 -447 -61 -42 -112 -55 -203 -55 -88 0 -153 23 -233 80 -34 25 -49 30 -89
27 -26 -1 -97 -6 -158 -9 -60 -4 -129 -8 -153 -10 -23 -1 -44 -4 -47 -6 -2 -2
3 -31 10 -64 24 -106 26 -128 30 -270 4 -139 -9 -254 -39 -370 l-13 -51 86 1
c67 1 95 6 127 23 149 77 316 -27 299 -186 -19 -178 -209 -251 -338 -129 -24
23 -46 48 -48 55 -3 10 -156 71 -180 72 -3 0 -20 -28 -38 -62 -87 -165 -232
-343 -352 -435 l-50 -38 28 -25 c16 -14 48 -41 72 -60 24 -19 49 -39 55 -45
75 -65 99 -77 154 -80 134 -7 257 -95 298 -212 54 -152 -28 -315 -195 -388
-57 -25 -172 -25 -221 0 -129 65 -206 207 -189 345 7 54 6 58 -69 208 -57 114
-80 152 -92 148 -8 -2 -55 -22 -105 -44 -80 -35 -209 -77 -269 -87 -112 -20
-168 -25 -269 -25 -65 0 -116 -4 -113 -8 3 -5 7 -30 11 -58 12 -109 18 -130
41 -161 122 -161 24 -367 -171 -357 -61 3 -92 14 -134 49 -96 82 -95 230 3
328 31 32 40 51 60 135 l23 99 -96 27 c-191 54 -422 189 -563 330 -31 31 -59
56 -63 56 -8 0 -42 -29 -131 -109 -28 -25 -77 -68 -109 -96 -32 -27 -65 -57
-75 -65 -9 -8 -23 -40 -30 -70 -26 -115 -106 -217 -210 -268 -47 -23 -68 -27
-140 -27 -100 0 -156 22 -223 89 -95 93 -137 221 -113 341 22 110 122 207 247
240 63 17 167 12 229 -10 43 -15 47 -15 155 15 60 18 154 45 208 61 l97 30
-24 32 c-36 48 -110 193 -139 272 -64 175 -85 295 -83 482 1 89 -3 143 -9 144
-5 1 -57 2 -115 3 -85 1 -110 -2 -131 -16 -69 -46 -157 -56 -233 -27 -94 35
-139 104 -139 210 1 137 96 239 224 239 84 0 168 -47 215 -121 13 -22 37 -44
52 -50 15 -6 43 -17 62 -25 19 -9 50 -22 69 -30 18 -8 34 -14 35 -12 1 2 14
44 30 93 56 176 160 359 279 490 39 43 51 63 43 70 -41 36 -244 160 -265 162
-67 5 -104 14 -141 33 -143 73 -200 222 -136 354 52 106 153 170 268 170 57
-1 74 -5 120 -33 96 -58 149 -163 143 -282 l-3 -64 78 -116 77 -117 74 50
c117 78 298 161 404 184 95 21 128 30 127 37 0 4 -12 43 -27 86 -18 56 -37 91
-66 122 -90 98 -87 254 7 326 69 52 173 63 250 27z"/>
<path d="M3172 5293 c-29 -6 -54 -44 -48 -74 8 -43 17 -58 53 -85 l36 -27 34
36 c71 79 26 170 -75 150z"/>
<path d="M4299 5195 c-59 -32 -72 -119 -30 -203 10 -21 17 -50 15 -67 l-4 -30
19 22 c10 12 39 27 64 34 26 6 60 24 76 40 73 69 55 166 -38 205 -42 17 -69
17 -102 -1z"/>
<path d="M2075 5049 c-71 -19 -126 -115 -100 -175 27 -63 84 -94 171 -94 45 0
62 -5 90 -27 l36 -27 -22 42 c-18 33 -20 48 -12 70 5 15 8 45 7 67 -7 106 -81
168 -170 144z"/>
<path d="M3464 4514 c-58 -21 -120 -77 -151 -138 -37 -70 -39 -189 -4 -255 93
-178 318 -216 456 -77 146 145 98 385 -92 467 -54 23 -149 24 -209 3z m172
-159 c37 -24 56 -60 56 -110 2 -95 -78 -148 -177 -118 -38 11 -75 66 -77 115
-4 99 116 167 198 113z"/>
<path d="M5316 4314 c-55 -14 -111 -55 -141 -103 -55 -88 -60 -92 -153 -135
l-92 -43 103 1 104 1 43 -38 c56 -51 102 -69 177 -70 54 -1 68 3 104 28 51 36
79 88 80 146 3 149 -99 246 -225 213z"/>
<path d="M1563 3905 c-26 -18 -43 -71 -36 -108 14 -75 107 -81 195 -13 17 12
17 15 -1 52 -11 22 -28 47 -39 57 -29 26 -91 32 -119 12z"/>
<path d="M2659 3619 c-62 -9 -100 -31 -142 -79 -88 -103 -70 -261 38 -339 48
-35 113 -52 168 -45 101 12 192 102 204 202 18 155 -114 284 -268 261z m70
-164 c48 -24 56 -81 16 -120 -30 -31 -66 -32 -100 -2 -44 38 -34 106 20 127
28 12 33 12 64 -5z"/>
<path d="M3789 3513 c-63 -21 -137 -78 -177 -137 -93 -138 -76 -323 41 -440
171 -170 447 -124 558 94 28 55 33 75 33 140 0 92 -14 143 -58 207 -87 127
-254 184 -397 136z m219 -176 c55 -36 86 -105 79 -174 -11 -107 -96 -179 -202
-171 -108 9 -182 95 -173 203 13 151 169 226 296 142z"/>
<path d="M4955 3021 c-11 -3 -31 -13 -43 -22 -18 -13 -21 -21 -13 -41 19 -50
76 -71 105 -39 47 52 15 120 -49 102z"/>
<path d="M1928 2478 l-96 -29 -47 21 c-58 27 -137 32 -195 14 -51 -16 -75 -34
-109 -82 -45 -64 -23 -178 47 -251 78 -82 185 -80 275 3 37 34 77 122 77 170
0 40 9 52 108 139 24 21 42 40 40 41 -1 1 -47 -11 -100 -26z"/>
<path d="M4260 2135 c0 -3 11 -23 25 -45 26 -42 29 -61 19 -157 -5 -52 -3 -68
17 -108 40 -80 108 -115 183 -94 97 28 164 137 131 216 -31 73 -103 114 -206
117 -57 2 -71 6 -105 32 -47 37 -64 47 -64 39z"/>
<path d="M3110 1859 c-50 -31 -66 -101 -30 -134 27 -25 96 -24 115 1 27 36 15
87 -31 130 -22 21 -23 21 -54 3z"/>
</g>
</svg>
