<?xml version="1.0" standalone="no"?>
<!DOCTYPE svg PUBLIC "-//W3C//DTD SVG 20010904//EN"
 "http://www.w3.org/TR/2001/REC-SVG-20010904/DTD/svg10.dtd">
<svg version="1.0" xmlns="http://www.w3.org/2000/svg"
 width="700.000000pt" height="700.000000pt" viewBox="0 0 700.000000 700.000000"
 preserveAspectRatio="xMidYMid meet">
<metadata>
Created by potrace 1.11, written by Peter Selinger 2001-2013
</metadata>
<g transform="translate(0.000000,700.000000) scale(0.100000,-0.100000)"
fill="#000000" stroke="none">
<path d="M3404 5476 c-28 -13 -95 -62 -149 -110 -58 -51 -107 -86 -120 -86
-12 0 -73 18 -136 40 -135 47 -208 52 -275 19 -62 -29 -99 -77 -160 -205 -33
-69 -63 -118 -77 -126 -12 -6 -74 -15 -137 -19 -173 -10 -238 -34 -287 -108
-33 -49 -44 -100 -53 -238 -4 -76 -12 -128 -20 -138 -7 -9 -61 -39 -119 -66
-238 -114 -275 -199 -191 -438 22 -63 40 -124 40 -136 0 -13 -35 -62 -86 -120
-179 -203 -179 -284 0 -489 50 -58 86 -109 86 -121 0 -12 -18 -73 -40 -136
-47 -135 -52 -208 -19 -275 29 -62 76 -98 205 -159 70 -34 118 -64 126 -77 6
-13 15 -75 19 -138 10 -173 34 -238 108 -287 49 -33 100 -44 238 -53 81 -5
128 -12 139 -21 10 -8 39 -61 66 -119 110 -235 198 -273 437 -190 63 22 125
40 136 40 13 0 62 -35 121 -87 121 -106 184 -138 259 -130 72 7 114 31 229
131 59 51 109 86 121 86 12 0 74 -18 138 -40 136 -47 206 -52 273 -19 62 29
99 77 160 205 33 69 63 118 77 126 12 6 74 15 137 19 173 10 238 34 287 108
33 49 44 100 53 238 4 79 12 128 21 139 7 9 63 40 124 69 128 63 175 99 204
158 33 69 28 141 -19 276 -22 63 -40 125 -40 136 0 13 35 62 87 121 178 203
177 286 -1 489 -52 59 -86 107 -86 120 0 12 18 74 40 138 47 136 52 206 19
273 -29 62 -77 99 -205 160 -69 33 -118 63 -126 77 -6 12 -15 74 -19 137 -10
173 -34 238 -108 287 -49 33 -100 44 -238 53 -79 4 -128 12 -139 21 -9 7 -40
63 -69 124 -63 128 -99 175 -158 204 -69 33 -141 28 -276 -19 -63 -22 -125
-40 -136 -40 -13 0 -62 35 -121 87 -153 134 -232 159 -340 109z m213 -247
c155 -143 227 -161 398 -99 135 48 171 56 189 40 9 -7 40 -63 70 -124 94 -196
133 -223 343 -237 74 -5 143 -13 153 -19 24 -13 27 -27 35 -163 12 -209 43
-255 234 -350 69 -34 129 -70 135 -79 7 -12 -1 -49 -34 -145 -74 -214 -63
-268 91 -438 103 -114 103 -117 -1 -230 -146 -160 -160 -229 -90 -426 44 -122
48 -150 25 -169 -8 -7 -64 -36 -123 -65 -131 -63 -172 -98 -202 -167 -20 -47
-36 -166 -39 -295 -2 -48 -29 -59 -158 -67 -225 -12 -270 -41 -366 -235 -34
-69 -70 -129 -79 -135 -12 -7 -48 1 -145 34 -214 74 -268 63 -438 -91 -113
-102 -117 -102 -226 -3 -172 155 -240 169 -448 89 -49 -19 -101 -35 -115 -35
-31 0 -50 27 -104 143 -82 175 -138 214 -326 228 -61 4 -121 8 -133 8 -48 2
-59 29 -67 160 -13 225 -41 268 -235 364 -69 34 -129 70 -135 79 -8 13 0 47
34 145 74 214 63 268 -91 438 -103 114 -103 117 2 232 140 151 160 230 99 399
-48 134 -56 170 -40 189 7 8 60 38 119 66 199 95 228 137 242 346 5 74 13 143
19 153 13 24 28 27 160 35 212 12 258 42 353 234 34 69 70 129 79 135 13 8 48
0 145 -34 214 -74 266 -63 437 90 66 59 96 80 116 80 21 0 50 -20 117 -81z"/>
<path d="M3407 4656 c-154 -43 -261 -204 -243 -366 15 -128 112 -243 238 -281
127 -39 239 -10 335 86 53 53 64 71 83 134 51 166 -20 331 -176 407 -66 32
-165 41 -237 20z m171 -196 c130 -79 74 -280 -78 -280 -85 0 -150 65 -150 150
0 85 65 150 150 150 27 0 58 -8 78 -20z"/>
<path d="M4069 4655 c-54 -29 -60 -102 -13 -146 72 -68 185 22 139 111 -25 47
-76 62 -126 35z"/>
<path d="M2206 3965 c-58 -54 -18 -155 61 -155 42 1 63 13 81 47 49 91 -66
179 -142 108z"/>
<path d="M3954 3800 c-46 -18 -68 -85 -44 -131 16 -28 68 -52 99 -44 46 11 71
44 71 91 0 35 -5 47 -31 68 -31 27 -58 31 -95 16z"/>
<path d="M4633 3305 c-62 -27 -74 -106 -22 -149 41 -35 83 -34 120 3 49 50 37
121 -26 147 -40 16 -32 17 -72 -1z"/>
<path d="M2610 3276 c-252 -53 -296 -394 -66 -514 68 -36 180 -38 242 -5 105
56 158 141 158 252 -1 80 -19 125 -73 184 -68 73 -162 103 -261 83z m121 -205
c60 -60 23 -151 -61 -151 -56 0 -90 34 -90 89 0 32 6 44 31 65 41 35 83 34
120 -3z"/>
<path d="M3263 3282 c-28 -4 -73 -57 -73 -85 0 -12 9 -36 20 -54 36 -60 123
-54 156 10 35 67 -25 141 -103 129z"/>
<path d="M4127 2994 c-102 -32 -176 -148 -164 -255 16 -132 112 -218 245 -219
104 0 176 45 218 135 28 58 32 147 10 199 -49 118 -186 180 -309 140z m127
-196 c21 -30 20 -54 -4 -78 -39 -39 -100 -14 -100 41 0 56 73 82 104 37z"/>
<path d="M3376 2335 c-20 -18 -26 -34 -26 -65 0 -55 34 -90 87 -90 86 1 124
91 64 151 -38 38 -87 39 -125 4z"/>
</g>
</svg>
