<?xml version="1.0" encoding="iso-8859-1"?>
<!-- Generator: Adobe Illustrator 19.0.0, SVG Export Plug-In . SVG Version: 6.00 Build 0)  -->
<svg version="1.1" id="Layer_1" xmlns="http://www.w3.org/2000/svg" xmlns:xlink="http://www.w3.org/1999/xlink" x="0px" y="0px"
	 viewBox="0 0 512 512" style="enable-background:new 0 0 512 512;" xml:space="preserve">
<path style="fill:#FFD782;" d="M495.158,95.105c0-51.298-44.414-92.221-96.886-86.416c-38.882,4.302-70.861,35.319-76.196,74.073
	c-4.958,36.017,12.179,68.489,39.775,85.9c7.41,4.674,11.552,13.143,11.552,21.904v8.901h69.573v-9.162
	c0-8.689,4.199-17.003,11.548-21.638C478.932,153.269,495.158,126.094,495.158,95.105z"/>
<path style="fill:#FFC36E;" d="M393.147,167.261c-19.319-18.202-31.313-52.149-27.843-89.804
	c2.779-30.144,15.89-55.788,33.627-68.805c-0.222,0.023-0.436,0.013-0.658,0.037c-38.882,4.302-70.861,35.319-76.196,74.073
	c-4.958,36.017,12.179,68.489,39.776,85.9c7.408,4.673,11.552,13.143,11.552,21.903v8.901h26.09v-9.305
	C399.495,182.071,398.334,172.147,393.147,167.261z"/>
<path style="fill:#AFB9D2;" d="M425.585,234.251h-34.787c-9.607,0-17.393-7.787-17.393-17.393v-17.393h69.573v17.393
	C442.978,226.464,435.191,234.251,425.585,234.251z"/>
<path style="fill:#C7CFE2;" d="M425.585,234.251h-8.697c-9.607,0-17.393-7.787-17.393-17.393v-17.393h43.483v17.393
	C442.978,226.464,435.191,234.251,425.585,234.251z"/>
<path style="fill:#E6AF78;" d="M251.652,377.945v-39.334H129.899v39.334c0,7.636-4.98,14.379-12.279,16.624l-76.222,23.453
	c-14.596,4.491-24.556,17.977-24.556,33.248v35.184c0,9.607,7.787,17.393,17.393,17.393h313.079c9.607,0,17.393-7.787,17.393-17.393
	V451.27c0-15.271-9.96-28.758-24.556-33.248l-76.222-23.453C256.632,392.324,251.652,385.58,251.652,377.945z"/>
<path style="fill:#FFD782;" d="M340.152,418.021l-75.797-23.322l-47.49,39.575l-26.09,60.877l-26.09-60.877l-47.49-39.575
	l-75.797,23.322c-14.596,4.491-24.556,17.977-24.556,33.248v35.184c0,9.607,7.787,17.393,17.393,17.393h313.079
	c9.607,0,17.393-7.787,17.393-17.393V451.27C364.708,435.998,354.748,422.513,340.152,418.021z"/>
<path style="fill:#D29B6E;" d="M119.855,393.464c82.524,27.522,131.434-49.056,131.434-49.056l0.066-5.796H129.899v39.333
	C129.899,384.726,125.847,390.617,119.855,393.464z"/>
<path style="fill:#F0C087;" d="M224.121,367.35l34.904-29.087c6.461-5.383,10.751-12.924,12.08-21.227l19.836-123.973
	c6.764-42.271-25.89-80.565-68.699-80.565h-62.933c-42.809,0-75.463,38.294-68.699,80.565l19.836,123.973
	c1.328,8.303,5.62,15.844,12.08,21.227l34.904,29.087c4.689,3.907,10.599,6.047,16.702,6.047h33.289
	C213.522,373.398,219.433,371.258,224.121,367.35z"/>
<path style="fill:#E6AF78;" d="M172.241,236.697c40.086-5.638,74.762-16.716,98.722-25.907c0.026,0.003-4.907-22.468-4.831-22.457
	l-5.783,2.435c0,0-60.877,24.641-130.45,26.09H94.416l16.029,100.178c1.328,8.303,5.62,15.844,12.08,21.227l34.905,29.087
	c4.689,3.907,10.598,6.046,16.701,6.046h7.948l-12.931-38.791c-2.956-8.867-4.462-18.154-4.462-27.501v-61.836
	C164.685,240.923,167.938,237.303,172.241,236.697z"/>
<g>
	<path style="fill:#707487;" d="M99.982,251.644H88.787c-4.803,0-8.697,3.894-8.697,8.697v34.787c0,4.803,3.894,8.697,8.697,8.697
		h19.545L99.982,251.644z"/>
	<path style="fill:#707487;" d="M295.135,251.644h-13.567l-8.349,52.18h21.916c4.803,0,8.697-3.894,8.697-8.697v-34.787
		C303.832,255.538,299.938,251.644,295.135,251.644z"/>
</g>
<g>
	<path style="fill:#5B5D6E;" d="M93.261,209.636l6.721,42.008h5.881c3.922,0,7.358-2.625,8.39-6.408l9.742-35.72
		C112.455,209.88,102.05,209.846,93.261,209.636z"/>
	<path style="fill:#5B5D6E;" d="M289,162.633c-11.161,9.205-24.095,16.658-38.043,22.683l16.341,59.92
		c1.032,3.784,4.468,6.408,8.39,6.408h5.881l9.373-58.582C292.635,182.478,291.809,172.168,289,162.633z"/>
</g>
<path style="fill:#464655;" d="M290.786,169.966c-5.665-32.17-33.748-57.467-68.544-57.467h-62.933
	c-42.809,0-75.463,38.294-68.699,80.565l3.99,24.937C134.703,219.841,236.55,219.128,290.786,169.966z"/>
<g>
	<path style="fill:#FFC36E;" d="M128.526,383.651l36.16,50.623l-25.935,19.45c-4.508,3.381-10.991,1.648-13.211-3.532
		l-21.731-50.706l10.404-15.606C117.589,378.818,124.988,378.698,128.526,383.651z"/>
	<path style="fill:#FFC36E;" d="M253.025,383.651l-36.16,50.623l25.934,19.45c4.508,3.381,10.991,1.648,13.211-3.532l21.731-50.706
		l-10.404-15.606C263.962,378.818,256.562,378.698,253.025,383.651z"/>
	<path style="fill:#FFC36E;" d="M77.719,481.281c0-7.743-3.44-15.085-9.388-20.043l-41.317-34.313
		c-0.149,0.149-0.371,0.279-0.545,0.423c-6.002,6.317-9.627,14.776-9.627,23.921v35.184c0,9.605,7.788,17.393,17.393,17.393h43.483
		V481.281z"/>
	<path style="fill:#FFC36E;" d="M303.832,481.281c0-7.743,3.44-15.085,9.388-20.043l41.317-34.312
		c0.149,0.149,0.371,0.279,0.545,0.423c6.002,6.317,9.627,14.776,9.627,23.921v35.184c0,9.605-7.788,17.393-17.393,17.393h-43.483
		L303.832,481.281L303.832,481.281z"/>
</g>
<path d="M342.261,410.331l-59.363-17.809l-8.776-13.162c-3.072-4.608-8.211-7.412-13.748-7.501c-0.19-0.003-0.378,0.004-0.567,0.008
	v-23.64l4.44-3.699c7.976-6.646,13.271-15.953,14.911-26.203l1.015-6.346h6.267c14.086,0,25.546-11.46,25.546-25.546v-17.393
	c0-12.507-9.037-22.937-20.924-25.119l7.93-49.568c3.601-22.509-2.816-45.366-17.606-62.712
	c-14.791-17.345-36.348-27.293-59.144-27.293h-62.933c-22.796,0-44.353,9.948-59.144,27.293s-21.208,40.204-17.606,62.712
	l7.93,49.568c-11.886,2.183-20.924,12.612-20.924,25.119v17.393c0,14.086,11.46,25.546,25.546,25.546h6.267l1.015,6.346
	c1.64,10.251,6.936,19.557,14.911,26.203l4.44,3.7v23.637c-0.189-0.002-0.378-0.01-0.567-0.007
	c-5.538,0.089-10.676,2.893-13.748,7.5l-8.776,13.163l-59.363,17.809c-18.303,5.492-30.6,22.02-30.6,41.129v34.994
	C8.689,500.54,20.149,512,34.236,512h313.079c14.086,0,25.546-11.46,25.546-25.546V451.46
	C372.861,432.351,360.564,415.822,342.261,410.331z M341.174,427.329l-33.173,27.646c-7.83,6.525-12.321,16.114-12.321,26.306
	v14.414h-93.138l18.138-48.369l17.229,12.922c2.96,2.22,6.481,3.378,10.076,3.378c1.46,0,2.933-0.191,4.385-0.579
	c5.028-1.344,9.086-4.858,11.136-9.641l18.864-44.017l55.205,16.561C338.824,426.324,340.02,426.796,341.174,427.329z
	 M260.554,388.405l7.954,11.931l-19.991,46.647c-0.032,0.072-0.104,0.243-0.36,0.311c-0.257,0.068-0.403-0.043-0.466-0.09
	l-19.561-14.671l31.53-44.141l0,0c0.059-0.082,0.174-0.238,0.451-0.227C260.395,388.167,260.498,388.321,260.554,388.405z
	 M275.33,239.032l-6.85-43.917c5.234-2.925,10.274-6.116,15.076-9.588c-0.118,2.082-0.333,4.167-0.666,6.25L275.33,239.032z
	 M295.679,269.038v17.393c0,5.095-4.145,9.24-9.24,9.24h-3.658l5.702-35.638C292.597,260.967,295.679,264.646,295.679,269.038z
	 M112.573,142.219c11.688-13.706,28.723-21.568,46.736-21.568h62.933c18.013,0,35.048,7.861,46.736,21.568
	c6.068,7.116,10.334,15.41,12.653,24.226c-22.003,18.822-54.106,31.822-95.512,38.657c-33.319,5.5-65.442,5.648-84.524,5.018
	l-2.935-18.343C95.814,173.989,100.886,155.926,112.573,142.219z M106.935,243.491l-2.729-17.054
	c3.658,0.099,7.612,0.163,11.822,0.175l-8.536,16.878h-0.558V243.491z M95.112,295.671c-5.095,0-9.24-4.145-9.24-9.24v-17.393
	c0-4.392,3.082-8.07,7.195-9.004l5.702,35.638H95.112z M109.543,259.798h2.962c3.075,0,5.889-1.73,7.276-4.473l14.67-29.007
	c35.032-1.211,80.266-6.605,118.715-23.578l7.824,50.161c0.62,3.97,4.038,6.896,8.056,6.896h2.962l-6.266,39.165
	c-1.902,2.138-21.707,22.798-74.965,22.798c-4.503,0-8.153,3.65-8.153,8.153s3.65,8.153,8.153,8.153
	c34.181,0,56.547-7.838,70.178-15.406c-1.645,3.579-4.074,6.778-7.146,9.339l-34.904,29.087c-3.217,2.681-7.295,4.157-11.483,4.157
	h-33.289c-4.187,0-8.266-1.476-11.483-4.157L127.746,332c-4.946-4.122-8.231-9.895-9.249-16.253L109.543,259.798z M152.209,373.614
	c6.142,5.118,13.928,7.937,21.922,7.937h33.289c7.994,0,15.78-2.819,21.922-7.937l14.157-11.798v20.278
	c0,0.273,0.014,0.542,0.041,0.809l-33.309,46.631c-0.037,0.052-0.067,0.108-0.103,0.161c-0.089,0.13-0.175,0.263-0.257,0.4
	c-0.068,0.114-0.132,0.229-0.193,0.346c-0.06,0.112-0.118,0.224-0.173,0.339c-0.072,0.15-0.136,0.302-0.197,0.454
	c-0.024,0.06-0.053,0.115-0.076,0.176l-18.456,49.215l-18.456-49.215c-0.023-0.061-0.052-0.116-0.076-0.176
	c-0.062-0.153-0.126-0.305-0.198-0.457c-0.054-0.114-0.112-0.225-0.171-0.335c-0.063-0.118-0.127-0.236-0.197-0.352
	c-0.079-0.134-0.164-0.262-0.25-0.39c-0.037-0.055-0.068-0.113-0.108-0.167l-33.309-46.631c0.026-0.266,0.041-0.536,0.041-0.809
	v-20.278L152.209,373.614z M120.997,388.404c0.055-0.083,0.159-0.237,0.444-0.241c0.275-0.011,0.392,0.146,0.451,0.227l0,0
	l31.53,44.141l-19.561,14.671c-0.064,0.047-0.211,0.159-0.466,0.09s-0.328-0.239-0.36-0.311l-19.991-46.647L120.997,388.404z
	 M99.181,409.389l18.864,44.017c2.05,4.782,6.109,8.297,11.136,9.64c1.452,0.388,2.924,0.579,4.385,0.579
	c3.595,0,7.116-1.158,10.076-3.378l17.229-12.922l18.138,48.369H85.872v-14.414c0-10.192-4.491-19.782-12.321-26.306l-33.173-27.646
	c1.154-0.534,2.349-1.004,3.599-1.38L99.181,409.389z M24.995,486.454V451.46c0-4.673,1.201-9.089,3.334-12.944l34.782,28.986
	c4.102,3.418,6.454,8.44,6.454,13.78v14.414h-35.33C29.14,495.694,24.995,491.549,24.995,486.454z M356.555,486.454
	c0,5.095-4.145,9.24-9.24,9.24h-35.33v-14.414c0-5.339,2.352-10.361,6.454-13.78l34.782-28.986
	c2.133,3.854,3.334,8.269,3.334,12.944V486.454z"/>
<path d="M471.624,24.223C451.503,6.207,424.446-2.411,397.376,0.584c-42.493,4.702-77.558,38.795-83.377,81.065
	c-5.329,38.719,12.97,76.319,46.618,95.79c2.858,1.655,4.634,4.697,4.634,7.94v31.479c0,14.086,11.46,25.546,25.546,25.546h9.24
	v0.544c0,4.503,3.65,8.153,8.153,8.153s8.153-3.65,8.153-8.153v-0.544h9.24c14.086,0,25.546-11.46,25.546-25.546v-31.472
	c0-3.244,1.807-6.306,4.714-7.993c29.278-16.979,47.466-48.511,47.466-82.288C503.311,68.091,491.762,42.255,471.624,24.223z
	 M425.585,226.098h-34.787c-5.095,0-9.24-4.145-9.24-9.24v-9.24h53.267v9.24C434.825,221.953,430.68,226.098,425.585,226.098z
	 M447.665,163.288c-7.919,4.593-12.84,13.061-12.84,22.099v5.926h-53.267v-5.932c0-9.043-4.894-17.494-12.773-22.054
	c-27.889-16.139-43.053-47.326-38.632-79.453c4.815-34.978,33.84-63.189,69.016-67.082c3.062-0.339,6.104-0.507,9.123-0.507
	c19.453,0,37.811,6.974,52.454,20.086c16.688,14.943,26.258,36.351,26.258,58.734C487.005,123.088,471.93,149.214,447.665,163.288z"
	/>
<path d="M408.192,120.651c4.503,0,8.153-3.65,8.153-8.153V51.622c0-4.503-3.65-8.153-8.153-8.153s-8.153,3.65-8.153,8.153v60.877
	C400.038,117.001,403.689,120.651,408.192,120.651z"/>
<path d="M408.192,139.132c-4.503,0-8.153,3.65-8.153,8.153c0,4.503,3.65,8.153,8.153,8.153h0.087c4.503,0,8.11-3.65,8.11-8.153
	C416.388,142.782,412.694,139.132,408.192,139.132z"/>
<g>
</g>
<g>
</g>
<g>
</g>
<g>
</g>
<g>
</g>
<g>
</g>
<g>
</g>
<g>
</g>
<g>
</g>
<g>
</g>
<g>
</g>
<g>
</g>
<g>
</g>
<g>
</g>
<g>
</g>
</svg>
