<?xml version="1.0" encoding="iso-8859-1"?>
<!-- Generator: Adobe Illustrator 19.0.0, SVG Export Plug-In . SVG Version: 6.00 Build 0)  -->
<svg version="1.1" id="Layer_1" xmlns="http://www.w3.org/2000/svg" xmlns:xlink="http://www.w3.org/1999/xlink" x="0px" y="0px"
	 viewBox="0 0 512.001 512.001" style="enable-background:new 0 0 512.001 512.001;" xml:space="preserve">
<g>
	<path style="fill:#A66206;" d="M198.176,221.345c0,0-2.074,19.914-0.837,21.152s6.923,4.7,8.285,4.7s11.323-3.815,12.485-6.423
		c1-2.244,0.269-7.914-2.573-11.322c-3.263-3.915-2.841-10.796-2.841-10.796L198.176,221.345z"/>
	<path style="fill:#A66206;" d="M225.412,82.129c-2.385-0.253-16.506,2.493-19.233,24.16c-0.983,7.807-3.132,38.131-4.15,64.203
		c-1.168,29.873-3.851,50.853-3.851,50.853c0,6.818,12,11.921,17,6.92c0.749-0.749,0.932-29.056,6.974-69.861
		C227.864,119.812,242.019,83.887,225.412,82.129z"/>
</g>
<g>
	<path style="fill:#1D1D1F;" d="M221.179,443.913c0,0-33.702,32.925-26.39,37.525c10.182,6.406,51.567-20.03,51.567-22.152
		c0-2.121-2.931-22.727-2.931-22.727L221.179,443.913z"/>
	<path style="fill:#1D1D1F;" d="M266.861,469.246c0,0-32.531,35.505-23.121,41.81c9.994,6.696,48.299-24.315,48.299-26.437
		c0-2.121-2.931-22.727-2.931-22.727L266.861,469.246z"/>
</g>
<path style="fill:#1D81CD;" d="M213.957,239.773l-0.746,207.737c0,0-0.479,6.093,15.765,6.093s17.102-7.771,17.102-7.771
	l4.328-150.487l0.789,0.113l8.503,177.925c0,0-1.005,4.769,15.239,4.769s17.102-7.771,17.102-7.771l1.57-223.576L213.957,239.773z"
	/>
<path style="fill:#FF5023;" d="M211.441,238.24c0,0-2.108-34.943-1.575-67.141c0.447-27.019-2.244-53.692-2.122-60.416
	c0.304-16.667,10.79-28.464,16.921-28.569c0,0,42.889,3.531,78.712,31.394c0,0-3.767,139.614-8.531,141.231
	C255.559,268.067,213.031,245.515,211.441,238.24z"/>
<path style="fill:#884D01;" d="M241.229,74.167c0,0-2.256,17.045-3.333,26.41c-0.797,6.929,11.446,11.393,20.802,8.451
	c9.357-2.942,13.137-9.863,13.137-9.863c-4.414-14.863-4.126-36.41-4.126-36.41L241.229,74.167z"/>
<path style="fill:#A66206;" d="M218.941,46.155c0,0,2.136,32.019,9.834,37.738c7.699,5.719,31.829,0.236,45.25-22.612
	c11.197-19.061,6.524-56.448-17.543-60.412C228.371-3.76,217.254,17.5,218.941,46.155z"/>
<path style="fill:#554432;" d="M256.812,0.541c-23.114-3.279-35.96,8.47-37.645,32.193c18.692,12.389,30.922-2.917,37.56,4.669
	c6.44,8.28,5.79,27.519,7.072,26.19c2.253-11.899,2.15-18.396,8.037-19.38c6.574-1.099,3.877,9.09,3.215,15.186
	C287.368,39.759,277.782,3.516,256.812,0.541z"/>
<g>
	<path style="fill:#A66206;" d="M294.303,268.857c0,0-0.372,12.181-0.029,14.505c0.343,2.323,2.85,4.632,2.85,4.632
		s-0.227,5.629,1.955,7.249c2.182,1.621,14.824-4.52,16.764-6.511c2.726-2.798-0.618-22.959-0.618-22.959
		S297.461,258.681,294.303,268.857z"/>
	<path style="fill:#A66206;" d="M303.377,113.508c0,0-13.338,3.166-13.973,19.041c-0.634,15.875,3.467,30.051,4.205,82.288
		c0.652,46.17,0.643,55.919,0.643,55.919s6.527,10.307,21.534-1.208c0,0-0.236-74.687-0.393-84.049
		C314.411,127.184,313.925,119.867,303.377,113.508z"/>
</g>
<path style="fill:#FF3502;" d="M293.609,214.836c-0.416-29.387-1.895-46.728-2.997-59.103l-0.454-4.92l-1.919,105.827
	c1.965-0.471,3.928-1.034,5.884-1.675C294.031,246.441,293.875,233.672,293.609,214.836z"/>
<path style="fill:#A66206;" d="M264.696,59.348c0,0,2.513-17.656,7.744-17.89c3.688-0.165,5.294,7.455,2.583,13.315
	c-2.711,5.859-10.327,11.323-10.327,11.323V59.348L264.696,59.348z"/>
<g>
	<path style="fill:#FF5023;" d="M288.238,132.548c0,15.725,0,37.944,0,37.944s7.424,7.987,29.773,0c0,0,3.297-49.005-14.634-56.985
		C296.972,110.657,288.238,124.178,288.238,132.548z"/>
	<path style="fill:#FF5023;" d="M214.118,134.486c-11.879-4.185-11.169-11.169-11.169-11.169
		c0.922-42.939,19.884-40.87,19.884-40.87L214.118,134.486z"/>
</g>
<g>
</g>
<g>
</g>
<g>
</g>
<g>
</g>
<g>
</g>
<g>
</g>
<g>
</g>
<g>
</g>
<g>
</g>
<g>
</g>
<g>
</g>
<g>
</g>
<g>
</g>
<g>
</g>
<g>
</g>
</svg>
